<svg xmlns="http://www.w3.org/2000/svg" width="232" height="183">
<defs>
<style>.white_90{fill:#fff;opacity:0.9;}.red{fill:#C10000;}</style>

<filter id="dropshadow" x="-10" y="-10" width="232" height="183" filterUnits="userSpaceOnUse">
      <feOffset dy="10" input="SourceAlpha"/>
      <feGaussianBlur stdDeviation="10" result="blur"/>
      <feFlood flood-opacity="0.3"/>
      <feComposite operator="in" in2="blur"/>
      <feComposite in="SourceGraphic"/>
</filter>
    
</defs>

<rect class="red" filter="url(#dropshadow)" width="172" height="123" rx="24" transform="translate(20 10)" />

<path class="white_90" d="M40.9,63.4h3.7c1,0,1.8-0.8,1.8-1.8v0V28.7c0-1-0.8-1.8-1.8-1.8l0,0h-3.7c-1,0-1.8,0.8-1.8,1.8v0v32.9
	C39,62.6,39.9,63.4,40.9,63.4C40.9,63.4,40.9,63.4,40.9,63.4z M65.9,12.2H53.3l-5.2-8.6c-1.4-2.1-3.7-3.4-6.3-3.6H26.5
	c-2.5,0.1-4.9,1.5-6.3,3.6L15,12.2H2.4c-1.3,0-2.4,1.1-2.4,2.4v2.4c0,1.3,1.1,2.4,2.4,2.4h2.4v51.2c0,4,3.3,7.3,7.3,7.3h43.9
	c4,0,7.3-3.3,7.3-7.3V19.5h2.4c1.3,0,2.4-1.1,2.4-2.4v-2.4C68.3,13.3,67.2,12.2,65.9,12.2z M26.2,7.8c0.2-0.3,0.5-0.4,0.8-0.4h14.3
	c0.3,0,0.6,0.2,0.8,0.4l2.7,4.4H23.5L26.2,7.8z M56.1,70.8H12.2V19.5h43.9V70.8z M23.8,63.4h3.7c1,0,1.8-0.8,1.8-1.8l0,0V28.7
	c0-1-0.8-1.8-1.8-1.8h-3.7c-1,0-1.8,0.8-1.8,1.8v32.9C22,62.6,22.8,63.4,23.8,63.4C23.8,63.4,23.8,63.4,23.8,63.4z" transform="translate(72 30)" />
</svg>