<svg width="96" height="96" viewBox="0 0 96 96" fill="none" xmlns="http://www.w3.org/2000/svg">
    <g opacity="0.9">
        <g opacity="0.6" filter="url(#filter0_d_1_37)">
            <path d="M48.0239 89.0478C70.6808 89.0478 89.0478 70.6808 89.0478 48.0239C89.0478 25.367 70.6808 7 48.0239 7C25.367 7 7 25.367 7 48.0239C7 70.6808 25.367 89.0478 48.0239 89.0478Z" fill="#0B0F28" fill-opacity="0.71"/>
            <path d="M48.0239 89.4141C70.8831 89.4141 89.4141 70.8831 89.4141 48.0239C89.4141 25.1647 70.8831 6.6337 48.0239 6.6337C25.1647 6.6337 6.6337 25.1647 6.6337 48.0239C6.6337 70.8831 25.1647 89.4141 48.0239 89.4141Z" stroke="url(#paint0_linear_1_37)" stroke-width="0.73257"/>
        </g>
        <path opacity="0.8" d="M48.0239 89.0478C70.6808 89.0478 89.0478 70.6808 89.0478 48.0239C89.0478 25.367 70.6808 7 48.0239 7C25.367 7 7 25.367 7 48.0239C7 70.6808 25.367 89.0478 48.0239 89.0478Z" fill="url(#paint1_radial_1_37)" fill-opacity="0.76"/>
        <path d="M26 40.2332V54.6132C26 56.0668 27.1778 57.2446 28.6313 57.2446H36.1033V37.6019H28.6313C27.1778 37.6019 26 38.7797 26 40.2332Z" fill="white"/>
        <path d="M49.9075 26.7521L37.7562 37.6012V57.2445L49.9075 68.0936C51.8012 69.7841 54.8025 68.4399 54.8025 65.9018V28.944C54.8025 26.4058 51.8012 25.0617 49.9075 26.7521Z" fill="white"/>
        <path d="M61.2663 39.3852C60.7555 38.69 59.7781 38.5408 59.0829 39.0516C58.3877 39.5624 58.2386 40.5398 58.7493 41.235C60.082 43.048 60.786 45.1993 60.786 47.4572C60.786 49.7153 60.082 51.8666 58.7493 53.6795C58.2386 54.3747 58.3877 55.3521 59.0829 55.863C59.3611 56.0674 59.6851 56.1661 60.0066 56.1661C60.487 56.1661 60.96 55.9455 61.2663 55.5294C62.9958 53.1768 63.9091 50.3856 63.9091 47.4572C63.9091 44.529 62.9951 41.7378 61.2663 39.3852Z" fill="white"/>
        <path d="M66.0282 35.611C65.5094 34.9222 64.5304 34.7835 63.8417 35.3023C63.1529 35.8211 63.0142 36.8001 63.5329 37.4889C65.7083 40.3796 66.8589 43.8266 66.8589 47.4574C66.8589 51.0881 65.7092 54.5345 63.5329 57.4259C63.0142 58.1146 63.1529 59.0937 63.8417 59.6125C64.1231 59.8241 64.4527 59.9268 64.7797 59.9268C65.2536 59.9268 65.7219 59.7119 66.029 59.3038C68.6158 55.8671 69.9829 51.7705 69.9829 47.4574C69.9829 43.1443 68.6149 39.0477 66.0282 35.611Z" fill="white"/>
    </g>
    <defs>
        <filter id="filter0_d_1_37" x="4.06741" y="6.26743" width="87.913" height="88.643" filterUnits="userSpaceOnUse" color-interpolation-filters="sRGB">
            <feFlood flood-opacity="0" result="BackgroundImageFix"/>
            <feColorMatrix in="SourceAlpha" type="matrix" values="0 0 0 0 0 0 0 0 0 0 0 0 0 0 0 0 0 0 127 0" result="hardAlpha"/>
            <feOffset dy="2.93"/>
            <feGaussianBlur stdDeviation="1.1"/>
            <feComposite in2="hardAlpha" operator="out"/>
            <feColorMatrix type="matrix" values="0 0 0 0 0 0 0 0 0 0 0 0 0 0 0 0 0 0 0.75 0"/>
            <feBlend mode="normal" in2="BackgroundImageFix" result="effect1_dropShadow_1_37"/>
            <feBlend mode="normal" in="SourceGraphic" in2="effect1_dropShadow_1_37" result="shape"/>
        </filter>
        <linearGradient id="paint0_linear_1_37" x1="48.0239" y1="7" x2="48.0239" y2="89.0478" gradientUnits="userSpaceOnUse">
            <stop stop-color="#9B9B9B"/>
            <stop offset="1"/>
        </linearGradient>
        <radialGradient id="paint1_radial_1_37" cx="0" cy="0" r="1" gradientUnits="userSpaceOnUse" gradientTransform="translate(48.0239 48.0239) rotate(90) scale(41.0239)">
            <stop stop-color="white" stop-opacity="0"/>
            <stop offset="0.853089" stop-color="white" stop-opacity="0"/>
            <stop offset="1" stop-color="white"/>
        </radialGradient>
    </defs>
</svg>
