<svg xmlns="http://www.w3.org/2000/svg" xmlns:xlink="http://www.w3.org/1999/xlink" width="182" height="183" viewBox="0 0 182 183">
  <defs>
    <filter id="Rectangle_2117" x="0" y="0" width="182" height="183" filterUnits="userSpaceOnUse">
      <feOffset dy="5" input="SourceAlpha"/>
      <feGaussianBlur stdDeviation="10" result="blur"/>
      <feFlood flood-opacity="0.302"/>
      <feComposite operator="in" in2="blur"/>
      <feComposite in="SourceGraphic"/>
    </filter>
  </defs>
  <g id="reality_check_left" transform="translate(-2753 -1332)">
    <g transform="matrix(1, 0, 0, 1, 2753, 1332)" filter="url(#Rectangle_2117)">
      <path id="Rectangle_2117-2" data-name="Rectangle 2117" d="M0,0H97a25,25,0,0,1,25,25V98a25,25,0,0,1-25,25H0a0,0,0,0,1,0,0V0A0,0,0,0,1,0,0Z" transform="translate(152 148) rotate(180)" fill="#fff" opacity="0.2"/>
    </g>
    <path id="Path_247" data-name="Path 247" d="M0,0,16.072,16.073,0,32.145" transform="translate(2851.472 1435.671) rotate(180)" fill="none" stroke="#fff" stroke-linecap="round" stroke-linejoin="round" stroke-width="10"/>
  </g>
</svg>
