<svg width="100" height="100" viewBox="0 0 100 100" fill="none" xmlns="http://www.w3.org/2000/svg">
<path fill-rule="evenodd" clip-rule="evenodd" d="M52.214 27.5C52.214 24.8965 50.1034 22.7859 47.4999 22.7859C44.8964 22.7859 42.7859 24.8965 42.7859 27.5V45.286H24.9999C22.3964 45.286 20.2859 47.3965 20.2859 50C20.2859 52.6035 22.3964 54.714 24.9999 54.714H42.7859V72.5C42.7859 75.1035 44.8964 77.214 47.4999 77.214C50.1034 77.214 52.214 75.1035 52.214 72.5V54.714H69.9999C72.6034 54.714 74.714 52.6035 74.714 50C74.714 47.3965 72.6034 45.286 69.9999 45.286H52.214V27.5Z" fill="white"/>
</svg>
