<svg width="150" height="150" viewBox="0 0 150 150" fill="none" xmlns="http://www.w3.org/2000/svg">
<path opacity="0.5" d="M97.6496 92.8952L82.6225 49.6979C82.3812 49.0256 81.9384 48.4442 81.3545 48.033C80.7705 47.6217 80.0739 47.4007 79.3597 47.4001H70.7892C70.0766 47.3953 69.3804 47.6146 68.799 48.0268C68.2177 48.4391 67.7806 49.0237 67.5495 49.6979L52.6143 92.8952C52.3144 93.7604 52.3639 94.7079 52.7522 95.5369C53.1586 96.3595 53.8663 96.9933 54.7282 97.3061C55.0917 97.456 55.485 97.5189 55.8771 97.4902H61.2308C61.9496 97.4976 62.653 97.2802 63.2421 96.8684C63.8313 96.4567 64.2768 95.87 64.5165 95.1927L67.1359 86.8288C67.2063 86.5925 67.3523 86.3858 67.5515 86.2405C67.7508 86.0953 67.9923 86.0194 68.2388 86.0247H81.6574C81.9031 86.0232 82.1427 86.1004 82.3413 86.2452C82.5397 86.39 82.6866 86.5945 82.7603 86.8288L85.3797 95.1927C85.6206 95.8737 86.0696 96.4631 86.6634 96.8749C87.2572 97.2876 87.9656 97.5022 88.6882 97.4902H94.3871C94.8386 97.493 95.2855 97.4069 95.7038 97.2367C96.122 97.0655 96.5023 96.8138 96.8224 96.4955C97.1426 96.1772 97.397 95.7988 97.5701 95.3824C97.744 94.9651 97.8338 94.5182 97.8328 94.0666C97.8393 93.6688 97.7773 93.2718 97.6496 92.8952ZM78.4177 76.0526C78.2972 76.0847 78.1704 76.0847 78.05 76.0526H71.8462C71.6928 76.0671 71.5381 76.0457 71.3945 75.9899C71.2508 75.934 71.1222 75.8454 71.019 75.7309C70.8549 75.5134 70.7735 75.2447 70.7892 74.9726C70.7651 74.8513 70.7651 74.7264 70.7892 74.605L74.994 61.1634L79.1989 74.605C79.2446 74.7513 79.2606 74.9053 79.2459 75.0578C79.2312 75.2104 79.1861 75.3586 79.1134 75.4935C79.0406 75.6284 78.9415 75.7474 78.822 75.8433C78.7026 75.9394 78.5651 76.0105 78.4177 76.0526Z" fill="white"/>
<path d="M134.689 74.9871C134.079 74.9871 133.495 74.7451 133.064 74.3142C132.633 73.8833 132.391 73.2988 132.391 72.6894C131.961 61.7472 128.413 51.1559 122.164 42.1634C115.915 33.1708 107.226 26.1517 97.121 21.9333C87.0152 17.7149 75.9146 16.4728 65.1268 18.3536C54.3389 20.2342 44.3134 25.1593 36.2315 32.5484C35.8445 32.9137 35.5961 33.4021 35.5292 33.9301C35.4621 34.4581 35.5804 34.993 35.8639 35.4435L41.1487 43.9221C41.4702 44.4221 41.973 44.778 42.5514 44.9151C43.1298 45.0522 43.7389 44.9598 44.2506 44.6573C44.3903 44.5708 44.5211 44.4708 44.6412 44.3586C50.5416 38.488 58.0162 34.4523 66.1613 32.7393C74.3066 31.0264 82.7736 31.7096 90.5385 34.7063C98.3044 37.7029 105.035 42.8849 109.918 49.6256C114.8 56.3662 117.626 64.377 118.053 72.6894C118.053 73.2988 117.811 73.8833 117.38 74.3142C116.949 74.7451 116.365 74.9871 115.755 74.9871H111.458C110.85 74.9871 110.265 75.2292 109.834 75.6601C109.403 76.091 109.161 76.6754 109.161 77.2848C109.164 77.7072 109.283 78.1206 109.506 78.4796L123.292 100.653C123.618 101.161 124.13 101.521 124.72 101.654C125.309 101.787 125.927 101.684 126.44 101.364C126.727 101.183 126.97 100.94 127.152 100.653L140.938 78.4796C141.144 78.1435 141.26 77.7599 141.276 77.3659C141.291 76.9719 141.204 76.5806 141.023 76.2298C140.844 75.8789 140.576 75.5803 140.248 75.3627C139.918 75.1451 139.539 75.0157 139.146 74.9871H134.689ZM74.948 118.07C63.536 118.051 52.598 113.503 44.537 105.425C36.4762 97.3468 31.9517 86.3992 31.9578 74.9871H38.5293C39.1387 74.9871 39.7231 74.7451 40.154 74.3142C40.5849 73.8833 40.827 73.2988 40.827 72.6894C40.8241 72.267 40.7049 71.8536 40.4823 71.4946L26.6961 49.3217C26.3706 48.8193 25.8619 48.4638 25.2783 48.3307C24.6948 48.1978 24.0822 48.2977 23.5712 48.6094C23.278 48.7915 23.0272 49.0344 22.8359 49.3217L9.04968 71.4946C8.74007 72.0083 8.64366 72.6228 8.78106 73.2068C8.91847 73.7906 9.27869 74.2977 9.78491 74.6195C10.1312 74.8541 10.5386 74.9818 10.9568 74.9871H15.3913C16.0007 74.9871 16.5851 75.2292 17.0161 75.6601C17.447 76.091 17.689 76.6754 17.689 77.2848C18.1135 88.2244 21.6551 98.8144 27.8965 107.808C34.1381 116.802 42.8196 123.825 52.9188 128.05C63.018 132.275 74.1142 133.526 84.9007 131.656C95.6868 129.786 105.715 124.872 113.802 117.495C114.19 117.13 114.438 116.641 114.504 116.113C114.572 115.585 114.454 115.05 114.17 114.6L108.885 106.121C108.564 105.621 108.061 105.265 107.482 105.128C106.904 104.991 106.295 105.083 105.784 105.386C105.644 105.473 105.512 105.573 105.393 105.685C97.3347 113.68 86.4375 118.158 75.0859 118.138L74.948 118.07Z" fill="white"/>
</svg>
