<svg width="80" height="80" viewBox="0 0 80 80" fill="none" xmlns="http://www.w3.org/2000/svg">
<g opacity="0.9">
<path fill-rule="evenodd" clip-rule="evenodd" d="M18.8917 41.0273C18.8917 28.8022 28.8021 18.8918 41.0273 18.8918C53.2524 18.8918 63.1628 28.8022 63.1628 41.0273C63.1628 53.2525 53.2524 63.1629 41.0273 63.1629C28.8021 63.1629 18.8917 53.2525 18.8917 41.0273ZM41.0273 12.8228C25.4503 12.8228 12.8228 25.4504 12.8228 41.0273C12.8228 56.6043 25.4503 69.2318 41.0273 69.2318C56.6042 69.2318 69.2318 56.6043 69.2318 41.0273C69.2318 25.4504 56.6042 12.8228 41.0273 12.8228ZM44.0621 28.2369C44.0621 26.561 42.7035 25.2024 41.0276 25.2024C39.3517 25.2024 37.9931 26.561 37.9931 28.2369V41.0787C37.9931 42.2281 38.6425 43.2788 39.6706 43.7928L49.9441 48.9296C51.443 49.6791 53.2658 49.0715 54.0152 47.5725C54.7647 46.0735 54.1571 44.2508 52.6582 43.5013L44.0621 39.2033V28.2369Z" fill="white"/>
</g>
</svg>
