<svg width="80" height="80" viewBox="0 0 80 80" fill="none" xmlns="http://www.w3.org/2000/svg">
<path fill-rule="evenodd" clip-rule="evenodd" d="M39.9998 10.8978C23.927 10.8978 10.8975 23.9273 10.8975 40C10.8975 56.0728 23.927 69.1023 39.9998 69.1023C56.0725 69.1023 69.102 56.0728 69.102 40C69.102 23.9273 56.0725 10.8978 39.9998 10.8978ZM3.8999 40C3.8999 20.0626 20.0624 3.90014 39.9998 3.90014C59.9372 3.90014 76.0997 20.0626 76.0997 40C76.0997 59.9374 59.9372 76.0999 39.9998 76.0999C20.0624 76.0999 3.8999 59.9374 3.8999 40ZM40.0337 36.4264C42.6688 36.4264 44.8049 38.5624 44.8049 41.1975V55.2359C44.8049 57.8709 42.6688 60.007 40.0337 60.007C37.3987 60.007 35.2626 57.8709 35.2626 55.2359V41.1975C35.2626 38.5624 37.3987 36.4264 40.0337 36.4264ZM45.0233 25.0633C45.0233 27.8376 42.7743 30.0866 40.0001 30.0866C37.2258 30.0866 34.9768 27.8376 34.9768 25.0633C34.9768 22.2891 37.2258 20.0401 40.0001 20.0401C42.7743 20.0401 45.0233 22.2891 45.0233 25.0633Z" fill="white"/>
</svg>
