<svg width="80" height="80" viewBox="0 0 80 80" fill="none" xmlns="http://www.w3.org/2000/svg">
<path d="M37.4859 70C36.1526 70 34.9026 69.7143 33.7359 69.1429C32.5692 68.5714 31.5812 67.7619 30.7716 66.7143L15.2002 46.9286L16.5573 45.5C17.5097 44.5 18.6526 43.9048 19.9859 43.7143C21.3192 43.5238 22.5573 43.7857 23.7002 44.5L28.9859 47.7143V24.2857C28.9859 23.4762 29.2597 22.7976 29.8073 22.25C30.355 21.7024 31.0335 21.4286 31.8431 21.4286C32.6526 21.4286 33.3431 21.7024 33.9145 22.25C34.4859 22.7976 34.7716 23.4762 34.7716 24.2857V38.5714H56.1288C58.5097 38.5714 60.5335 39.4048 62.2002 41.0714C63.8669 42.7381 64.7002 44.7619 64.7002 47.1429V58.5714C64.7002 61.7143 63.5812 64.4048 61.3431 66.6429C59.105 68.881 56.4145 70 53.2716 70H37.4859ZM19.4859 31.4286C18.8669 30.381 18.3907 29.25 18.0573 28.0357C17.724 26.8214 17.5573 25.5714 17.5573 24.2857C17.5573 20.3333 18.9502 16.9643 21.7359 14.1786C24.5216 11.3929 27.8907 10 31.8431 10C35.7954 10 39.1645 11.3929 41.9502 14.1786C44.7359 16.9643 46.1288 20.3333 46.1288 24.2857C46.1288 25.5714 45.9621 26.8214 45.6288 28.0357C45.2954 29.25 44.8193 30.381 44.2002 31.4286L39.2716 28.5714C39.6526 27.9048 39.9383 27.2262 40.1288 26.5357C40.3193 25.8452 40.4145 25.0952 40.4145 24.2857C40.4145 21.9048 39.5812 19.881 37.9145 18.2143C36.2478 16.5476 34.224 15.7143 31.8431 15.7143C29.4621 15.7143 27.4383 16.5476 25.7716 18.2143C24.105 19.881 23.2716 21.9048 23.2716 24.2857C23.2716 25.0952 23.3669 25.8452 23.5573 26.5357C23.7478 27.2262 24.0335 27.9048 24.4145 28.5714L19.4859 31.4286Z" fill="white"/>
</svg>
