<svg width="150" height="150" viewBox="0 0 150 150" fill="none" xmlns="http://www.w3.org/2000/svg">
<path opacity="0.3" d="M97.6496 92.8952L82.6225 49.6979C82.3812 49.0256 81.9384 48.4442 81.3545 48.033C80.7705 47.6217 80.0739 47.4007 79.3597 47.4001H70.7892C70.0766 47.3953 69.3804 47.6146 68.799 48.0268C68.2177 48.4391 67.7806 49.0237 67.5495 49.6979L52.6143 92.8952C52.3144 93.7604 52.3639 94.7079 52.7522 95.5369C53.1586 96.3595 53.8663 96.9933 54.7282 97.3061C55.0917 97.456 55.485 97.5189 55.8771 97.4902H61.2308C61.9496 97.4976 62.653 97.2802 63.2421 96.8684C63.8313 96.4567 64.2768 95.87 64.5165 95.1927L67.1359 86.8288C67.2063 86.5925 67.3523 86.3858 67.5515 86.2405C67.7508 86.0953 67.9923 86.0194 68.2388 86.0247H81.6574C81.9031 86.0232 82.1427 86.1004 82.3413 86.2452C82.5397 86.39 82.6866 86.5945 82.7603 86.8288L85.3797 95.1927C85.6206 95.8737 86.0696 96.4631 86.6634 96.8749C87.2572 97.2876 87.9656 97.5022 88.6882 97.4902H94.3871C94.8386 97.493 95.2855 97.4069 95.7038 97.2367C96.122 97.0655 96.5023 96.8138 96.8224 96.4955C97.1426 96.1772 97.397 95.7988 97.5701 95.3824C97.744 94.9651 97.8338 94.5182 97.8328 94.0666C97.8393 93.6688 97.7773 93.2718 97.6496 92.8952ZM78.4177 76.0526C78.2972 76.0847 78.1704 76.0847 78.05 76.0526H71.8462C71.6928 76.0671 71.5381 76.0457 71.3945 75.9899C71.2508 75.934 71.1222 75.8454 71.019 75.7309C70.8549 75.5134 70.7735 75.2447 70.7892 74.9726C70.7651 74.8513 70.7651 74.7264 70.7892 74.605L74.994 61.1634L79.1989 74.605C79.2446 74.7513 79.2606 74.9053 79.2459 75.0578C79.2312 75.2104 79.1861 75.3586 79.1134 75.4935C79.0406 75.6284 78.9415 75.7474 78.822 75.8433C78.7026 75.9394 78.5651 76.0105 78.4177 76.0526Z" fill="white"/>
<path opacity="0.3" d="M134.689 74.9871C134.079 74.9871 133.495 74.7451 133.064 74.3142C132.633 73.8833 132.391 73.2988 132.391 72.6894C131.961 61.7472 128.414 51.1559 122.164 42.1634C115.916 33.1708 107.226 26.1517 97.1212 21.9333C87.0155 17.7149 75.9149 16.4728 65.127 18.3536C54.3392 20.2342 44.3136 25.1593 36.2318 32.5484C35.8447 32.9137 35.5964 33.4021 35.5294 33.9301C35.4623 34.4581 35.5807 34.993 35.8642 35.4435L41.149 43.9221C41.4704 44.4221 41.9732 44.778 42.5516 44.9151C43.13 45.0522 43.7391 44.9598 44.2508 44.6573C44.3905 44.5708 44.5214 44.4708 44.6415 44.3586C50.5419 38.488 58.0164 34.4523 66.1616 32.7393C74.3068 31.0264 82.7739 31.7096 90.5387 34.7063C98.3047 37.7029 105.035 42.8849 109.918 49.6256C114.801 56.3662 117.627 64.377 118.053 72.6894C118.053 73.2988 117.812 73.8833 117.38 74.3142C116.949 74.7451 116.365 74.9871 115.756 74.9871H111.459C110.85 74.9871 110.265 75.2292 109.834 75.6601C109.404 76.091 109.161 76.6754 109.161 77.2848C109.164 77.7072 109.283 78.1206 109.506 78.4796L123.292 100.653C123.618 101.161 124.13 101.521 124.72 101.654C125.309 101.787 125.927 101.684 126.44 101.364C126.727 101.183 126.97 100.94 127.152 100.653L140.938 78.4796C141.145 78.1435 141.26 77.7599 141.276 77.3659C141.291 76.9719 141.204 76.5806 141.023 76.2298C140.844 75.8789 140.577 75.5803 140.248 75.3627C139.919 75.1451 139.539 75.0157 139.146 74.9871H134.689ZM74.9482 118.07C63.5363 118.051 52.5982 113.503 44.5373 105.425C36.4764 97.3468 31.952 86.3992 31.9581 74.9871H38.5296C39.139 74.9871 39.7234 74.7451 40.1543 74.3142C40.5852 73.8833 40.8272 73.2988 40.8272 72.6894C40.8244 72.267 40.7051 71.8536 40.4826 71.4946L26.6963 49.3217C26.3709 48.8193 25.8622 48.4638 25.2786 48.3307C24.695 48.1978 24.0825 48.2977 23.5714 48.6094C23.2782 48.7915 23.0274 49.0344 22.8362 49.3217L9.04992 71.4946C8.74032 72.0083 8.6439 72.6228 8.78131 73.2068C8.91871 73.7906 9.27893 74.2977 9.78516 74.6195C10.1314 74.8541 10.5388 74.9818 10.957 74.9871H15.3916C16.001 74.9871 16.5854 75.2292 17.0163 75.6601C17.4472 76.091 17.6893 76.6754 17.6893 77.2848C18.1138 88.2244 21.6553 98.8144 27.8968 107.808C34.1383 116.802 42.8199 123.825 52.919 128.05C63.0183 132.275 74.1144 133.526 84.9009 131.656C95.687 129.786 105.715 124.872 113.802 117.495C114.19 117.13 114.438 116.641 114.505 116.113C114.572 115.585 114.454 115.05 114.171 114.6L108.885 106.121C108.564 105.621 108.061 105.265 107.483 105.128C106.904 104.991 106.295 105.083 105.784 105.386C105.644 105.473 105.513 105.573 105.393 105.685C97.335 113.68 86.4377 118.158 75.0861 118.138L74.9482 118.07Z" fill="white"/>
</svg>
