<svg width="150" height="150" viewBox="0 0 150 150" fill="none" xmlns="http://www.w3.org/2000/svg">
<path d="M74.8858 12.8857C62.6234 12.8857 50.6363 16.522 40.4404 23.3346C30.2446 30.1473 22.2979 39.8303 17.6053 51.1594C12.9126 62.4884 11.6848 74.9545 14.0771 86.9811C16.4694 99.008 22.3743 110.056 31.0452 118.726C39.7161 127.397 50.7634 133.302 62.7902 135.695C74.8171 138.087 87.2832 136.859 98.6126 132.166C109.941 127.474 119.624 119.527 126.437 109.331C133.249 99.1355 136.886 87.1483 136.886 74.8858C136.886 58.4424 130.353 42.6724 118.726 31.0451C107.1 19.4178 91.3294 12.8857 74.8858 12.8857ZM74.8858 121.386C65.689 121.386 56.6987 118.659 49.0518 113.55C41.4049 108.44 35.4449 101.177 31.9254 92.6809C28.4059 84.1838 27.4851 74.8342 29.2793 65.8141C31.0735 56.794 35.5022 48.5084 42.0053 42.0053C48.5085 35.5022 56.794 31.0735 65.8141 29.2793C74.8342 27.485 84.1838 28.4059 92.6809 31.9253C101.177 35.4448 108.44 41.4049 113.549 49.0518C118.659 56.6986 121.386 65.6889 121.386 74.8858C121.386 87.2185 116.487 99.0459 107.767 107.767C99.0459 116.486 87.2185 121.386 74.8858 121.386Z" fill="white"/>
<path d="M96.5758 54.512V63.2419C96.5758 64.5521 95.5919 65.7489 93.6242 66.8324C91.0986 68.1022 88.3937 68.9813 85.6042 69.4397C81.9534 70.1193 78.2461 70.4486 74.5327 70.4228C70.8194 70.449 67.112 70.1199 63.4613 69.4397C60.6701 68.9813 57.9644 68.1021 55.4367 66.8324C53.4719 65.7489 52.4881 64.5521 52.4851 63.2419V54.512C52.4851 53.202 53.469 52.0051 55.4367 50.9216C57.9644 49.6519 60.6701 48.7727 63.4613 48.3143C70.7836 46.9984 78.2819 46.9984 85.6042 48.3143C88.3937 48.7727 91.0986 49.6518 93.6242 50.9216C95.5947 52.0029 96.5785 53.1998 96.5758 54.512ZM96.5758 68.8474V78.9877C96.5758 80.2978 95.5919 81.4946 93.6242 82.5781C91.0986 83.848 88.3937 84.7271 85.6042 85.1855C78.2814 86.4957 70.7842 86.4957 63.4613 85.1855C60.6701 84.7271 57.9644 83.848 55.4367 82.5781C53.4719 81.4946 52.4881 80.2978 52.4851 78.9877V68.8485C55.4028 70.6689 58.6456 71.9066 62.0342 72.4932C66.1489 73.3091 70.3358 73.7046 74.5305 73.6734C78.7267 73.7046 82.9151 73.3091 87.0311 72.4932C90.4187 71.9067 93.6603 70.6689 96.5758 68.8485V68.8474ZM96.5758 84.5942V94.7345C96.5758 96.0444 95.5919 97.2417 93.6242 98.3253C91.0986 99.5946 88.3937 100.474 85.6042 100.932C78.2814 102.242 70.7842 102.242 63.4613 100.932C60.6701 100.474 57.9644 99.5946 55.4367 98.3253C53.4719 97.2417 52.4881 96.0444 52.4851 94.7345V84.5942C55.4028 86.4147 58.6456 87.6527 62.0342 88.2393C70.2923 89.8125 78.7733 89.8125 87.0311 88.2393C90.4187 87.6527 93.6603 86.4147 96.5758 84.5942Z" fill="white"/>
</svg>
