<svg width="80" height="80" viewBox="0 0 80 80" fill="none" xmlns="http://www.w3.org/2000/svg">
<g opacity="0.9">
<path fill-rule="evenodd" clip-rule="evenodd" d="M63.7322 22.5209C65.1244 21.2215 65.1997 19.0394 63.9002 17.6472C62.6008 16.255 60.4188 16.1797 59.0265 17.4791L40.6897 34.5935L22.3529 17.4791C20.9606 16.1797 18.7786 16.255 17.4792 17.6472C16.1797 19.0394 16.255 21.2215 17.6472 22.5209L35.6359 39.3104L17.6472 56.0998C16.255 57.3993 16.1797 59.5813 17.4792 60.9735C18.7786 62.3658 20.9606 62.441 22.3529 61.1416L40.6897 44.0272L59.0265 61.1416C60.4188 62.441 62.6008 62.3658 63.9002 60.9735C65.1997 59.5813 65.1244 57.3993 63.7322 56.0998L45.7435 39.3104L63.7322 22.5209Z" fill="white"/>
</g>
</svg>
