<svg width="150" height="150" viewBox="0 0 150 150" fill="none" xmlns="http://www.w3.org/2000/svg">
<path d="M129.911 74.9881C129.35 74.9881 128.813 74.7654 128.416 74.369C128.02 73.9726 127.798 73.4349 127.798 72.8743C127.402 62.8074 124.138 53.0634 118.388 44.7903C112.64 36.5171 104.646 30.0596 95.3489 26.1786C86.0517 22.2977 75.8391 21.155 65.9143 22.8852C55.9894 24.6154 46.766 29.1466 39.3307 35.9445C38.9746 36.2806 38.7461 36.7299 38.6845 37.2156C38.6228 37.7015 38.7316 38.1936 38.9925 38.608L43.8545 46.4083C44.1502 46.8683 44.6128 47.1957 45.1449 47.3219C45.6771 47.448 46.2374 47.363 46.7082 47.0847C46.8367 47.0051 46.9571 46.9131 47.0676 46.8099C52.4959 41.409 59.3725 37.6961 66.8662 36.1201C74.3597 34.5443 82.1494 35.1728 89.293 37.9298C96.4377 40.6867 102.63 45.4541 107.122 51.6555C111.614 57.8569 114.214 65.2268 114.606 72.8743C114.606 73.4349 114.384 73.9726 113.987 74.369C113.591 74.7654 113.054 74.9881 112.493 74.9881H108.539C107.979 74.9881 107.441 75.2108 107.044 75.6073C106.649 76.0037 106.426 76.5414 106.426 77.102C106.428 77.4906 106.538 77.8709 106.743 78.2012L119.426 98.6006C119.726 99.068 120.197 99.3991 120.74 99.5217C121.282 99.6443 121.851 99.549 122.322 99.2553C122.586 99.0884 122.81 98.8645 122.978 98.6006L135.661 78.2012C135.851 77.892 135.957 77.5391 135.971 77.1766C135.985 76.8141 135.905 76.4541 135.739 76.1314C135.574 75.8086 135.328 75.5339 135.026 75.3337C134.723 75.1334 134.374 75.0144 134.012 74.9881H129.911ZM74.9498 114.624C64.4508 114.607 54.3878 110.423 46.9717 102.991C39.5557 95.5591 35.3932 85.4872 35.3988 74.9881H41.4446C42.0053 74.9881 42.5429 74.7654 42.9394 74.369C43.3358 73.9726 43.5585 73.4349 43.5585 72.8743C43.5558 72.4857 43.4461 72.1053 43.2414 71.775L30.558 51.3759C30.2586 50.9137 29.7906 50.5867 29.2537 50.4642C28.7168 50.3419 28.1533 50.4339 27.6831 50.7206C27.4134 50.8882 27.1827 51.1116 27.0067 51.3759L14.3233 71.775C14.0385 72.2476 13.9498 72.813 14.0762 73.3502C14.2026 73.8874 14.534 74.3539 14.9998 74.6499C15.3183 74.8657 15.6931 74.9833 16.0779 74.9881H20.1577C20.7183 74.9881 21.256 75.2108 21.6524 75.6073C22.0488 76.0037 22.2715 76.5414 22.2715 77.102C22.6621 87.1664 25.9203 96.9092 31.6625 105.183C37.4047 113.458 45.3917 119.919 54.683 123.806C63.9742 127.693 74.1827 128.844 84.1063 127.123C94.0295 125.403 103.256 120.883 110.696 114.095C111.052 113.759 111.28 113.31 111.342 112.824C111.404 112.338 111.295 111.846 111.034 111.432L106.172 103.632C105.877 103.171 105.413 102.844 104.881 102.717C104.349 102.591 103.789 102.677 103.319 102.955C103.19 103.035 103.069 103.127 102.959 103.23C95.5456 110.586 85.5201 114.705 75.0766 114.687L74.9498 114.624Z" fill="white"/>
<path d="M86.8047 58.0721H63.18C60.5711 58.0721 58.4561 60.1871 58.4561 62.7961V86.4208C58.4561 89.029 60.5711 91.1444 63.18 91.1444H86.8047C89.413 91.1444 91.5284 89.029 91.5284 86.4208V62.7961C91.5284 60.1871 89.413 58.0721 86.8047 58.0721Z" fill="white"/>
</svg>
