<svg width="150" height="150" viewBox="0 0 150 150" fill="none" xmlns="http://www.w3.org/2000/svg">
<path d="M75.3571 17.8572C63.9846 17.8572 52.8676 21.2295 43.4119 27.5477C33.956 33.8658 26.5861 42.8461 22.2341 53.3528C17.8821 63.8595 16.7434 75.4208 18.962 86.5747C21.1807 97.7286 26.657 107.974 34.6985 116.016C42.74 124.057 52.9855 129.533 64.1394 131.752C75.2933 133.971 86.8546 132.832 97.3613 128.48C107.868 124.128 116.849 116.758 123.167 107.303C129.484 97.8461 132.857 86.7294 132.857 75.3571C132.857 60.1071 126.799 45.4818 116.016 34.6985C105.233 23.9152 90.6067 17.8572 75.3571 17.8572ZM75.3571 118.482C66.8278 118.482 58.4899 115.953 51.3981 111.214C44.3062 106.475 38.7789 99.7402 35.5148 91.8605C32.2508 83.9802 31.3968 75.3092 33.0608 66.9438C34.7247 58.5784 38.832 50.8943 44.8632 44.8631C50.8943 38.832 58.5784 34.7248 66.9438 33.0608C75.3092 31.3968 83.9802 32.2508 91.8604 35.5149C99.7402 38.7789 106.475 44.3063 111.214 51.3981C115.953 58.49 118.482 66.8277 118.482 75.3571C118.482 86.7944 113.939 97.7638 105.851 105.851C97.7638 113.939 86.7945 118.482 75.3571 118.482Z" fill="white"/>
<path d="M95.4727 56.462V64.5581C95.4727 65.7732 94.5604 66.8831 92.7357 67.8881C90.3929 69.0657 87.8844 69.8809 85.2972 70.3061C81.9115 70.9364 78.4733 71.2418 75.0294 71.2179C71.5855 71.2422 68.1473 70.9369 64.7616 70.3061C62.1729 69.8809 59.6637 69.0657 57.3195 67.8881C55.4972 66.8831 54.5848 65.7732 54.582 64.5581V56.462C54.582 55.247 55.4945 54.137 57.3195 53.1322C59.6637 51.9545 62.1729 51.1392 64.7616 50.714C71.5524 49.4938 78.5064 49.4938 85.2972 50.714C87.8844 51.1392 90.3929 51.9545 92.7357 53.1322C94.5622 54.135 95.4745 55.2449 95.4727 56.462ZM95.4727 69.7568V79.1611C95.4727 80.3761 94.5604 81.4861 92.7357 82.4909C90.3929 83.6686 87.8844 84.4839 85.2972 84.909C78.5059 86.1241 71.5529 86.1241 64.7616 84.909C62.1729 84.4839 59.6637 83.6685 57.3195 82.4909C55.4972 81.4861 54.5848 80.3761 54.582 79.1611V69.7578C57.288 71.4461 60.2954 72.594 63.4381 73.1379C67.2541 73.8947 71.1371 74.2614 75.0274 74.2326C78.919 74.2614 82.8034 73.8946 86.6208 73.1379C89.7618 72.594 92.7681 71.4461 95.4727 69.7578V69.7568ZM95.4727 84.3607V93.7654C95.4727 94.9803 94.5604 96.0897 92.7357 97.0946C90.3929 98.2725 87.8844 99.0877 85.2972 99.5133C78.5059 100.728 71.5529 100.728 64.7616 99.5133C62.1729 99.0877 59.6637 98.2725 57.3195 97.0946C55.4972 96.0897 54.5848 94.9803 54.582 93.7654V84.3607C57.288 86.049 60.2954 87.1968 63.4381 87.7409C71.0968 89.2001 78.9621 89.2001 86.6208 87.7409C89.7618 87.1969 92.7681 86.049 95.4727 84.3607Z" fill="white"/>
</svg>
