<svg xmlns="http://www.w3.org/2000/svg" xmlns:xlink="http://www.w3.org/1999/xlink" width="284" height="284" viewBox="0 0 284 284"><defs><style>.a{clip-path:url(#b);}.b{fill:groupColor-01;}.c{fill:#fff;}</style><clipPath id="b"><rect width="284" height="284"/></clipPath></defs><g id="a" class="a"><g transform="translate(25 25)"><circle class="b" cx="117" cy="117" r="117" transform="translate(0 0)"/><path class="c" d="M1404.391,917.206l23.677-37.9a4.686,4.686,0,0,0-3.973-7.17h-12.534c.033-60.2-59.576-106.5-123-83.021a83.509,83.509,0,0,0-49.121,49.067c-23.552,63.4,22.687,123.065,82.883,123.1a89.194,89.194,0,0,0,59.462-22.67,4.638,4.638,0,0,0,.779-5.908l-6.955-11.141a4.7,4.7,0,0,0-7.242-.861c-30.825,29.2-83.634,23.819-106.342-19.265a62.341,62.341,0,0,1-3.054-51.237c18.219-47.551,74.017-58.091,107.844-28.071a66.84,66.84,0,0,1,22.473,50.008h-12.545a4.687,4.687,0,0,0-3.975,7.17l23.676,37.9A4.687,4.687,0,0,0,1404.391,917.206Z" transform="translate(-1204.509 -754.814)"/></g></g></svg>