<svg width="100" height="100" viewBox="0 0 100 100" fill="none" xmlns="http://www.w3.org/2000/svg">
<path fill-rule="evenodd" clip-rule="evenodd" d="M51.9925 29.75C51.9925 27.4068 50.093 25.5074 47.7498 25.5074C45.4067 25.5074 43.5072 27.4068 43.5072 29.75L43.5072 45.7574H27.5001C25.1569 45.7574 23.2574 47.6569 23.2574 50C23.2574 52.3432 25.1569 54.2427 27.5001 54.2427H43.5072L43.5072 70.25C43.5072 72.5931 45.4067 74.4926 47.7498 74.4926C50.093 74.4926 51.9925 72.5931 51.9925 70.25V54.2427H68.0001C70.3432 54.2427 72.2427 52.3432 72.2427 50C72.2427 47.6569 70.3432 45.7574 68.0001 45.7574H51.9925V29.75Z" fill="white"/>
</svg>
