<svg width="150" height="150" viewBox="0 0 150 150" fill="none" xmlns="http://www.w3.org/2000/svg">
<path d="M74.9999 17.5C63.6275 17.5 52.5105 20.8723 43.0547 27.1905C33.5989 33.5087 26.229 42.4889 21.8769 52.9956C17.525 63.5024 16.3862 75.0637 18.6049 86.2176C20.8235 97.3715 26.2999 107.617 34.3414 115.659C42.3829 123.7 52.6284 129.176 63.7823 131.395C74.9362 133.614 86.4975 132.475 97.0042 128.122C107.511 123.771 116.492 116.401 122.809 106.945C129.127 97.489 132.5 86.3724 132.5 75C132.5 59.75 126.442 45.1247 115.659 34.3413C104.876 23.558 90.2496 17.5 74.9999 17.5ZM74.9999 118.125C66.4706 118.125 58.1329 115.596 51.041 110.857C43.9492 106.118 38.4217 99.3831 35.1577 91.5034C31.8937 83.6231 31.0397 74.9521 32.7036 66.5867C34.3677 58.2213 38.4749 50.5372 44.506 44.506C50.5371 38.4748 58.2213 34.3676 66.5867 32.7037C74.9521 31.0396 83.6231 31.8937 91.5033 35.1577C99.3831 38.4217 106.118 43.9491 110.857 51.041C115.596 58.1328 118.125 66.4706 118.125 75C118.128 80.664 117.014 86.2732 114.848 91.5071C112.682 96.7405 109.506 101.496 105.501 105.5C101.496 109.506 96.7405 112.682 91.507 114.848C86.2733 117.014 80.6641 118.128 74.9999 118.125Z" fill="white"/>
<path d="M61.2002 49.562L57.8192 75.322C57.7257 76.0171 57.7706 76.7239 57.9516 77.4015C58.1325 78.0792 58.4459 78.7143 58.8736 79.2702C59.3011 79.8262 59.8347 80.2919 60.4432 80.6406C61.0518 80.9894 61.7234 81.2141 62.4193 81.3019C63.0117 81.4168 63.6207 81.4168 64.2132 81.3019L72.7002 79.416L68.3302 98.6901C68.0211 100.069 68.2712 101.513 69.0258 102.708C69.7803 103.901 70.9776 104.748 72.3552 105.061C72.7447 105.109 73.1387 105.109 73.5282 105.061C74.4618 105.06 75.3785 104.812 76.186 104.344C76.9935 103.875 77.6634 103.203 78.1282 102.393L96.2292 70.906C96.579 70.3007 96.8066 69.6322 96.8973 68.939C96.9889 68.2458 96.9417 67.5414 96.7603 66.8662C96.579 66.1909 96.2653 65.5582 95.8388 65.0042C95.4122 64.4503 94.8811 63.986 94.2741 63.638C93.2387 63.0387 92.0293 62.8115 90.8468 62.994L80.6122 64.512L84.8212 51.6781C85.2155 50.3542 85.0812 48.929 84.4464 47.7023C83.8115 46.4755 82.7257 45.5427 81.4172 45.1C80.8698 44.9135 80.2932 44.8278 79.7152 44.847H66.3062C65.0323 44.8934 63.8169 45.3944 62.8803 46.2592C61.9438 47.1242 61.3478 48.2958 61.2002 49.562Z" fill="white"/>
</svg>
