<svg width="150" height="150" viewBox="0 0 150 150" fill="none" xmlns="http://www.w3.org/2000/svg">
<path d="M75.0011 13C62.7404 13 50.749 16.6313 40.5632 23.4451C30.3775 30.2589 22.4165 39.9458 17.7277 51.2688C13.0388 62.6018 11.8118 75.0621 14.1961 87.0934C16.5904 99.1147 22.4963 110.168 31.1656 118.838C39.835 127.507 50.8786 133.413 62.91 135.807C74.9313 138.202 87.4016 136.974 98.7245 132.276C110.057 127.587 119.734 119.636 126.548 109.44C133.362 99.2444 136.993 87.263 136.993 74.9922C136.993 58.5514 130.459 42.779 118.837 31.1567C107.214 19.5344 91.4419 13 75.0011 13ZM75.0011 121.491C65.8031 121.491 56.8145 118.768 49.1727 113.66C41.5309 108.552 35.5651 101.29 32.0435 92.7898C28.5219 84.2901 27.6041 74.9424 29.3998 65.9239C31.1956 56.9054 35.625 48.6151 42.1295 42.1206C48.634 35.6161 56.9143 31.1867 65.9328 29.3909C74.9513 27.5952 84.299 28.513 92.7986 32.0346C101.298 35.5562 108.551 41.512 113.669 49.1638C118.777 56.8056 121.5 65.8041 121.5 74.9922C121.5 81.0977 120.303 87.1433 117.969 92.7898C115.634 98.4364 112.212 103.564 107.893 107.874C103.573 112.194 98.4452 115.615 92.8086 117.95C87.1622 120.284 81.1166 121.481 75.0111 121.481L75.0011 121.491Z" fill="white"/>
<path d="M69.5739 71.4806L51.926 51.3187C49.1925 48.1961 44.5137 50.4108 44.5137 54.8203V95.1542C44.5137 99.5736 49.1925 101.788 51.926 98.6558L69.5739 78.4939C71.2699 76.5585 71.2699 73.416 69.5739 71.4806Z" fill="white"/>
<path d="M69.7938 100.651C68.7263 100.651 67.6589 100.292 66.7909 99.5437C64.8755 97.9076 64.666 95.0444 66.322 93.149L77.3657 80.2098C79.9396 77.197 79.9097 72.7576 77.3059 69.7747C72.7268 64.5372 66.322 57.2346 66.322 57.2346C64.5762 55.2393 64.9054 52.1666 67.1102 50.5904C69.0755 49.1837 71.8289 49.6726 73.4251 51.4883L88.8584 69.1262C91.8313 72.5281 91.8313 77.8554 88.8584 81.2573L73.2555 99.0848C72.3477 100.122 71.0707 100.651 69.7838 100.651H69.7938Z" fill="white" fill-opacity="0.3"/>
<path d="M90.0552 100.651C88.9878 100.651 87.9203 100.292 87.0523 99.5437C85.1368 97.9076 84.9273 95.0445 86.5834 93.149L97.0685 80.8682C99.9616 77.4763 99.9317 72.4782 96.9987 69.1262C92.4794 63.9586 86.5834 57.2346 86.5834 57.2346C84.8276 55.2294 85.1668 52.1467 87.4014 50.5705C89.3569 49.1937 92.0804 49.6626 93.6566 51.4683L109.12 69.1362C112.093 72.5381 112.093 77.8654 109.12 81.2673L93.517 99.0948C92.6091 100.132 91.3322 100.661 90.0452 100.661L90.0552 100.651Z" fill="white" fill-opacity="0.3"/>
</svg>
