<svg width="80" height="80" viewBox="0 0 80 80" fill="none" xmlns="http://www.w3.org/2000/svg">
<path d="M29.3936 69.8216H22.3544C20.8308 69.8216 19.5957 68.5866 19.5957 67.063V51.6528C19.5957 50.1292 18.3607 48.8942 16.8371 48.8942H9.92241C7.56158 48.8942 6.29153 46.1216 7.83345 44.3338L37.9111 9.46122C39.0115 8.18537 40.9886 8.18537 42.089 9.46122L72.1666 44.3338C73.7085 46.1216 72.4385 48.8942 70.0776 48.8942H63.1629C61.6394 48.8942 60.4043 50.1292 60.4043 51.6528V67.063C60.4043 68.5866 59.1692 69.8216 57.6457 69.8216H50.6064C49.0829 69.8216 47.8478 68.5866 47.8478 67.063V51.6528C47.8478 50.1292 46.6127 48.8942 45.0892 48.8942H34.9108C33.3873 48.8942 32.1522 50.1292 32.1522 51.6528V67.063C32.1522 68.5866 30.9172 69.8216 29.3936 69.8216Z" stroke="white" stroke-width="6.06897"/>
</svg>
