<svg width="150" height="150" viewBox="0 0 150 150" fill="none" xmlns="http://www.w3.org/2000/svg">
<path d="M74.8286 21.8286C64.3462 21.8286 54.0991 24.937 45.3834 30.7607C36.6676 36.5844 29.8745 44.8618 25.863 54.5464C21.8516 64.2308 20.802 74.8873 22.847 85.1683C24.8921 95.4495 29.9398 104.893 37.352 112.305C44.7642 119.717 54.2079 124.765 64.4888 126.81C74.7698 128.855 85.4262 127.806 95.1112 123.795C104.795 119.782 113.072 112.99 118.896 104.274C124.72 95.5579 127.828 85.3109 127.828 74.8285C127.828 60.7721 122.245 47.2913 112.305 37.3519C102.366 27.4125 88.8852 21.8286 74.8286 21.8286ZM74.8286 114.579C66.9668 114.579 59.2815 112.247 52.7447 107.879C46.2078 103.512 41.113 97.3035 38.1044 90.0402C35.0959 82.7768 34.3086 74.7844 35.8424 67.0737C37.3762 59.363 41.162 52.2802 46.7212 46.7211C52.2803 41.1619 59.363 37.3761 67.0737 35.8423C74.7844 34.3085 82.7769 35.0958 90.0403 38.1044C97.3036 41.1129 103.512 46.2078 107.879 52.7446C112.247 59.2815 114.579 66.9667 114.579 74.8285C114.579 85.3708 110.391 95.481 102.936 102.936C95.4811 110.39 85.3709 114.579 74.8286 114.579Z" fill="white"/>
<path d="M93.3701 57.4122V64.8748C93.3701 65.9947 92.5293 67.0178 90.8467 67.944C88.6876 69.0296 86.3757 69.781 83.9908 70.1729C80.87 70.7539 77.7009 71.0353 74.5265 71.0133C71.3522 71.0358 68.183 70.7543 65.0622 70.1729C62.6761 69.781 60.3633 69.0295 58.2025 67.944C56.5229 67.0178 55.6819 65.9947 55.6794 64.8748V57.4122C55.6794 56.2923 56.5204 55.2692 58.2025 54.3429C60.3633 53.2575 62.6761 52.506 65.0622 52.1142C71.3217 50.9893 77.7315 50.9893 83.9908 52.1142C86.3757 52.506 88.6876 53.2575 90.8467 54.3429C92.5311 55.2673 93.3719 56.2904 93.3701 57.4122ZM93.3701 69.6665V78.3349C93.3701 79.4548 92.5293 80.4779 90.8467 81.4041C88.6876 82.4897 86.3757 83.2411 83.9908 83.633C77.731 84.753 71.322 84.753 65.0622 83.633C62.6761 83.2411 60.3633 82.4896 58.2025 81.4041C56.5229 80.4779 55.6819 79.4548 55.6794 78.3349V69.6675C58.1735 71.2237 60.9456 72.2817 63.8424 72.7831C67.3597 73.4806 70.9389 73.8186 74.5247 73.792C78.1116 73.8186 81.6921 73.4806 85.2108 72.7831C88.1064 72.2817 90.8773 71.2228 93.3701 69.6665ZM93.3701 83.1276V91.7959C93.3701 92.9157 92.5293 93.9392 90.8467 94.8653C88.6876 95.9509 86.3757 96.7018 83.9908 97.0939C77.731 98.2138 71.322 98.2138 65.0622 97.0939C62.6761 96.7018 60.3633 95.9509 58.2025 94.8653C56.5229 93.9392 55.6819 92.9157 55.6794 91.7959V83.1276C58.1735 84.6837 60.9456 85.7418 63.8424 86.2432C70.9016 87.5881 78.1514 87.5881 85.2108 86.2432C88.1064 85.7418 90.8773 84.6838 93.3701 83.1276Z" fill="white"/>
</svg>
