<svg width="100" height="100" viewBox="0 0 100 100" fill="none" xmlns="http://www.w3.org/2000/svg">
<path fill-rule="evenodd" clip-rule="evenodd" d="M52.657 23C52.657 19.8758 50.1243 17.3431 47.0001 17.3431C43.8759 17.3431 41.3433 19.8758 41.3433 23V44.3431H20.0002C16.876 44.3431 14.3434 46.8758 14.3434 50C14.3434 53.1242 16.876 55.6569 20.0002 55.6569H41.3433V77C41.3433 80.1242 43.8759 82.6568 47.0001 82.6568C50.1243 82.6568 52.657 80.1242 52.657 77V55.6569H74.0002C77.1244 55.6569 79.6571 53.1242 79.6571 50C79.6571 46.8758 77.1244 44.3431 74.0002 44.3431H52.657V23Z" fill="white"/>
</svg>
