<svg width="150" height="150" viewBox="0 0 150 150" fill="none" xmlns="http://www.w3.org/2000/svg">
<path opacity="0.3" d="M74.9999 17.5C63.6275 17.5 52.5105 20.8723 43.0547 27.1905C33.5989 33.5087 26.229 42.4889 21.8769 52.9956C17.525 63.5024 16.3862 75.0637 18.6049 86.2176C20.8235 97.3715 26.2999 107.617 34.3414 115.659C42.3829 123.7 52.6284 129.176 63.7823 131.395C74.9362 133.614 86.4975 132.475 97.0042 128.122C107.511 123.771 116.492 116.401 122.809 106.945C129.127 97.489 132.5 86.3724 132.5 75C132.5 59.75 126.442 45.1247 115.659 34.3413C104.876 23.558 90.2496 17.5 74.9999 17.5ZM74.9999 118.125C66.4706 118.125 58.1329 115.596 51.041 110.857C43.9492 106.118 38.4217 99.3831 35.1577 91.5034C31.8937 83.6231 31.0397 74.9521 32.7036 66.5867C34.3677 58.2213 38.4749 50.5372 44.506 44.506C50.5371 38.4748 58.2213 34.3676 66.5867 32.7037C74.9521 31.0396 83.6231 31.8937 91.5033 35.1577C99.3831 38.4217 106.118 43.9491 110.857 51.041C115.596 58.1328 118.125 66.4706 118.125 75C118.128 80.664 117.014 86.2732 114.848 91.5071C112.682 96.7405 109.506 101.496 105.501 105.5C101.496 109.506 96.7405 112.682 91.507 114.848C86.2733 117.014 80.6641 118.128 74.9999 118.125Z" fill="white"/>
<path opacity="0.3" d="M61.2 49.562L57.819 75.322C57.7254 76.0171 57.7704 76.7239 57.9514 77.4015C58.1323 78.0792 58.4457 78.7143 58.8733 79.2702C59.3009 79.8262 59.8344 80.2919 60.443 80.6406C61.0515 80.9894 61.7231 81.2141 62.419 81.3019C63.0115 81.4168 63.6205 81.4168 64.213 81.3019L72.7 79.416L68.3299 98.6901C68.0209 100.069 68.271 101.513 69.0256 102.708C69.78 103.901 70.9774 104.748 72.3549 105.061C72.7445 105.109 73.1385 105.109 73.528 105.061C74.4615 105.06 75.3782 104.812 76.1858 104.344C76.9933 103.875 77.6632 103.203 78.128 102.393L96.229 70.906C96.5787 70.3007 96.8064 69.6322 96.897 68.939C96.9886 68.2458 96.9414 67.5414 96.7601 66.8662C96.5787 66.1909 96.2651 65.5582 95.8385 65.0042C95.412 64.4503 94.8808 63.986 94.2738 63.638C93.2385 63.0387 92.0291 62.8115 90.8466 62.994L80.612 64.512L84.8209 51.6781C85.2153 50.3542 85.0809 48.929 84.4461 47.7023C83.8113 46.4755 82.7254 45.5427 81.417 45.1C80.8696 44.9135 80.293 44.8278 79.7149 44.847H66.306C65.032 44.8934 63.8167 45.3944 62.8801 46.2592C61.9435 47.1242 61.3475 48.2958 61.2 49.562Z" fill="white"/>
</svg>
