<svg width="80" height="80" viewBox="0 0 80 80" fill="none" xmlns="http://www.w3.org/2000/svg">
<g opacity="0.9">
<path fill-rule="evenodd" clip-rule="evenodd" d="M63.3577 13.5345C63.6446 13.7465 63.8801 14.0126 64.0542 14.3131C64.1916 14.5499 64.2923 14.8106 64.3484 15.0875C64.3825 15.2547 64.4002 15.4265 64.4002 15.6005V28.4424C64.4002 28.4591 64.4 28.4758 64.3997 28.4925V51.487C64.4 51.5105 64.4001 51.5341 64.4001 51.5577C64.4001 55.8131 59.8005 59.2628 54.1266 59.2628C48.4527 59.2628 43.8531 55.8131 43.8531 51.5577C43.8531 47.3023 48.4527 43.8526 54.1266 43.8526C55.9977 43.8526 57.7519 44.2277 59.2629 44.8832V31.92L31.0113 40.6128V61.8312C31.0113 61.8476 31.0112 61.8639 31.0109 61.8803C30.9757 66.1131 26.3896 69.5363 20.7376 69.5363C15.0637 69.5363 10.4641 66.0866 10.4641 61.8312C10.4641 57.5758 15.0637 54.1261 20.7376 54.1261C22.6089 54.1261 24.3634 54.5013 25.8746 55.157V38.7158V25.874C25.8746 25.0175 26.2939 24.2589 26.9384 23.7922C27.1787 23.6183 27.4503 23.4849 27.7431 23.4021L61.0132 13.1652C61.2525 13.0848 61.5075 13.0388 61.7723 13.0328C61.8232 13.0316 61.874 13.032 61.9246 13.0338C62.4142 13.0513 62.8689 13.2058 63.2514 13.4601C63.2874 13.484 63.3228 13.5088 63.3577 13.5345ZM59.2629 26.5456V19.0781L31.0113 27.7709V35.2384L59.2629 26.5456Z" fill="white"/>
</g>
</svg>
