<svg xmlns="http://www.w3.org/2000/svg" xmlns:xlink="http://www.w3.org/1999/xlink" width="284" height="284" viewBox="0 0 284 284"><defs><style>.a{clip-path:url(#b);}.b{fill:groupColor-01;}.c{fill:#fff;}</style><clipPath id="b"><rect width="284" height="284"/></clipPath></defs><g id="a" class="a"><g transform="translate(20 20)"><circle class="b" cx="122" cy="122" r="122" transform="translate(0 0)"/><path class="c" d="M1411.708,922.946l24.688-39.518a4.886,4.886,0,0,0-4.143-7.476h-13.069c.034-62.772-62.122-111.052-128.261-86.569a87.078,87.078,0,0,0-51.221,51.164c-24.558,66.112,23.656,128.324,86.425,128.359a93.006,93.006,0,0,0,62-23.639,4.836,4.836,0,0,0,.813-6.161l-7.252-11.617a4.9,4.9,0,0,0-7.552-.9c-32.142,30.451-87.208,24.837-110.886-20.089a65.006,65.006,0,0,1-3.184-53.426c19-49.583,77.18-60.573,112.453-29.27a69.7,69.7,0,0,1,23.433,52.145h-13.081a4.887,4.887,0,0,0-4.145,7.476l24.688,39.518A4.887,4.887,0,0,0,1411.708,922.946Z" transform="translate(-1203.284 -753.614)"/></g></g></svg>