<svg width="80" height="80" viewBox="0 0 80 80" fill="none" xmlns="http://www.w3.org/2000/svg">
<g opacity="0.9">
<path fill-rule="evenodd" clip-rule="evenodd" d="M63.5185 11.0354C64.2029 11.0525 64.8254 11.3188 65.2986 11.7471C65.3753 11.8164 65.4477 11.8897 65.5156 11.9665C65.9458 12.453 66.2069 13.0926 66.2069 13.7931V27.5862V52.4138C66.2069 56.9844 61.2666 60.6897 55.1724 60.6897C49.0783 60.6897 44.1379 56.9844 44.1379 52.4138C44.1379 47.8432 49.0783 44.1379 55.1724 44.1379C57.1823 44.1379 59.0666 44.5409 60.6897 45.2451V31.3213L30.3448 40.6582V63.4483L30.3448 63.4528C30.3416 68.0213 25.4025 71.7241 19.3104 71.7241C13.2162 71.7241 8.27588 68.0189 8.27588 63.4483C8.27588 58.8776 13.2162 55.1724 19.3104 55.1724C21.3202 55.1724 23.2046 55.5754 24.8276 56.2796V38.6207V24.8276C24.8276 23.9088 25.2768 23.0948 25.9676 22.5935C26.2264 22.4057 26.519 22.2618 26.8346 22.1726L62.5756 11.1754C62.8229 11.093 63.0858 11.0446 63.3587 11.0359C63.412 11.0342 63.4653 11.034 63.5185 11.0354Z" fill="white"/>
</g>
</svg>
