<svg width="80" height="80" viewBox="0 0 80 80" fill="none" xmlns="http://www.w3.org/2000/svg">
<g opacity="0.9">
<path fill-rule="evenodd" clip-rule="evenodd" d="M35.8139 16.5373C41.3612 11.7825 49.931 15.724 49.931 23.0302V56.9699C49.931 64.2761 41.3612 68.2176 35.8139 63.4628L27.161 56.046C26.711 55.6603 26.1379 55.4483 25.5452 55.4483H16.5517C11.8287 55.4483 8 51.6196 8 46.8966V33.1035C8 28.3805 11.8287 24.5518 16.5517 24.5518H25.5452C26.1379 24.5518 26.711 24.3398 27.161 23.9541L35.8139 16.5373ZM66.5822 21.0616C65.5212 19.9955 63.7969 19.9913 62.7307 21.0523C61.6646 22.1133 61.6605 23.8376 62.7215 24.9037C66.7431 28.9448 69.0009 34.4141 69.0009 40.1153C69.0009 45.8165 66.7431 51.2858 62.7215 55.3268C61.6605 56.393 61.6646 58.1173 62.7307 59.1783C63.7969 60.2393 65.5212 60.2351 66.5822 59.169C71.6197 54.1072 74.4477 47.2566 74.4477 40.1153C74.4477 32.974 71.6197 26.1233 66.5822 21.0616ZM59.0992 28.5079C58.0349 27.4451 56.3105 27.4462 55.2477 28.5105C54.1849 29.5747 54.186 31.2991 55.2503 32.3619C56.2726 33.3829 57.0836 34.5954 57.637 35.93C58.1904 37.2647 58.4752 38.6953 58.4752 40.1401C58.4752 41.5849 58.1904 43.0156 57.637 44.3502C57.0836 45.6849 56.2726 46.8973 55.2503 47.9183C54.186 48.9811 54.1849 50.7055 55.2477 51.7697C56.3105 52.834 58.0349 52.8352 59.0992 51.7723C60.6281 50.2455 61.8409 48.4323 62.6685 46.4363C63.496 44.4403 63.922 42.3008 63.922 40.1401C63.922 37.9794 63.496 35.8399 62.6685 33.8439C61.8409 31.848 60.6281 30.0347 59.0992 28.5079Z" fill="white"/>
</g>
</svg>
