<svg width="80" height="80" viewBox="0 0 80 80" fill="none" xmlns="http://www.w3.org/2000/svg">
<g opacity="0.9">
<path fill-rule="evenodd" clip-rule="evenodd" d="M36.1025 18.1553C41.2672 13.7285 49.246 17.3982 49.246 24.2005V55.7995C49.246 62.6018 41.2672 66.2715 36.1025 61.8446L28.0463 54.9393C27.6274 54.5802 27.0938 54.3829 26.542 54.3829H18.1687C13.7715 54.3829 10.2068 50.8182 10.2068 46.4209V33.5791C10.2068 29.1818 13.7715 25.6171 18.1687 25.6171H26.542C27.0938 25.6171 27.6274 25.4197 28.0463 25.0606L36.1025 18.1553ZM64.7486 22.3676C63.7608 21.375 62.1554 21.3711 61.1628 22.359C60.1702 23.3468 60.1663 24.9522 61.1542 25.9448C64.8985 29.7072 67.0005 34.7992 67.0005 40.1073C67.0005 45.4153 64.8985 50.5074 61.1542 54.2698C60.1663 55.2623 60.1702 56.8678 61.1628 57.8556C62.1554 58.8434 63.7608 58.8395 64.7486 57.847C69.4387 53.1343 72.0716 46.7561 72.0716 40.1073C72.0716 33.4585 69.4387 27.0803 64.7486 22.3676ZM57.7819 29.3004C56.791 28.3109 55.1856 28.3119 54.1961 29.3028C53.2065 30.2937 53.2076 31.8991 54.1985 32.8886C55.1503 33.8392 55.9054 34.968 56.4206 36.2106C56.9358 37.4532 57.2009 38.7852 57.2009 40.1304C57.2009 41.4756 56.9358 42.8075 56.4206 44.0501C55.9054 45.2927 55.1503 46.4216 54.1985 47.3721C53.2076 48.3617 53.2065 49.9671 54.1961 50.958C55.1856 51.9488 56.791 51.9499 57.7819 50.9604C59.2053 49.5389 60.3346 47.8507 61.1051 45.9924C61.8755 44.1341 62.2721 42.1421 62.2721 40.1304C62.2721 38.1187 61.8755 36.1267 61.1051 34.2684C60.3346 32.4101 59.2053 30.7219 57.7819 29.3004Z" fill="white"/>
</g>
</svg>
