<svg width="80" height="80" viewBox="0 0 80 80" fill="none" xmlns="http://www.w3.org/2000/svg">
<g opacity="0.9">
<path fill-rule="evenodd" clip-rule="evenodd" d="M65.2986 11.7471C64.8254 11.3188 64.2029 11.0525 63.5185 11.0354C63.4653 11.034 63.412 11.0342 63.3587 11.0359C63.0858 11.0446 62.8229 11.093 62.5756 11.1754L26.8346 22.1726C26.519 22.2618 26.2264 22.4057 25.9676 22.5935C25.2768 23.0948 24.8276 23.9088 24.8276 24.8276V38.6207V56.2796C23.2046 55.5754 21.3202 55.1724 19.3104 55.1724C13.2162 55.1724 8.27588 58.8776 8.27588 63.4483C8.27588 68.0189 13.2162 71.7241 19.3104 71.7241C25.4025 71.7241 30.3416 68.0213 30.3448 63.4528L30.3448 63.4483V40.6582L60.6897 31.3213V45.2451C59.0666 44.5409 57.1823 44.1379 55.1724 44.1379C49.0783 44.1379 44.1379 47.8432 44.1379 52.4138C44.1379 56.9844 49.0783 60.6897 55.1724 60.6897C61.2666 60.6897 66.2069 56.9844 66.2069 52.4138V27.5862V13.7931C66.2069 13.0926 65.9458 12.453 65.5156 11.9665C65.4477 11.8897 65.3753 11.8164 65.2986 11.7471ZM30.3448 26.8651L60.6897 17.5282V25.5488L30.3448 34.8857V26.8651Z" fill="white"/>
</g>
</svg>
