<svg width="80" height="80" viewBox="0 0 80 80" fill="none" xmlns="http://www.w3.org/2000/svg">
<g opacity="0.9">
<path d="M30.8205 64.3995H26.0642C24.5407 64.3995 23.3056 63.1644 23.3056 61.6409V50.0357C23.3056 48.5121 22.0705 47.2771 20.547 47.2771H16.486C14.1252 47.2771 12.8551 44.5044 14.397 42.7167L37.9111 15.4541C39.0115 14.1782 40.9885 14.1782 42.089 15.4541L65.603 42.7167C67.1449 44.5044 65.8749 47.2771 63.514 47.2771H59.453C57.9295 47.2771 56.6944 48.5121 56.6944 50.0357V61.6409C56.6944 63.1644 55.4594 64.3995 53.9358 64.3995H49.1796C47.656 64.3995 46.4209 63.1644 46.4209 61.6409V50.0357C46.4209 48.5121 45.1859 47.2771 43.6623 47.2771H36.3377C34.8142 47.2771 33.5791 48.5121 33.5791 50.0357V61.6409C33.5791 63.1644 32.344 64.3995 30.8205 64.3995Z" stroke="white" stroke-width="6.06897"/>
</g>
</svg>
