<svg width="80" height="80" viewBox="0 0 80 80" fill="none" xmlns="http://www.w3.org/2000/svg">
<path d="M37.371 72C35.9488 72 34.6155 71.6952 33.371 71.0857C32.1266 70.4762 31.0726 69.6127 30.2091 68.4952L13.5996 47.3905L15.0472 45.8667C16.0631 44.8 17.2822 44.1651 18.7044 43.9619C20.1266 43.7587 21.4472 44.0381 22.6663 44.8L28.3044 48.2286V23.2381C28.3044 22.3746 28.5964 21.6508 29.1806 21.0667C29.7647 20.4825 30.4885 20.1905 31.352 20.1905C32.2155 20.1905 32.952 20.4825 33.5615 21.0667C34.171 21.6508 34.4758 22.3746 34.4758 23.2381V38.4762H57.2568C59.7964 38.4762 61.9552 39.3651 63.733 41.1429C65.5107 42.9206 66.3996 45.0794 66.3996 47.619V59.8095C66.3996 63.1619 65.206 66.0317 62.8187 68.419C60.4314 70.8064 57.5615 72 54.2091 72H37.371ZM18.171 30.8571C17.5107 29.7397 17.0028 28.5333 16.6472 27.2381C16.2917 25.9429 16.1139 24.6095 16.1139 23.2381C16.1139 19.0222 17.5996 15.4286 20.571 12.4571C23.5425 9.48571 27.1361 8 31.352 8C35.5679 8 39.1615 9.48571 42.133 12.4571C45.1044 15.4286 46.5901 19.0222 46.5901 23.2381C46.5901 24.6095 46.4123 25.9429 46.0568 27.2381C45.7012 28.5333 45.1933 29.7397 44.533 30.8571L39.2758 27.8095C39.6822 27.0984 39.9869 26.3746 40.1901 25.6381C40.3933 24.9016 40.4949 24.1016 40.4949 23.2381C40.4949 20.6984 39.606 18.5397 37.8282 16.7619C36.0504 14.9841 33.8917 14.0952 31.352 14.0952C28.8123 14.0952 26.6536 14.9841 24.8758 16.7619C23.098 18.5397 22.2091 20.6984 22.2091 23.2381C22.2091 24.1016 22.3107 24.9016 22.5139 25.6381C22.7171 26.3746 23.0218 27.0984 23.4282 27.8095L18.171 30.8571Z" fill="white"/>
</svg>
