<svg xmlns="http://www.w3.org/2000/svg" width="80" height="80">

<defs>
<style>.white_90{fill:#fff;opacity:0.9;}.white_42{fill:#fff;opacity:0.42;}.grey{fill:#ccc;}</style>

<filter id="dropshadow" x="-10" y="-10" width="90" height="90" filterUnits="userSpaceOnUse">
      <feOffset dy="5" input="SourceAlpha"/>
      <feGaussianBlur stdDeviation="5" result="blur"/>
      <feFlood flood-opacity="0.4"/>
      <feComposite operator="in" in2="blur"/>
      <feComposite in="SourceGraphic"/>
</filter>
    
</defs>

<path class="white_90" filter="url(#dropshadow)" d="M18.6,32.2L5.9,18.5L18.7,4.2c0.9-1,0.8-2.6-0.2-3.5c-1-0.9-2.6-0.8-3.5,0.2l-14.3,16c0,0-0.1,0.1-0.1,0.1
	c-0.1,0.1-0.1,0.1-0.2,0.2c0,0.1-0.1,0.1-0.1,0.2c0,0.1-0.1,0.1-0.1,0.2c0,0.1-0.1,0.2-0.1,0.2c0,0.1,0,0.2-0.1,0.2
	c0,0.1,0,0.2,0,0.2c0,0.1,0,0.2,0,0.2c0,0.1,0,0.2,0,0.2c0,0.1,0,0.2,0,0.2c0,0.1,0,0.2,0.1,0.2c0,0.1,0,0.2,0.1,0.2
	c0,0.1,0.1,0.1,0.1,0.2c0,0.1,0.1,0.1,0.1,0.2c0,0.1,0.1,0.1,0.2,0.2c0,0,0.1,0.1,0.1,0.1L15,35.6c0.9,1,2.5,1.1,3.5,0.1
	C19.5,34.8,19.6,33.2,18.6,32.2z" transform="translate(27 20)" />


</svg>