<svg width="80" height="80" viewBox="0 0 80 80" fill="none" xmlns="http://www.w3.org/2000/svg">
<g opacity="0.9">
<path fill-rule="evenodd" clip-rule="evenodd" d="M32.6727 59.0415C33.9689 60.2513 36.0005 60.1813 37.2103 58.885C38.4201 57.5888 38.3501 55.5573 37.0538 54.3474L23.7456 41.9264L65.6836 41.9264C67.4567 41.9264 68.894 40.489 68.894 38.716C68.894 36.9429 67.4567 35.5055 65.6836 35.5055L23.7454 35.5055L37.0538 23.0843C38.3501 21.8745 38.4201 19.8429 37.2103 18.5467C36.0005 17.2505 33.9689 17.1804 32.6727 18.3903L13.4099 36.3688C12.7594 36.976 12.39 37.826 12.39 38.7159C12.39 39.6058 12.7594 40.4557 13.4099 41.0629L32.6727 59.0415Z" fill="white"/>
</g>
</svg>
