<svg width="80" height="80" viewBox="0 0 80 80" fill="none" xmlns="http://www.w3.org/2000/svg">
<g opacity="0.9">
<path d="M30.3448 66.2069H24.8276C23.3041 66.2069 22.069 64.9718 22.069 63.4483V50.5747C22.069 49.0512 20.8339 47.8161 19.3104 47.8161H14.2981C11.9373 47.8161 10.6673 45.0435 12.2092 43.2558L37.9111 13.4565C39.0115 12.1806 40.9886 12.1806 42.089 13.4565L67.7909 43.2557C69.3328 45.0435 68.0627 47.8161 65.7019 47.8161H60.6897C59.1661 47.8161 57.9311 49.0512 57.9311 50.5747V63.4483C57.9311 64.9718 56.696 66.2069 55.1724 66.2069H49.6552C48.1316 66.2069 46.8966 64.9718 46.8966 63.4483V50.5747C46.8966 49.0512 45.6615 47.8161 44.1379 47.8161H35.8621C34.3385 47.8161 33.1035 49.0512 33.1035 50.5747V63.4483C33.1035 64.9718 31.8684 66.2069 30.3448 66.2069Z" stroke="white" stroke-width="6.06897"/>
</g>
</svg>
