<svg xmlns="http://www.w3.org/2000/svg" width="80" height="80">

<defs>
<style>.white_90{fill:#fff;opacity:0.9;}.white_42{fill:#fff;opacity:0.42;}</style>

<filter id="dropshadow" x="-10" y="-10" width="90" height="90" filterUnits="userSpaceOnUse">
      <feOffset dy="5" input="SourceAlpha"/>
      <feGaussianBlur stdDeviation="5" result="blur"/>
      <feFlood flood-opacity="0.4"/>
      <feComposite operator="in" in2="blur"/>
      <feComposite in="SourceGraphic"/>
</filter>
    
</defs>

<path class="white_42" filter="url(#dropshadow)" d="M26.83,9.48A10.25,10.25,0,1,0,37.09,19.73,10.26,10.26,0,0,0,26.83,9.48Zm0,15.5a5.25,5.25,0,1,1,5.26-5.25A5.26,5.26,0,0,1,26.83,25Zm0-25A26.84,26.84,0,1,0,53.67,26.83,26.87,26.87,0,0,0,26.83,0Zm0,48.67A21.65,21.65,0,0,1,13.2,43.86a21.86,21.86,0,0,1,27.31,0A21.78,21.78,0,0,1,26.83,48.67ZM44,40.26a26.87,26.87,0,0,0-34.37,0,21.84,21.84,0,1,1,34.37,0Z" transform="translate(13 13)" />

</svg>