<svg width="80" height="80" viewBox="0 0 80 80" fill="none" xmlns="http://www.w3.org/2000/svg">
<g opacity="0.9">
<path fill-rule="evenodd" clip-rule="evenodd" d="M39.7801 22.4455C41.2795 21.1603 43.596 22.2257 43.596 24.2005V55.7995C43.596 57.7744 41.2795 58.8398 39.7801 57.5546L31.724 50.6493C30.2809 49.4124 28.443 48.7325 26.5424 48.7325H18.1691C16.8925 48.7325 15.8576 47.6976 15.8576 46.4209V33.5791C15.8576 32.3025 16.8925 31.2676 18.1691 31.2676H26.5424C28.443 31.2676 30.2809 30.5877 31.724 29.3508L39.7801 22.4455ZM49.2464 24.2005C49.2464 17.3982 41.2676 13.7285 36.1029 18.1554L28.0467 25.0607C27.6278 25.4198 27.0942 25.6171 26.5424 25.6171H18.1691C13.7718 25.6171 10.2072 29.1818 10.2072 33.5791V46.4209C10.2072 50.8182 13.7718 54.3829 18.1691 54.3829H26.5424C27.0942 54.3829 27.6278 54.5803 28.0467 54.9394L36.1029 61.8447C41.2676 66.2716 49.2464 62.6018 49.2464 55.7995V24.2005ZM71.5343 48.4187C70.431 49.522 68.6422 49.522 67.5388 48.4187L63.1157 43.9955L58.6925 48.4187C57.5892 49.522 55.8004 49.522 54.6971 48.4187C53.5937 47.3153 53.5937 45.5265 54.6971 44.4232L59.1202 40L54.697 35.5768C53.5937 34.4735 53.5937 32.6847 54.697 31.5814C55.8003 30.478 57.5891 30.478 58.6924 31.5814L63.1157 36.0046L67.5389 31.5814C68.6422 30.478 70.431 30.478 71.5344 31.5814C72.6377 32.6847 72.6377 34.4735 71.5344 35.5768L67.1111 40L71.5343 44.4232C72.6376 45.5265 72.6376 47.3153 71.5343 48.4187Z" fill="white"/>
</g>
</svg>
