<svg width="80" height="80" viewBox="0 0 80 80" fill="none" xmlns="http://www.w3.org/2000/svg">
<g opacity="0.9">
<path fill-rule="evenodd" clip-rule="evenodd" d="M39.9998 14.4253C25.8752 14.4253 14.4251 25.8755 14.4251 40C14.4251 54.1245 25.8752 65.5747 39.9998 65.5747C54.1243 65.5747 65.5745 54.1245 65.5745 40C65.5745 25.8755 54.1243 14.4253 39.9998 14.4253ZM8.27563 40C8.27563 22.4792 22.479 8.27585 39.9998 8.27585C57.5205 8.27585 71.7239 22.4792 71.7239 40C71.7239 57.5207 57.5205 71.7241 39.9998 71.7241C22.479 71.7241 8.27563 57.5207 8.27563 40ZM40.0296 36.8595C42.3452 36.8595 44.2224 38.7367 44.2224 41.0523V53.3891C44.2224 55.7047 42.3452 57.5819 40.0296 57.5819C37.714 57.5819 35.8368 55.7047 35.8368 53.3891V41.0523C35.8368 38.7367 37.714 36.8595 40.0296 36.8595ZM44.4143 26.8739C44.4143 29.3118 42.4379 31.2882 39.9999 31.2882C37.562 31.2882 35.5856 29.3118 35.5856 26.8739C35.5856 24.4359 37.562 22.4595 39.9999 22.4595C42.4379 22.4595 44.4143 24.4359 44.4143 26.8739Z" fill="#ff9100"/>
</g>
</svg>
