<svg width="150" height="150" viewBox="0 0 150 150" fill="none" xmlns="http://www.w3.org/2000/svg">
<path opacity="0.3" d="M134.689 74.9871C134.079 74.9871 133.495 74.7451 133.064 74.3142C132.633 73.8833 132.391 73.2988 132.391 72.6894C131.961 61.7472 128.414 51.1559 122.164 42.1634C115.916 33.1708 107.226 26.1517 97.1212 21.9333C87.0155 17.7149 75.9149 16.4728 65.127 18.3536C54.3392 20.2342 44.3136 25.1593 36.2318 32.5484C35.8447 32.9137 35.5964 33.4021 35.5294 33.9301C35.4623 34.4581 35.5807 34.993 35.8642 35.4435L41.149 43.9221C41.4704 44.4221 41.9732 44.778 42.5516 44.9151C43.1301 45.0522 43.7391 44.9598 44.2508 44.6573C44.3905 44.5708 44.5214 44.4708 44.6415 44.3586C50.5419 38.488 58.0164 34.4523 66.1617 32.7393C74.3068 31.0264 82.7739 31.7096 90.5387 34.7063C98.3047 37.7029 105.035 42.8849 109.918 49.6256C114.801 56.3662 117.627 64.377 118.053 72.6894C118.053 73.2988 117.812 73.8833 117.38 74.3142C116.949 74.7451 116.365 74.9871 115.756 74.9871H111.459C110.85 74.9871 110.265 75.2292 109.834 75.6601C109.404 76.091 109.161 76.6754 109.161 77.2848C109.164 77.7072 109.283 78.1206 109.506 78.4796L123.292 100.653C123.618 101.161 124.13 101.521 124.72 101.654C125.309 101.787 125.927 101.684 126.44 101.364C126.727 101.183 126.97 100.94 127.152 100.653L140.938 78.4796C141.145 78.1435 141.26 77.7599 141.276 77.3659C141.291 76.9719 141.204 76.5806 141.023 76.2298C140.844 75.8789 140.577 75.5803 140.248 75.3627C139.919 75.1451 139.539 75.0157 139.146 74.9871H134.689ZM74.9482 118.07C63.5363 118.051 52.5982 113.503 44.5373 105.425C36.4764 97.3468 31.952 86.3992 31.9581 74.9871H38.5296C39.139 74.9871 39.7234 74.7451 40.1543 74.3142C40.5852 73.8833 40.8272 73.2988 40.8272 72.6894C40.8244 72.267 40.7051 71.8536 40.4826 71.4946L26.6963 49.3217C26.3709 48.8193 25.8622 48.4638 25.2786 48.3307C24.695 48.1978 24.0825 48.2977 23.5714 48.6094C23.2782 48.7915 23.0274 49.0344 22.8362 49.3217L9.04992 71.4946C8.74032 72.0083 8.6439 72.6228 8.78131 73.2068C8.91871 73.7906 9.27893 74.2977 9.78516 74.6195C10.1314 74.8541 10.5388 74.9818 10.957 74.9871H15.3916C16.001 74.9871 16.5854 75.2292 17.0163 75.6601C17.4472 76.091 17.6893 76.6754 17.6893 77.2848C18.1138 88.2244 21.6553 98.8144 27.8969 107.808C34.1383 116.802 42.8199 123.825 52.9191 128.05C63.0183 132.275 74.1144 133.526 84.9009 131.656C95.687 129.786 105.715 124.872 113.802 117.495C114.19 117.13 114.438 116.641 114.505 116.113C114.572 115.585 114.454 115.05 114.171 114.6L108.885 106.121C108.564 105.621 108.061 105.265 107.483 105.128C106.904 104.991 106.295 105.083 105.784 105.386C105.644 105.473 105.513 105.573 105.393 105.685C97.335 113.68 86.4377 118.158 75.0861 118.138L74.9482 118.07Z" fill="white"/>
<path opacity="0.3" d="M87.8342 56.6002H62.1552C59.3195 56.6002 57.0205 58.899 57.0205 61.7349V87.4139C57.0205 90.249 59.3195 92.5483 62.1552 92.5483H87.8342C90.6693 92.5483 92.9687 90.249 92.9687 87.4139V61.7349C92.9687 58.899 90.6693 56.6002 87.8342 56.6002Z" fill="white"/>
</svg>
