<svg width="80" height="80" viewBox="0 0 80 80" fill="none" xmlns="http://www.w3.org/2000/svg">
<path fill-rule="evenodd" clip-rule="evenodd" d="M67.0056 20.11C68.5898 18.6313 68.6755 16.1483 67.1968 14.5641C65.7181 12.9798 63.2352 12.8942 61.6509 14.3728L40.7848 33.8478L19.9188 14.3728C18.3345 12.8942 15.8515 12.9798 14.3728 14.5641C12.8942 16.1483 12.9798 18.6313 14.5641 20.11L35.034 39.2153L14.5641 58.3205C12.9798 59.7992 12.8942 62.2822 14.3728 63.8664C15.8515 65.4507 18.3345 65.5363 19.9188 64.0577L40.7848 44.5827L61.6509 64.0577C63.2352 65.5363 65.7181 65.4507 67.1968 63.8664C68.6755 62.2822 68.5898 59.7992 67.0056 58.3205L46.5357 39.2153L67.0056 20.11Z" fill="white"/>
</svg>
