<svg width="115" height="115" viewBox="0 0 115 115" fill="none" xmlns="http://www.w3.org/2000/svg">
<path fill-rule="evenodd" clip-rule="evenodd" d="M103.5 11.5H11.5V103.5H103.5V11.5ZM11.5 0C5.14873 0 0 5.14873 0 11.5V103.5C0 109.851 5.14873 115 11.5 115H103.5C109.851 115 115 109.851 115 103.5V11.5C115 5.14873 109.851 0 103.5 0H11.5Z" fill="white" fill-opacity="0.5"/>
<path d="M88.0853 25.7188C88.0853 25.5229 88.1441 25.3662 88.2616 25.2487C88.4183 25.092 88.5946 25.0137 88.7905 25.0137H95.6069C95.8028 25.0137 95.9595 25.092 96.077 25.2487C96.2337 25.3662 96.3121 25.5229 96.3121 25.7188V65.4422C96.3121 65.638 96.2337 65.8143 96.077 65.971C95.9595 66.0886 95.8028 66.1473 95.6069 66.1473H87.8503C87.4585 66.1473 87.2039 65.9514 87.0864 65.5597L79.7998 42.8187C79.7607 42.7011 79.6823 42.662 79.5648 42.7011C79.4864 42.7011 79.4473 42.7599 79.4473 42.8774L79.506 65.4422C79.506 65.638 79.4277 65.8143 79.271 65.971C79.1535 66.0886 78.9967 66.1473 78.8009 66.1473H71.9844C71.7886 66.1473 71.6123 66.0886 71.4556 65.971C71.3381 65.8143 71.2793 65.638 71.2793 65.4422V25.7188C71.2793 25.5229 71.3381 25.3662 71.4556 25.2487C71.6123 25.092 71.7886 25.0137 71.9844 25.0137H79.6823C80.0741 25.0137 80.3287 25.2095 80.4462 25.6013L87.7915 48.3423C87.8307 48.4599 87.8895 48.5186 87.9678 48.5186C88.0853 48.4794 88.1441 48.4011 88.1441 48.2836L88.0853 25.7188Z" fill="white"/>
<path d="M58.4434 66.1473C58.2476 66.1473 58.0713 66.0886 57.9146 65.971C57.797 65.8143 57.7383 65.638 57.7383 65.4422V25.7188C57.7383 25.5229 57.797 25.3662 57.9146 25.2487C58.0713 25.092 58.2476 25.0137 58.4434 25.0137H65.3186C65.5145 25.0137 65.6712 25.092 65.7887 25.2487C65.9454 25.3662 66.0238 25.5229 66.0238 25.7188V65.4422C66.0238 65.638 65.9454 65.8143 65.7887 65.971C65.6712 66.0886 65.5145 66.1473 65.3186 66.1473H58.4434Z" fill="white"/>
<path d="M24.5681 66.1473C24.1372 66.1473 23.8825 65.9319 23.8042 65.5009L15.8713 25.7776L15.8125 25.5425C15.8125 25.19 16.028 25.0137 16.4589 25.0137H23.6279C24.098 25.0137 24.3526 25.2291 24.3918 25.6601L27.7413 46.8145C27.7804 46.9712 27.8392 47.0496 27.9175 47.0496C27.9959 47.0496 28.0547 46.9712 28.0938 46.8145L31.267 25.6601C31.3062 25.2291 31.5608 25.0137 32.0309 25.0137H37.9659C38.436 25.0137 38.6906 25.2291 38.7298 25.6601L42.1968 46.8145C42.236 46.9712 42.2947 47.0496 42.3731 47.0496C42.4514 47.0496 42.5102 46.9712 42.5494 46.8145L45.5463 25.6601C45.5854 25.2291 45.8401 25.0137 46.3102 25.0137H53.2441C53.7534 25.0137 53.9689 25.2683 53.8905 25.7776L46.4277 65.5009C46.3885 65.9319 46.1339 66.1473 45.6638 66.1473H39.3174C38.8473 66.1473 38.5927 65.9319 38.5535 65.5009L35.0866 43.7589C35.0474 43.6022 34.9886 43.5238 34.9103 43.5238C34.8319 43.5238 34.7732 43.6022 34.734 43.7589L31.6196 65.5009C31.5804 65.9319 31.3258 66.1473 30.8557 66.1473H24.5681Z" fill="white"/>
<path d="M96.0136 73.8818C96.0968 73.8818 96.1634 73.9151 96.2133 73.9817C96.2799 74.0316 96.3131 74.0982 96.3131 74.1814V76.6027C96.3131 76.6859 96.2799 76.7608 96.2133 76.8274C96.1634 76.8773 96.0968 76.9022 96.0136 76.9022H92.8933C92.8101 76.9022 92.7685 76.9438 92.7685 77.027V91.0557C92.7685 91.1389 92.7352 91.2138 92.6687 91.2803C92.6188 91.3303 92.5522 91.3552 92.469 91.3552H89.5484C89.4652 91.3552 89.3903 91.3303 89.3238 91.2803C89.2739 91.2138 89.2489 91.1389 89.2489 91.0557V77.027C89.2489 76.9438 89.2073 76.9022 89.1241 76.9022H86.1286C86.0454 76.9022 85.9706 76.8773 85.904 76.8274C85.8541 76.7608 85.8291 76.6859 85.8291 76.6027V74.1814C85.8291 74.0982 85.8541 74.0316 85.904 73.9817C85.9706 73.9151 86.0454 73.8818 86.1286 73.8818H96.0136Z" fill="white"/>
<path d="M79.3236 91.5534C77.7926 91.5534 76.5694 91.1041 75.6542 90.2055C74.7389 89.3069 74.2812 88.1087 74.2812 86.611V78.6231C74.2812 77.1254 74.7389 75.9272 75.6542 75.0286C76.5694 74.13 77.7926 73.6807 79.3236 73.6807C80.8546 73.6807 82.0777 74.13 82.993 75.0286C83.9249 75.9272 84.3909 77.1254 84.3909 78.6231V86.611C84.3909 88.1087 83.9249 89.3069 82.993 90.2055C82.0777 91.1041 80.8546 91.5534 79.3236 91.5534ZM79.3236 88.533C79.7895 88.533 80.164 88.3749 80.4469 88.0588C80.7298 87.7259 80.8712 87.2933 80.8712 86.7607V78.4734C80.8712 77.9408 80.7298 77.5165 80.4469 77.2003C80.164 76.8675 79.7895 76.7011 79.3236 76.7011C78.8576 76.7011 78.4832 76.8675 78.2003 77.2003C77.934 77.5165 77.8009 77.9408 77.8009 78.4734V86.7607C77.8009 87.2933 77.934 87.7259 78.2003 88.0588C78.4832 88.3749 78.8576 88.533 79.3236 88.533Z" fill="white"/>
<path d="M68.2413 73.8564C69.1566 73.8564 69.972 74.0811 70.6876 74.5304C71.4031 74.9797 71.9523 75.6121 72.335 76.4275C72.7344 77.2263 72.9341 78.1416 72.9341 79.1733C72.9341 80.721 72.5181 81.9608 71.686 82.8927C70.854 83.8246 69.764 84.2906 68.416 84.2906H66.5439C66.4607 84.2906 66.4191 84.3322 66.4191 84.4154V91.0552C66.4191 91.1385 66.3858 91.2133 66.3192 91.2799C66.2693 91.3298 66.2027 91.3548 66.1195 91.3548H63.199C63.1158 91.3548 63.0409 91.3298 62.9743 91.2799C62.9244 91.2133 62.8994 91.1385 62.8994 91.0552V74.156C62.8994 74.0728 62.9244 74.0062 62.9743 73.9563C63.0409 73.8897 63.1158 73.8564 63.199 73.8564H68.2413ZM67.6422 81.5447C68.1747 81.5447 68.5991 81.345 68.9153 80.9456C69.2481 80.5296 69.4145 79.9638 69.4145 79.2482C69.4145 78.516 69.2481 77.9419 68.9153 77.5259C68.5991 77.1098 68.1747 76.9018 67.6422 76.9018H66.5439C66.4607 76.9018 66.4191 76.9434 66.4191 77.0266V81.4199C66.4191 81.5031 66.4607 81.5447 66.5439 81.5447H67.6422Z" fill="white"/>
<path d="M50.9636 91.3552C50.8804 91.3552 50.8055 91.3303 50.7389 91.2803C50.689 91.2138 50.6641 91.1389 50.6641 91.0557V74.1814C50.6641 74.0982 50.689 74.0316 50.7389 73.9817C50.8055 73.9151 50.8804 73.8818 50.9636 73.8818H53.8842C53.9674 73.8818 54.0339 73.9151 54.0839 73.9817C54.1504 74.0316 54.1837 74.0982 54.1837 74.1814V80.4718C54.1837 80.5384 54.2003 80.58 54.2336 80.5966C54.2835 80.5966 54.3168 80.5633 54.3335 80.4968L57.5536 74.1065C57.6368 73.9567 57.7533 73.8818 57.903 73.8818H60.9983C61.1148 73.8818 61.1897 73.9151 61.223 73.9817C61.2729 74.0316 61.2729 74.1148 61.223 74.2313L57.5286 81.4204C57.512 81.4869 57.5036 81.5368 57.5036 81.5701L61.4227 91.0058C61.4393 91.039 61.4476 91.089 61.4476 91.1555C61.4476 91.2887 61.3644 91.3552 61.198 91.3552H58.0778C57.8947 91.3552 57.7782 91.2803 57.7283 91.1306L55.1323 84.5905C55.1156 84.5406 55.0907 84.524 55.0574 84.5406C55.0241 84.5406 54.9908 84.5572 54.9575 84.5905L54.2336 85.8885C54.2003 85.9551 54.1837 86.005 54.1837 86.0383V91.0557C54.1837 91.1389 54.1504 91.2138 54.0839 91.2803C54.0339 91.3303 53.9674 91.3552 53.8842 91.3552H50.9636Z" fill="white"/>
<path d="M43.8024 91.5534C42.3047 91.5534 41.0982 91.1124 40.1829 90.2305C39.2843 89.3318 38.835 88.1336 38.835 86.6359V78.5482C38.835 77.0672 39.2843 75.8856 40.1829 75.0036C41.0982 74.1217 42.3047 73.6807 43.8024 73.6807C45.3168 73.6807 46.5233 74.1217 47.4219 75.0036C48.3372 75.8856 48.7948 77.0672 48.7948 78.5482V78.8228C48.7948 78.906 48.7615 78.9809 48.6949 79.0475C48.645 79.0974 48.5785 79.1224 48.4952 79.1224L45.5747 79.2472C45.375 79.2472 45.2752 79.1557 45.2752 78.9726V78.3236C45.2752 77.841 45.142 77.4499 44.8758 77.1504C44.6095 76.8508 44.2517 76.7011 43.8024 76.7011C43.3697 76.7011 43.0203 76.8508 42.754 77.1504C42.4877 77.4499 42.3546 77.841 42.3546 78.3236V86.9355C42.3546 87.4181 42.4877 87.8091 42.754 88.1087C43.0203 88.3916 43.3697 88.533 43.8024 88.533C44.2517 88.533 44.6095 88.3916 44.8758 88.1087C45.142 87.8091 45.2752 87.4181 45.2752 86.9355V86.2615C45.2752 86.1783 45.3001 86.1117 45.35 86.0618C45.4166 85.9952 45.4915 85.962 45.5747 85.962L48.4952 86.0868C48.5785 86.0868 48.645 86.12 48.6949 86.1866C48.7615 86.2365 48.7948 86.3031 48.7948 86.3863V86.6359C48.7948 88.1336 48.3372 89.3318 47.4219 90.2305C46.5066 91.1124 45.3001 91.5534 43.8024 91.5534Z" fill="white"/>
<path d="M34.8468 91.3552C34.6471 91.3552 34.539 91.2637 34.5223 91.0806L34.1229 88.6843C34.1229 88.6011 34.073 88.5595 33.9732 88.5595H30.803C30.7032 88.5595 30.6532 88.6011 30.6532 88.6843L30.2538 91.0806C30.2372 91.2637 30.129 91.3552 29.9293 91.3552H27.0088C26.7924 91.3552 26.7092 91.2471 26.7592 91.0307L30.4286 74.1564C30.4619 73.9734 30.57 73.8818 30.7531 73.8818H34.1229C34.306 73.8818 34.4142 73.9734 34.4474 74.1564L38.0919 91.0307L38.1169 91.1306C38.1169 91.2803 38.0253 91.3552 37.8423 91.3552H34.8468ZM31.1525 85.7138C31.1525 85.797 31.1857 85.8386 31.2523 85.8386H33.4989C33.5821 85.8386 33.6154 85.797 33.5987 85.7138L32.4255 78.8992C32.4089 78.8493 32.3839 78.8243 32.3506 78.8243C32.3174 78.8243 32.2924 78.8493 32.2758 78.8992L31.1525 85.7138Z" fill="white"/>
<path d="M20.705 91.5549C19.2406 91.5549 18.0591 91.1306 17.1604 90.2819C16.2618 89.4165 15.8125 88.2766 15.8125 86.8621V85.1397C15.8125 85.0565 15.8375 84.9899 15.8874 84.94C15.954 84.8734 16.0288 84.8401 16.112 84.8401H19.0326C19.1158 84.8401 19.1824 84.8734 19.2323 84.94C19.2989 84.9899 19.3321 85.0565 19.3321 85.1397V86.912C19.3321 87.3946 19.4569 87.7857 19.7066 88.0852C19.9562 88.3847 20.289 88.5345 20.705 88.5345C21.1377 88.5345 21.4789 88.3847 21.7285 88.0852C21.9947 87.7857 22.1279 87.3946 22.1279 86.912V74.1814C22.1279 74.0982 22.1528 74.0316 22.2028 73.9817C22.2693 73.9151 22.3442 73.8818 22.4274 73.8818H25.348C25.4312 73.8818 25.4977 73.9151 25.5477 73.9817C25.6142 74.0316 25.6475 74.0982 25.6475 74.1814V86.8621C25.6475 88.2766 25.1899 89.4165 24.2746 90.2819C23.376 91.1306 22.1861 91.5549 20.705 91.5549Z" fill="white"/>
</svg>
