<svg width="150" height="150" viewBox="0 0 150 150" fill="none" xmlns="http://www.w3.org/2000/svg">
<path opacity="0.5" d="M95.8404 91.4636L82.0154 51.7221C81.7935 51.1035 81.386 50.5687 80.8488 50.1904C80.3116 49.812 79.6707 49.6087 79.0137 49.6081H71.1288C70.4731 49.6037 69.8327 49.8054 69.2978 50.1847C68.763 50.564 68.3609 51.1018 68.1483 51.7221L54.4079 91.4636C54.132 92.2595 54.1775 93.1312 54.5347 93.894C54.9086 94.6507 55.5597 95.2339 56.3527 95.5216C56.6871 95.6595 57.0489 95.7174 57.4096 95.691H62.335C62.9964 95.6978 63.6434 95.4978 64.1854 95.1189C64.7275 94.7401 65.1374 94.2004 65.3579 93.5773L67.7677 85.8825C67.8325 85.6651 67.9668 85.4749 68.1501 85.3413C68.3335 85.2076 68.5556 85.1378 68.7824 85.1427H81.1275C81.3535 85.1413 81.574 85.2124 81.7567 85.3456C81.9393 85.4788 82.0744 85.667 82.1422 85.8825L84.5521 93.5773C84.7737 94.2038 85.1868 94.7461 85.733 95.1249C86.2794 95.5046 86.931 95.7021 87.5959 95.691H92.8388C93.2542 95.6935 93.6654 95.6144 94.0502 95.4577C94.4349 95.3003 94.7848 95.0687 95.0793 94.7759C95.3739 94.4831 95.608 94.1349 95.7672 93.7518C95.9272 93.3679 96.0098 92.9567 96.0089 92.5413C96.0149 92.1753 95.9579 91.8101 95.8404 91.4636ZM78.147 75.9684C78.0361 75.998 77.9195 75.998 77.8087 75.9684H72.1012C71.9601 75.9818 71.8177 75.962 71.6856 75.9107C71.5535 75.8593 71.4352 75.7777 71.3402 75.6724C71.1892 75.4723 71.1143 75.2251 71.1288 74.9748C71.1066 74.8632 71.1066 74.7483 71.1288 74.6366L74.9972 62.2704L78.8657 74.6366C78.9078 74.7712 78.9225 74.9129 78.9089 75.0532C78.8954 75.1936 78.854 75.3299 78.787 75.454C78.72 75.5781 78.6289 75.6876 78.519 75.7759C78.4091 75.8642 78.2826 75.9297 78.147 75.9684Z" fill="white"/>
<path d="M129.916 74.9881C129.355 74.9881 128.818 74.7654 128.421 74.369C128.025 73.9726 127.802 73.4349 127.802 72.8743C127.407 62.8074 124.143 53.0634 118.393 44.7903C112.645 36.5171 104.651 30.0596 95.3538 26.1786C86.0566 22.2977 75.844 21.155 65.9192 22.8852C55.9943 24.6154 46.7709 29.1466 39.3356 35.9445C38.9795 36.2806 38.751 36.7299 38.6894 37.2156C38.6276 37.7015 38.7365 38.1936 38.9973 38.608L43.8594 46.4083C44.1551 46.8683 44.6177 47.1957 45.1498 47.3219C45.6819 47.448 46.2423 47.363 46.7131 47.0847C46.8416 47.0051 46.962 46.9131 47.0725 46.8099C52.5008 41.409 59.3774 37.6961 66.871 36.1201C74.3646 34.5443 82.1543 35.1728 89.2979 37.9298C96.4426 40.6867 102.635 45.4541 107.127 51.6555C111.619 57.8569 114.219 65.2268 114.611 72.8743C114.611 73.4349 114.389 73.9726 113.992 74.369C113.596 74.7654 113.058 74.9881 112.497 74.9881H108.544C107.984 74.9881 107.446 75.2108 107.049 75.6073C106.654 76.0037 106.431 76.5414 106.431 77.102C106.433 77.4906 106.543 77.8709 106.748 78.2012L119.431 98.6007C119.731 99.068 120.202 99.3991 120.745 99.5217C121.287 99.6443 121.855 99.549 122.327 99.2553C122.591 99.0884 122.815 98.8645 122.983 98.6007L135.666 78.2012C135.855 77.892 135.962 77.5391 135.976 77.1766C135.99 76.8141 135.91 76.4541 135.744 76.1314C135.579 75.8086 135.333 75.5339 135.031 75.3337C134.727 75.1334 134.378 75.0144 134.017 74.9881H129.916ZM74.9547 114.624C64.4557 114.607 54.3927 110.423 46.9766 102.991C39.5606 95.5591 35.3981 85.4872 35.4037 74.9881H41.4495C42.0101 74.9881 42.5478 74.7654 42.9442 74.369C43.3407 73.9726 43.5634 73.4349 43.5634 72.8743C43.5607 72.4857 43.451 72.1053 43.2463 71.775L30.5629 51.376C30.2635 50.9137 29.7955 50.5867 29.2586 50.4642C28.7217 50.3419 28.1582 50.4339 27.688 50.7206C27.4182 50.8882 27.1876 51.1116 27.0116 51.376L14.3282 71.775C14.0434 72.2477 13.9547 72.813 14.0811 73.3502C14.2075 73.8874 14.5389 74.3539 15.0046 74.6499C15.3232 74.8657 15.698 74.9833 16.0828 74.9881H20.1626C20.7232 74.9881 21.2609 75.2108 21.6573 75.6073C22.0537 76.0037 22.2764 76.5414 22.2764 77.102C22.667 87.1664 25.9252 96.9092 31.6673 105.184C37.4096 113.458 45.3966 119.919 54.6878 123.806C63.9791 127.693 74.1876 128.844 84.1112 127.123C94.0344 125.403 103.26 120.883 110.7 114.095C111.057 113.759 111.285 113.31 111.347 112.824C111.409 112.338 111.3 111.846 111.039 111.432L106.177 103.632C105.881 103.171 105.418 102.844 104.886 102.717C104.354 102.591 103.794 102.677 103.323 102.955C103.195 103.035 103.074 103.127 102.964 103.23C95.5505 110.586 85.525 114.705 75.0815 114.687L74.9547 114.624Z" fill="white"/>
</svg>
