<svg xmlns="http://www.w3.org/2000/svg" xmlns:xlink="http://www.w3.org/1999/xlink" width="157.294" height="76.206" viewBox="0 0 157.294 76.206">
  <defs>
    <filter id="Ellipse_69" x="83.847" y="3.794" width="72.616" height="72.412" filterUnits="userSpaceOnUse">
      <feOffset dy="3" input="SourceAlpha"/>
      <feGaussianBlur stdDeviation="3" result="blur"/>
      <feFlood flood-opacity="0.161"/>
      <feComposite operator="in" in2="blur"/>
      <feComposite in="SourceGraphic"/>
    </filter>
  </defs>
  <g id="mobl_toggle_on" transform="translate(-2957.646 -2021.462)">
    <g id="Path_134" data-name="Path 134" transform="translate(2957.646 2021.462)" fill="#ff9100">
      <path d="M 120.1552429199219 73 L 37.13888549804688 73 C 32.2592658996582 73 27.52616500854492 72.04811859130859 23.07106399536133 70.17083740234375 C 18.76770401000977 68.35746002197266 14.90272426605225 65.76132202148438 11.58350467681885 62.45452117919922 C 8.264564514160156 59.14797973632813 5.658944129943848 55.29792022705078 3.839044094085693 51.01128005981445 C 1.9551842212677 46.57402038574219 1.000004172325134 41.85993957519531 1.000004172325134 37 C 1.000004172325134 32.14006042480469 1.9551842212677 27.42597961425781 3.839044094085693 22.98871994018555 C 5.658944129943848 18.70207977294922 8.264564514160156 14.85202026367188 11.58350467681885 11.5454797744751 C 14.90272426605225 8.238679885864258 18.76770401000977 5.642539978027344 23.07106399536133 3.82915997505188 C 27.52616500854492 1.951879978179932 32.2592658996582 1 37.13888549804688 1 L 120.1552429199219 1 C 125.0348663330078 1 129.7679595947266 1.951879978179932 134.2230682373047 3.82915997505188 C 138.5264282226563 5.642539978027344 142.3914031982422 8.238679885864258 145.7106170654297 11.5454797744751 C 149.0295715332031 14.85202026367188 151.6351776123047 18.70207977294922 153.455078125 22.98871994018555 C 155.3389434814453 27.42597961425781 156.2941284179688 32.14006042480469 156.2941284179688 37 C 156.2941284179688 41.85993957519531 155.3389434814453 46.57402038574219 153.455078125 51.01128005981445 C 151.6351776123047 55.29792022705078 149.0295715332031 59.14797973632813 145.7106170654297 62.45452117919922 C 142.3914031982422 65.76132202148438 138.5264282226563 68.35746002197266 134.2230682373047 70.17083740234375 C 129.7679595947266 72.04811859130859 125.0348663330078 73 120.1552429199219 73 Z" stroke="none"/>
      <path d="M 37.13889312744141 2 C 32.39334869384766 2 27.79090881347656 2.92547607421875 23.45939636230469 4.750694274902344 C 19.27510070800781 6.513870239257813 15.51693725585938 9.038322448730469 12.28927612304688 12.25391387939453 C 9.062149047851563 15.46897888183594 6.528762817382813 19.21217346191406 4.759521484375 23.37950134277344 C 2.928436279296875 27.69247817993164 2 32.27508544921875 2 37 C 2 41.72491455078125 2.928436279296875 46.30752182006836 4.759521484375 50.62049865722656 C 6.528762817382813 54.78782653808594 9.062149047851563 58.53102111816406 12.28927612304688 61.74608612060547 C 15.51693725585938 64.961669921875 19.27510070800781 67.48612976074219 23.45939636230469 69.24930572509766 C 27.79090881347656 71.07452392578125 32.39334869384766 72 37.13889312744141 72 L 120.1552429199219 72 C 124.9007568359375 72 129.5032196044922 71.07452392578125 133.8347320556641 69.24930572509766 C 138.0190124511719 67.48612976074219 141.7771759033203 64.961669921875 145.0048522949219 61.74608612060547 C 148.2319793701172 58.53102111816406 150.7653656005859 54.78782653808594 152.5346069335938 50.62049865722656 C 154.3656921386719 46.30752182006836 155.2941284179688 41.72491455078125 155.2941284179688 37 C 155.2941284179688 32.27508544921875 154.3656921386719 27.69247817993164 152.5346069335938 23.37950134277344 C 150.7653656005859 19.21217346191406 148.2319793701172 15.46897888183594 145.0048522949219 12.25391387939453 C 141.7771759033203 9.038322448730469 138.0190124511719 6.513870239257813 133.8347320556641 4.750694274902344 C 129.5032196044922 2.92547607421875 124.9007568359375 2 120.1552429199219 2 L 37.13889312744141 2 M 37.13889312744141 0 L 120.1552429199219 0 C 140.6664733886719 0 157.2941284179688 16.56545639038086 157.2941284179688 37 C 157.2941284179688 57.43454360961914 140.6664733886719 74 120.1552429199219 74 L 37.13889312744141 74 C 16.62762451171875 74 0 57.43454360961914 0 37 C 0 16.56545639038086 16.62762451171875 0 37.13889312744141 0 Z" stroke="none" fill="#ff9100"/>
    </g>
    <g transform="matrix(1, 0, 0, 1, 2957.65, 2021.46)" filter="url(#Ellipse_69)">
      <ellipse id="Ellipse_69-2" data-name="Ellipse 69" cx="27.308" cy="27.206" rx="27.308" ry="27.206" transform="translate(92.85 9.79)" fill="#fff"/>
    </g>
  </g>
</svg>
