<svg width="150" height="150" viewBox="0 0 150 150" fill="none" xmlns="http://www.w3.org/2000/svg">
<path d="M74.9918 17.5C63.6209 17.5 52.4998 20.8678 43.0534 27.187C33.607 33.5062 26.2237 42.49 21.8752 52.9912C17.5267 63.5016 16.3887 75.0576 18.6 86.2156C20.8205 97.3645 26.2978 107.616 34.3379 115.656C42.378 123.696 52.6201 129.173 63.7782 131.394C74.927 133.614 86.4922 132.476 96.9933 128.119C107.504 123.77 116.478 116.396 122.797 106.94C129.117 97.4848 132.484 86.3729 132.484 74.9928C132.484 59.7453 126.424 45.1176 115.646 34.3389C104.867 23.5602 90.2392 17.5 74.9918 17.5ZM74.9918 118.117C66.4613 118.117 58.1251 115.591 51.038 110.854C43.9508 106.117 38.4181 99.3814 35.1521 91.4986C31.8861 83.6158 31.0349 74.9465 32.7002 66.5826C34.3656 58.2187 38.4736 50.5301 44.506 44.507C50.5384 38.4746 58.2177 34.3667 66.5816 32.7013C74.9455 31.0359 83.6148 31.8871 91.4975 35.1531C99.3803 38.4191 106.107 43.9426 110.853 51.039C115.59 58.1261 118.116 66.4716 118.116 74.9928C118.116 80.6551 117.006 86.2619 114.841 91.4986C112.676 96.7353 109.502 101.491 105.496 105.488C101.49 109.494 96.7342 112.668 91.5067 114.833C86.2701 116.998 80.6633 118.108 75.001 118.108L74.9918 118.117Z" fill="white"/>
<path d="M69.9589 71.7361L53.5919 53.0375C51.0568 50.1416 46.7175 52.1955 46.7175 56.285V93.6914C46.7175 97.7901 51.0568 99.8441 53.5919 96.9389L69.9589 78.2403C71.5318 76.4454 71.5318 73.531 69.9589 71.7361Z" fill="white"/>
<path d="M70.1621 98.7893C69.1722 98.7893 68.1822 98.4562 67.3772 97.7623C65.6008 96.245 65.4065 93.5896 66.9424 91.8317L77.1845 79.8317C79.5716 77.0375 79.5438 72.9203 77.129 70.1539C72.8823 65.2966 66.9424 58.524 66.9424 58.524C65.3233 56.6736 65.6286 53.8239 67.6733 52.3621C69.496 51.0575 72.0496 51.5109 73.5299 53.1948L87.8431 69.5525C90.6002 72.7075 90.6002 77.6482 87.8431 80.8031L73.3726 97.3367C72.5307 98.299 71.3464 98.7893 70.1529 98.7893H70.1621Z" fill="white"/>
<path d="M88.9535 98.7893C87.9635 98.7893 86.9735 98.4562 86.1685 97.7623C84.3921 96.245 84.1978 93.5896 85.7336 91.8317L95.4577 80.4423C98.1409 77.2966 98.1131 72.6613 95.393 69.5525C91.2017 64.7599 85.7336 58.524 85.7336 58.524C84.1053 56.6643 84.4198 53.8054 86.4923 52.3436C88.3058 51.0668 90.8317 51.5016 92.2935 53.1763L106.634 69.5618C109.391 72.7168 109.391 77.6574 106.634 80.8124L92.164 97.346C91.322 98.3082 90.1377 98.7986 88.9442 98.7986L88.9535 98.7893Z" fill="white" fill-opacity="0.3"/>
</svg>
