<svg width="80" height="80" viewBox="0 0 80 80" fill="none" xmlns="http://www.w3.org/2000/svg">
<g opacity="0.9">
<path fill-rule="evenodd" clip-rule="evenodd" d="M39.7636 21.1452C41.3741 19.7648 43.8621 20.9091 43.8621 23.0302V56.9699C43.8621 59.091 41.3741 60.2354 39.7636 58.8549L31.1106 51.4381C29.5607 50.1096 27.5866 49.3794 25.5452 49.3794H16.5517C15.1805 49.3794 14.069 48.2678 14.069 46.8966V33.1035C14.069 31.7323 15.1805 30.6207 16.5517 30.6207H25.5452C27.5866 30.6207 29.5607 29.8905 31.1106 28.562L39.7636 21.1452ZM49.931 23.0302C49.931 15.724 41.3612 11.7825 35.8139 16.5373L27.161 23.9541C26.711 24.3398 26.1379 24.5518 25.5452 24.5518H16.5517C11.8287 24.5518 8 28.3805 8 33.1035V46.8966C8 51.6196 11.8287 55.4483 16.5517 55.4483H25.5452C26.1379 55.4483 26.711 55.6603 27.161 56.046L35.8139 63.4628C41.3612 68.2176 49.931 64.2761 49.931 56.9699V23.0302ZM73.8699 49.0423C72.6849 50.2273 70.7635 50.2273 69.5785 49.0423L64.8277 44.2914L60.0768 49.0423C58.8918 50.2273 56.9704 50.2273 55.7854 49.0423C54.6004 47.8573 54.6004 45.9359 55.7854 44.7509L60.5363 40L55.7854 35.2492C54.6004 34.0641 54.6004 32.1428 55.7854 30.9578C56.9704 29.7727 58.8918 29.7727 60.0768 30.9578L64.8277 35.7086L69.5785 30.9578C70.7635 29.7727 72.6849 29.7727 73.8699 30.9578C75.055 32.1428 75.055 34.0641 73.8699 35.2492L69.1191 40L73.8699 44.7509C75.055 45.9359 75.055 47.8573 73.8699 49.0423Z" fill="white"/>
</g>
</svg>
