<svg width="80" height="80" viewBox="0 0 80 80" fill="none" xmlns="http://www.w3.org/2000/svg">
<g opacity="0.9">
<path fill-rule="evenodd" clip-rule="evenodd" d="M39.9996 16.1891C26.8492 16.1891 16.1887 26.8496 16.1887 40C16.1887 53.1505 26.8492 63.811 39.9996 63.811C53.1501 63.811 63.8106 53.1505 63.8106 40C63.8106 26.8496 53.1501 16.1891 39.9996 16.1891ZM10.4634 40C10.4634 23.6876 23.6872 10.4638 39.9996 10.4638C56.3121 10.4638 69.5359 23.6876 69.5359 40C69.5359 56.3125 56.3121 69.5363 39.9996 69.5363C23.6872 69.5363 10.4634 56.3125 10.4634 40ZM40.0276 37.0761C42.1835 37.0761 43.9312 38.8238 43.9312 40.9798V52.4657C43.9312 54.6217 42.1835 56.3694 40.0276 56.3694C37.8717 56.3694 36.124 54.6217 36.124 52.4657V40.9798C36.124 38.8238 37.8717 37.0761 40.0276 37.0761ZM44.1098 27.7791C44.1098 30.049 42.2698 31.889 39.9999 31.889C37.7301 31.889 35.89 30.049 35.89 27.7791C35.89 25.5093 37.7301 23.6692 39.9999 23.6692C42.2698 23.6692 44.1098 25.5093 44.1098 27.7791Z" fill="white"/>
</g>
</svg>
