<svg width="80" height="80" viewBox="0 0 80 80" fill="none" xmlns="http://www.w3.org/2000/svg">
<path fill-rule="evenodd" clip-rule="evenodd" d="M39.731 18.5445C41.5637 16.9737 44.3949 18.2758 44.3949 20.6896V59.3105C44.3949 61.7242 41.5637 63.0264 39.731 61.4556L29.8846 53.0158C28.1209 51.504 25.8745 50.6731 23.5516 50.6731H13.3176C11.7573 50.6731 10.4924 49.4082 10.4924 47.8478V32.1522C10.4924 30.5919 11.7573 29.327 13.3176 29.327H23.5516C25.8745 29.327 28.1209 28.4961 29.8846 26.9843L39.731 18.5445ZM51.3009 20.6896C51.3009 12.3756 41.5491 7.89037 35.2366 13.301L25.3902 21.7408C24.8782 22.1797 24.226 22.421 23.5516 22.421H13.3176C7.94314 22.421 3.5863 26.7778 3.5863 32.1522V47.8478C3.5863 53.2223 7.94314 57.5791 13.3176 57.5791H23.5516C24.226 57.5791 24.8782 57.8204 25.3902 58.2593L35.2366 66.6991C41.549 72.1097 51.3009 67.6245 51.3009 59.3105V20.6896ZM78.5419 50.2895C77.1934 51.638 75.007 51.638 73.6585 50.2895L68.2523 44.8833L62.8461 50.2895C61.4976 51.638 59.3113 51.638 57.9628 50.2895C56.6143 48.941 56.6143 46.7547 57.9628 45.4062L63.369 40L57.9629 34.5939C56.6144 33.2454 56.6144 31.0591 57.9629 29.7106C59.3114 28.3621 61.4978 28.3621 62.8463 29.7106L68.2523 35.1166L73.6584 29.7106C75.0069 28.3621 77.1932 28.3621 78.5417 29.7106C79.8902 31.0591 79.8902 33.2454 78.5417 34.5939L73.1357 40L78.5419 45.4062C79.8904 46.7547 79.8903 48.941 78.5419 50.2895Z" fill="white"/>
</svg>
