<svg xmlns="http://www.w3.org/2000/svg" xmlns:xlink="http://www.w3.org/1999/xlink" width="232" height="183" viewBox="0 0 232 183">
  <defs>
    <filter id="Rectangle_93" x="0" y="0" width="232" height="183" filterUnits="userSpaceOnUse">
      <feOffset dy="10" input="SourceAlpha"/>
      <feGaussianBlur stdDeviation="10" result="blur"/>
      <feFlood flood-opacity="0.302"/>
      <feComposite operator="in" in2="blur"/>
      <feComposite in="SourceGraphic"/>
    </filter>
  </defs>
  <g id="confirm_button" transform="translate(30 20)">
    <g transform="matrix(1, 0, 0, 1, -30, -20)" filter="url(#Rectangle_93)">
      <rect id="Rectangle_93-2" data-name="Rectangle 93" width="172" height="123" rx="24" transform="translate(202 143) rotate(180)" fill="#4dc100"/>
    </g>
    <path id="Path_94" data-name="Path 94" d="M282.543,20.217a3.537,3.537,0,0,1-4.941,0L261.769,3.946a3.343,3.343,0,0,1-1.006-2.468A3.343,3.343,0,0,1,261.769-.99l2.468-2.473a3.375,3.375,0,0,1,2.473-1,3.373,3.373,0,0,1,2.468,1L280.289,7.653,304.77-16.828a3.357,3.357,0,0,1,2.468-1,3.357,3.357,0,0,1,2.468,1l2.473,2.473a3.357,3.357,0,0,1,1,2.468,3.357,3.357,0,0,1-1,2.468Z" transform="translate(-201.883 59.536)" fill="#fff"/>
  </g>
</svg>
