<svg width="150" height="150" viewBox="0 0 150 150" fill="none" xmlns="http://www.w3.org/2000/svg">
<path d="M74.9999 13C62.7375 13 50.7504 16.6362 40.5546 23.4489C30.3589 30.2615 22.4122 39.9446 17.7195 51.2736C13.0269 62.6025 11.799 75.0687 14.1913 87.0955C16.5836 99.1223 22.4886 110.17 31.1594 118.841C39.8302 127.511 50.8775 133.416 62.9044 135.809C74.9312 138.201 87.3973 136.973 98.7262 132.28C110.055 127.588 119.739 119.641 126.551 109.446C133.363 99.2491 137 87.2624 137 75C137 58.5566 130.468 42.7866 118.841 31.1593C107.214 19.5321 91.443 13 74.9999 13ZM74.9999 121.5C65.8031 121.5 56.8129 118.773 49.166 113.663C41.5191 108.554 35.5591 101.291 32.0396 92.7949C28.5202 84.2979 27.5993 74.9484 29.3935 65.9283C31.1877 56.9082 35.6164 48.6227 42.1195 42.1195C48.6226 35.6164 56.9081 31.1877 65.9282 29.3935C74.9484 27.5992 84.298 28.5201 92.7949 32.0396C101.291 35.5591 108.554 41.519 113.663 49.1659C118.773 56.8128 121.5 65.8031 121.5 75C121.503 81.1073 120.302 87.1554 117.967 92.7989C115.631 98.4419 112.206 103.569 107.888 107.887C103.569 112.206 98.4419 115.631 92.7989 117.967C87.1555 120.303 81.1073 121.503 74.9999 121.5Z" fill="white"/>
<path d="M60.1201 47.5712L56.4745 75.3471C56.3737 76.0966 56.4222 76.8588 56.6173 77.5894C56.8124 78.3201 57.1503 79.0049 57.6114 79.6043C58.0724 80.2038 58.6477 80.706 59.3039 81.082C59.9601 81.4581 60.6842 81.7004 61.4346 81.7951C62.0734 81.9189 62.7301 81.9189 63.3689 81.7951L72.5201 79.7616L67.8081 100.544C67.4749 102.031 67.7445 103.588 68.5582 104.876C69.3717 106.163 70.6627 107.076 72.1481 107.413C72.5681 107.465 72.9929 107.465 73.413 107.413C74.4196 107.412 75.408 107.145 76.2788 106.64C77.1495 106.135 77.8718 105.41 78.3729 104.537L97.8906 70.5855C98.2677 69.9329 98.5131 69.2121 98.6109 68.4646C98.7097 67.7171 98.6588 66.9576 98.4632 66.2296C98.2677 65.5014 97.9295 64.8192 97.4695 64.2219C97.0096 63.6246 96.4369 63.124 95.7824 62.7488C94.666 62.1026 93.362 61.8575 92.0869 62.0544L81.0514 63.6911L85.5897 49.8528C86.0149 48.4253 85.8701 46.8886 85.1855 45.5659C84.501 44.243 83.3302 43.2373 81.9194 42.76C81.3291 42.5588 80.7074 42.4664 80.0841 42.4872H65.6257C64.2521 42.5372 62.9416 43.0773 61.9317 44.0099C60.9219 44.9425 60.2793 46.2058 60.1201 47.5712Z" fill="white"/>
</svg>
