<svg width="80" height="80" viewBox="0 0 80 80" fill="none" xmlns="http://www.w3.org/2000/svg">
<g opacity="0.9">
<path fill-rule="evenodd" clip-rule="evenodd" d="M62.0954 23.7263C63.3916 22.5165 63.4617 20.485 62.2519 19.1888C61.0421 17.8925 59.0105 17.8225 57.7143 19.0323L40.6421 34.9664L23.5699 19.0323C22.2736 17.8225 20.2421 17.8925 19.0323 19.1888C17.8225 20.485 17.8925 22.5165 19.1887 23.7263L35.9369 39.3579L19.1887 54.9895C17.8925 56.1993 17.8225 58.2308 19.0323 59.5271C20.2421 60.8233 22.2736 60.8934 23.5699 59.6835L40.6421 43.7495L57.7143 59.6835C59.0105 60.8934 61.0421 60.8233 62.2519 59.5271C63.4617 58.2308 63.3916 56.1993 62.0954 54.9895L45.3473 39.3579L62.0954 23.7263Z" fill="white"/>
</g>
</svg>
