<svg width="80" height="80" viewBox="0 0 80 80" fill="none" xmlns="http://www.w3.org/2000/svg">
<path fill-rule="evenodd" clip-rule="evenodd" d="M69.2913 8.43215C69.0927 8.13533 68.8424 7.87097 68.5477 7.65331L68.5286 7.63933C68.0356 7.28021 67.4339 7.06119 66.7822 7.04082C66.7218 7.0389 66.6612 7.03872 66.6006 7.04031C66.2812 7.04848 65.9737 7.10434 65.6849 7.20105L25.019 19.7136C23.7009 20.086 22.735 21.2976 22.735 22.7349V38.4305V58.5251C20.8881 57.7238 18.7438 57.2652 16.4566 57.2652C9.52187 57.2652 3.90015 61.4815 3.90015 66.6825C3.90015 71.8836 9.52187 76.0999 16.4566 76.0999C23.3719 76.0999 28.9816 71.9072 29.013 66.7263L29.0133 66.6825V40.7489L63.5432 30.1243V45.9687C61.6963 45.1673 59.552 44.7087 57.2648 44.7087C50.3301 44.7087 44.7083 48.925 44.7083 54.1261C44.7083 59.3271 50.3301 63.5434 57.2648 63.5434C64.18 63.5434 69.7896 59.3509 69.8212 54.17C69.8214 54.1554 69.8215 54.1408 69.8215 54.1261V25.9226C69.8217 25.9065 69.8218 25.8902 69.8218 25.874V10.1784C69.8218 9.54857 69.6328 8.9424 69.2913 8.43215ZM29.0133 25.0533L29.0133 25.0533V34.1802L29.0133 34.1802V25.0533Z" fill="white"/>
</svg>
