<svg width="80" height="80" viewBox="0 0 80 80" fill="none" xmlns="http://www.w3.org/2000/svg">
<path fill-rule="evenodd" clip-rule="evenodd" d="M7.03918 20.3805C7.03918 18.2134 8.79597 16.4566 10.9631 16.4566H70.6064C72.7735 16.4566 74.5303 18.2134 74.5303 20.3805C74.5303 22.5476 72.7735 24.3044 70.6064 24.3044H10.9631C8.79597 24.3044 7.03918 22.5476 7.03918 20.3805ZM7.03918 39.2152C7.03918 37.0481 8.79597 35.2913 10.9631 35.2913H70.6064C72.7735 35.2913 74.5303 37.0481 74.5303 39.2152C74.5303 41.3823 72.7735 43.1391 70.6064 43.1391H10.9631C8.79597 43.1391 7.03918 41.3823 7.03918 39.2152ZM10.9631 54.126C8.79597 54.126 7.03918 55.8828 7.03918 58.0499C7.03918 60.217 8.79597 61.9738 10.9631 61.9738H70.6064C72.7735 61.9738 74.5303 60.217 74.5303 58.0499C74.5303 55.8828 72.7735 54.126 70.6064 54.126H10.9631Z" fill="white"/>
</svg>
