<svg xmlns="http://www.w3.org/2000/svg" xmlns:xlink="http://www.w3.org/1999/xlink" width="284" height="284" viewBox="0 0 284 284"><defs><style>.a{clip-path:url(#b);}.b{fill:groupColor-01;}.c{fill:#fff;}</style><clipPath id="b"><rect width="284" height="284"/></clipPath></defs><g id="a" class="a"><g transform="translate(15 15)"><circle class="b" cx="127" cy="127" r="127" transform="translate(0 0)"/><path class="c" d="M1419.025,928.686l25.7-41.138a5.086,5.086,0,0,0-4.313-7.782h-13.6c.036-65.344-64.668-115.6-133.517-90.117a90.647,90.647,0,0,0-53.32,53.261c-25.565,68.821,24.626,133.584,89.967,133.619a96.818,96.818,0,0,0,64.544-24.608,5.034,5.034,0,0,0,.846-6.413l-7.549-12.093a5.1,5.1,0,0,0-7.861-.935c-33.459,31.7-90.782,25.855-115.431-20.912a67.67,67.67,0,0,1-3.315-55.616c19.777-51.615,80.343-63.056,117.061-30.47a72.552,72.552,0,0,1,24.394,54.282H1389.01a5.088,5.088,0,0,0-4.315,7.782l25.7,41.138A5.088,5.088,0,0,0,1419.025,928.686Z" transform="translate(-1202.059 -752.414)"/></g></g></svg>