<svg width="80" height="80" viewBox="0 0 80 80" fill="none" xmlns="http://www.w3.org/2000/svg">
<g opacity="0.9">
<path fill-rule="evenodd" clip-rule="evenodd" d="M32.1299 60.452C33.5221 61.7515 35.7042 61.6762 37.0036 60.284C38.303 58.8917 38.2278 56.7097 36.8355 55.4103L22.5415 42.0692L67.5861 42.0692C69.4906 42.0692 71.0344 40.5253 71.0344 38.6209C71.0344 36.7165 69.4906 35.1726 67.5862 35.1726L22.5413 35.1726L36.8355 21.8313C38.2278 20.5319 38.303 18.3499 37.0036 16.9576C35.7042 15.5654 33.5221 15.4902 32.1299 16.7896L11.4402 36.0999C10.7415 36.7521 10.3448 37.665 10.3448 38.6208C10.3448 39.5766 10.7415 40.4895 11.4402 41.1417L32.1299 60.452Z" fill="white"/>
</g>
</svg>
