<svg width="150" height="150" viewBox="0 0 150 150" fill="none" xmlns="http://www.w3.org/2000/svg">
<path d="M74.9924 22C64.5114 22 54.2607 25.1042 45.5536 30.9289C36.8464 36.7535 30.041 45.0343 26.0328 54.7136C22.0246 64.4015 20.9757 75.0531 23.0139 85.3379C25.0606 95.6142 30.1092 105.063 37.5201 112.474C44.931 119.885 54.3716 124.934 64.6564 126.98C74.9327 129.027 85.5928 127.978 95.2721 123.961C104.96 119.953 113.232 113.156 119.057 104.441C124.881 95.7251 127.986 85.4829 127.986 74.9934C127.986 60.9391 122.4 47.4563 112.465 37.5211C102.529 27.5859 89.0466 22 74.9924 22ZM74.9924 114.743C67.1296 114.743 59.4458 112.414 52.9133 108.048C46.3808 103.682 41.281 97.4733 38.2706 90.2074C35.2602 82.9415 34.4756 74.9507 36.0107 67.2414C37.5457 59.532 41.3322 52.4452 46.8925 46.8934C52.4528 41.3331 59.5311 37.5467 67.2404 36.0116C74.9498 34.4766 82.9406 35.2611 90.2064 38.2715C97.4723 41.2819 103.672 46.3732 108.047 52.9142C112.413 59.4467 114.742 67.139 114.742 74.9934C114.742 80.2125 113.718 85.3805 111.723 90.2074C109.727 95.0343 106.802 99.4177 103.109 103.102C99.4167 106.794 95.0333 109.72 90.2149 111.715C85.3881 113.711 80.2201 114.734 75.001 114.734L74.9924 114.743Z" fill="white"/>
<path d="M70.3532 71.9915L55.267 54.7563C52.9303 52.087 48.9307 53.9802 48.9307 57.7496V92.2286C48.9307 96.0065 52.9303 97.8997 55.267 95.2219L70.3532 77.9867C71.8029 76.3322 71.8029 73.6459 70.3532 71.9915Z" fill="white"/>
<path d="M70.5408 96.9275C69.6282 96.9275 68.7157 96.6205 67.9738 95.9809C66.3364 94.5823 66.1573 92.1347 67.573 90.5144L77.0136 79.4535C79.2138 76.878 79.1882 73.083 76.9624 70.5332C73.048 66.0559 67.573 59.8134 67.573 59.8134C66.0806 58.1078 66.362 55.4811 68.2467 54.1337C69.9267 52.9312 72.2805 53.3491 73.645 54.9012L86.838 69.9788C89.3793 72.8869 89.3793 77.4409 86.838 80.3489L73.5 95.5886C72.7239 96.4755 71.6323 96.9275 70.5322 96.9275H70.5408Z" fill="white"/>
<path d="M87.8613 96.9276C86.9488 96.9276 86.0362 96.6205 85.2942 95.9809C83.6568 94.5823 83.4777 92.1348 84.8934 90.5145L93.8565 80.0164C96.3296 77.1169 96.304 72.8443 93.7968 69.9789C89.9336 65.5614 84.8934 59.8134 84.8934 59.8134C83.3925 58.0993 83.6824 55.4641 85.5927 54.1167C87.2643 52.9398 89.5924 53.3406 90.9399 54.8842L104.158 69.9874C106.7 72.8955 106.7 77.4495 104.158 80.3575L90.8205 95.5972C90.0444 96.4841 88.9528 96.9361 87.8527 96.9361L87.8613 96.9276Z" fill="white"/>
</svg>
