<svg width="150" height="150" viewBox="0 0 150 150" fill="none" xmlns="http://www.w3.org/2000/svg">
<path d="M74.9999 22C64.5175 22 54.2705 25.1084 45.5548 30.9321C36.839 36.7558 30.0459 45.0332 26.0344 54.7177C22.023 64.4021 20.9734 75.0587 23.0184 85.3396C25.0634 95.6206 30.1112 105.064 37.5233 112.477C44.9355 119.888 54.3792 124.936 64.6602 126.982C74.9411 129.027 85.5976 127.977 95.282 123.965C104.966 119.954 113.244 113.161 119.068 104.445C124.891 95.7289 128 85.4823 128 74.9999C128 60.9435 122.416 47.4627 112.477 37.5233C102.537 27.5839 89.0561 22 74.9999 22ZM74.9999 114.75C67.1381 114.75 59.4529 112.419 52.9161 108.05C46.3792 103.683 41.2843 97.4748 38.2758 90.2117C35.2672 82.9482 34.48 74.9558 36.0138 67.2451C37.5476 59.5344 41.3334 52.4516 46.8925 46.8924C52.4516 41.3333 59.5343 37.5475 67.2451 36.0138C74.9558 34.48 82.9482 35.2672 90.2117 38.2758C97.4748 41.2844 103.683 46.3792 108.05 52.916C112.419 59.4528 114.75 67.1381 114.75 74.9999C114.752 80.2207 113.726 85.3909 111.73 90.2151C109.733 95.039 106.805 99.4219 103.114 103.113C99.4219 106.805 95.039 109.733 90.2151 111.73C85.3909 113.726 80.2207 114.752 74.9999 114.75Z" fill="white"/>
<path d="M62.2798 51.5527L59.1634 75.2967C59.0772 75.9373 59.1186 76.5888 59.2854 77.2134C59.4522 77.838 59.741 78.4235 60.1352 78.9359C60.5293 79.4484 61.0211 79.8776 61.5821 80.1991C62.143 80.5205 62.762 80.7277 63.4034 80.8086C63.9495 80.9144 64.5109 80.9144 65.057 80.8086L72.8798 79.0703L68.8518 96.8359C68.5669 98.1067 68.7974 99.438 69.4929 100.539C70.1884 101.639 71.292 102.42 72.5617 102.708C72.9208 102.752 73.284 102.752 73.643 102.708C74.5035 102.707 75.3484 102.479 76.0928 102.047C76.8371 101.615 77.4546 100.995 77.883 100.249L94.5674 71.2262C94.8898 70.6684 95.0996 70.0522 95.1831 69.4132C95.2676 68.7742 95.2241 68.1249 95.0569 67.5026C94.8897 66.8802 94.6006 66.297 94.2075 65.7864C93.8143 65.2758 93.3247 64.8479 92.7652 64.5271C91.8109 63.9747 90.6962 63.7652 89.6062 63.9335L80.1726 65.3327L84.0521 53.5032C84.4156 52.2829 84.2918 50.9693 83.7066 49.8385C83.1215 48.7077 82.1206 47.8479 80.9146 47.4399C80.41 47.268 79.8785 47.189 79.3457 47.2067H66.9862C65.8119 47.2495 64.6917 47.7112 63.8284 48.5084C62.9651 49.3057 62.4158 50.3856 62.2798 51.5527Z" fill="white"/>
</svg>
