<svg width="80" height="80" viewBox="0 0 80 80" fill="none" xmlns="http://www.w3.org/2000/svg">
<g opacity="0.9">
<path fill-rule="evenodd" clip-rule="evenodd" d="M11.0344 22.7586C11.0344 20.8542 12.5783 19.3103 14.4827 19.3103H66.8965C68.8009 19.3103 70.3448 20.8542 70.3448 22.7586C70.3448 24.6631 68.8009 26.2069 66.8965 26.2069H14.4827C12.5783 26.2069 11.0344 24.6631 11.0344 22.7586ZM11.0344 39.3103C11.0344 37.4059 12.5783 35.8621 14.4827 35.8621H66.8965C68.8009 35.8621 70.3448 37.4059 70.3448 39.3103C70.3448 41.2148 68.8009 42.7586 66.8965 42.7586H14.4827C12.5783 42.7586 11.0344 41.2148 11.0344 39.3103ZM14.4827 52.4138C12.5783 52.4138 11.0344 53.9576 11.0344 55.8621C11.0344 57.7665 12.5783 59.3103 14.4827 59.3103H66.8965C68.8009 59.3103 70.3448 57.7665 70.3448 55.8621C70.3448 53.9576 68.8009 52.4138 66.8965 52.4138H14.4827Z" fill="white"/>
</g>
</svg>
