<svg width="80" height="80" viewBox="0 0 80 80" fill="none" xmlns="http://www.w3.org/2000/svg">
<path fill-rule="evenodd" clip-rule="evenodd" d="M13.5265 41.2557C13.5265 25.9414 25.9411 13.5268 41.2554 13.5268C56.5696 13.5268 68.9843 25.9414 68.9843 41.2557C68.9843 56.5699 56.5696 68.9846 41.2554 68.9846C25.9411 68.9846 13.5265 56.5699 13.5265 41.2557ZM41.2554 7.4578C22.5893 7.4578 7.45752 22.5896 7.45752 41.2557C7.45752 59.9217 22.5893 75.0535 41.2554 75.0535C59.9214 75.0535 75.0532 59.9217 75.0532 41.2557C75.0532 22.5896 59.9214 7.4578 41.2554 7.4578ZM44.2902 25.6229C44.2902 23.947 42.9316 22.5884 41.2557 22.5884C39.5798 22.5884 38.2213 23.947 38.2213 25.6229V41.3185C38.2213 42.4678 38.8706 43.5186 39.8987 44.0326L52.4552 50.3108C53.9541 51.0603 55.7769 50.4527 56.5263 48.9538C57.2758 47.4548 56.6683 45.6321 55.1693 44.8826L44.2902 39.4431V25.6229Z" fill="white"/>
</svg>
