<svg xmlns="http://www.w3.org/2000/svg" xmlns:xlink="http://www.w3.org/1999/xlink" width="284" height="284" viewBox="0 0 284 284"><defs><style>.a{clip-path:url(#h);}.b{fill:#5ce600;}.c{fill:#fff;}.d{filter:url(#e);}.e{filter:url(#c);}.f{filter:url(#a);}</style><filter id="a" x="-2.5" y="7.5" width="289" height="289" filterUnits="userSpaceOnUse"><feOffset dy="10" input="SourceAlpha"/><feGaussianBlur stdDeviation="7.5" result="b"/><feFlood flood-opacity="0.2"/><feComposite operator="in" in2="b"/><feComposite in="SourceGraphic"/></filter><filter id="c" x="19.048" y="29.047" width="263.333" height="245.905" filterUnits="userSpaceOnUse"><feOffset dy="10" input="SourceAlpha"/><feGaussianBlur stdDeviation="10" result="d"/><feFlood flood-opacity="0.149"/><feComposite operator="in" in2="d"/><feComposite in="SourceGraphic"/></filter><filter id="e" x="80.523" y="73.663" width="123.08" height="122.977" filterUnits="userSpaceOnUse"><feOffset dy="10" input="SourceAlpha"/><feGaussianBlur stdDeviation="10" result="f"/><feFlood flood-opacity="0.149"/><feComposite operator="in" in2="f"/><feComposite in="SourceGraphic"/></filter><clipPath id="h"><rect width="284" height="284"/></clipPath></defs><g id="g" class="a"><g class="f" transform="matrix(1, 0, 0, 1, 0, 0)"><circle class="b" cx="122" cy="122" r="122" transform="translate(20 20)"/></g><g class="e" transform="matrix(1, 0, 0, 1, 0, 0)"><path class="c" d="M701.524,608.294H689.9A93,93,0,1,0,661.8,674.864l-12.7-20.319a69.7,69.7,0,1,1,17.569-46.25H649.238l29.048,46.476,29.047-46.476Z" transform="translate(-454.95 -466.29)"/></g><g class="d" transform="matrix(1, 0, 0, 1, 0, 0)"><path class="c" d="M192.4,643.11h23.519V615.06H192.4Zm31.54,0h23.519V615.06H223.937Zm18.473-47.775a10.772,10.772,0,0,0,1-4.522,10.573,10.573,0,0,0-6.508-9.8,11.669,11.669,0,0,0-4.512-.876,11.014,11.014,0,0,0-4.156.808,12.4,12.4,0,0,0-2.982,1.743,17.874,17.874,0,0,0-3.784,4.195,26.7,26.7,0,0,0-1.543,2.652,26.656,26.656,0,0,0-1.542-2.652,17.872,17.872,0,0,0-3.784-4.195,12.376,12.376,0,0,0-2.981-1.743,11.017,11.017,0,0,0-4.156-.808,11.67,11.67,0,0,0-4.512.876,10.572,10.572,0,0,0-6.507,9.8,10.764,10.764,0,0,0,1,4.522h-9.057v16.041h27.529V595.334H204.1a6.505,6.505,0,0,1-1.613-1.9,5.411,5.411,0,0,1-.682-2.625,5.346,5.346,0,0,1,.484-2.223,5.164,5.164,0,0,1,1.366-1.8,5.236,5.236,0,0,1,1.359-.827,6.3,6.3,0,0,1,2.444-.462,5.639,5.639,0,0,1,1.379.167,5.923,5.923,0,0,1,1.256.473,8.618,8.618,0,0,1,2.33,1.812,14.33,14.33,0,0,1,1.375,1.729,21.3,21.3,0,0,1,1.511,2.614,29.072,29.072,0,0,1,1.276,3.041h6.678a28.949,28.949,0,0,1,1.276-3.041,21.452,21.452,0,0,1,1.51-2.614,14.385,14.385,0,0,1,1.376-1.729,8.614,8.614,0,0,1,2.329-1.812,5.947,5.947,0,0,1,1.256-.473,5.653,5.653,0,0,1,1.379-.167,6.3,6.3,0,0,1,2.445.462,5.223,5.223,0,0,1,1.359.827,5.164,5.164,0,0,1,1.367,1.8,5.346,5.346,0,0,1,.484,2.223,5.418,5.418,0,0,1-.683,2.625,6.505,6.505,0,0,1-1.613,1.9H223.937v16.041h27.529V595.334Z" transform="translate(-77.86 -486.47)"/></g></g></svg>