<svg width="80" height="80" viewBox="0 0 80 80" fill="none" xmlns="http://www.w3.org/2000/svg">
<path fill-rule="evenodd" clip-rule="evenodd" d="M35.2366 13.301C41.5491 7.89037 51.3009 12.3756 51.3009 20.6896V59.3105C51.3009 67.6245 41.549 72.1097 35.2366 66.6991L25.3902 58.2593C24.8782 57.8204 24.226 57.5791 23.5516 57.5791H13.3176C7.94314 57.5791 3.5863 53.2223 3.5863 47.8478V32.1522C3.5863 26.7778 7.94314 22.421 13.3176 22.421H23.5516C24.226 22.421 24.8782 22.1797 25.3902 21.7408L35.2366 13.301ZM70.2485 18.4494C69.0412 17.2362 67.079 17.2315 65.8658 18.4388C64.6527 19.6461 64.6479 21.6083 65.8553 22.8215C70.4317 27.42 73.0008 33.6436 73.0008 40.1312C73.0008 46.6188 70.4317 52.8424 65.8553 57.4409C64.6479 58.654 64.6527 60.6162 65.8658 61.8236C67.079 63.0309 69.0412 63.0262 70.2485 61.813C75.9808 56.0531 79.1989 48.2575 79.1989 40.1312C79.1989 32.0049 75.9808 24.2093 70.2485 18.4494ZM61.7336 26.9228C60.5225 25.7133 58.5603 25.7147 57.3509 26.9257C56.1414 28.1368 56.1427 30.099 57.3538 31.3084C58.5171 32.4702 59.44 33.8499 60.0697 35.3686C60.6994 36.8874 61.0235 38.5153 61.0235 40.1594C61.0235 41.8035 60.6994 43.4315 60.0697 44.9502C59.44 46.469 58.5171 47.8487 57.3538 49.0105C56.1427 50.2199 56.1414 52.1821 57.3509 53.3932C58.5603 54.6042 60.5225 54.6055 61.7336 53.3961C63.4733 51.6587 64.8535 49.5953 65.7952 47.3241C66.7369 45.0528 67.2216 42.6182 67.2216 40.1594C67.2216 37.7007 66.7369 35.2661 65.7952 32.9948C64.8535 30.7235 63.4733 28.6602 61.7336 26.9228Z" fill="white"/>
</svg>
