<svg width="80" height="80" viewBox="0 0 80 80" fill="none" xmlns="http://www.w3.org/2000/svg">
<path fill-rule="evenodd" clip-rule="evenodd" d="M31.0445 63.273C32.6287 64.7516 35.1117 64.666 36.5904 63.0817C38.0691 61.4975 37.9834 59.0145 36.3992 57.5358L20.1335 42.3545L71.3915 42.3545C73.5586 42.3545 75.3154 40.5977 75.3154 38.4306C75.3154 36.2635 73.5586 34.5067 71.3915 34.5067L20.1333 34.5067L36.3992 19.3253C37.9834 17.8466 38.0691 15.3636 36.5904 13.7794C35.1117 12.1951 32.6287 12.1095 31.0445 13.5881L7.50106 35.562C6.70594 36.3041 6.25451 37.3429 6.25451 38.4305C6.25451 39.5182 6.70594 40.557 7.50106 41.2991L31.0445 63.273Z" fill="white"/>
</svg>
