<svg width="80" height="80" viewBox="0 0 80 80" fill="none" xmlns="http://www.w3.org/2000/svg">
<g opacity="0.9">
<path fill-rule="evenodd" clip-rule="evenodd" d="M17.1034 41.1035C17.1034 27.8486 27.8486 17.1035 41.1034 17.1035C54.3582 17.1035 65.1034 27.8486 65.1034 41.1035C65.1034 54.3583 54.3582 65.1035 41.1034 65.1035C27.8486 65.1035 17.1034 54.3583 17.1034 41.1035ZM41.1034 11.0345C24.4968 11.0345 11.0344 24.4968 11.0344 41.1035C11.0344 57.7101 24.4968 71.1724 41.1034 71.1724C57.71 71.1724 71.1724 57.7101 71.1724 41.1035C71.1724 24.4968 57.71 11.0345 41.1034 11.0345ZM44.138 27.3655C44.138 25.6896 42.7794 24.3311 41.1035 24.3311C39.4276 24.3311 38.069 25.6896 38.069 27.3655V41.1586C38.069 42.308 38.7184 43.3587 39.7465 43.8728L50.7809 49.39C52.2799 50.1395 54.1026 49.5319 54.8521 48.0329C55.6016 46.534 54.994 44.7112 53.4951 43.9618L44.138 39.2832V27.3655Z" fill="white"/>
</g>
</svg>
