<svg xmlns="http://www.w3.org/2000/svg" xmlns:xlink="http://www.w3.org/1999/xlink" width="68" height="68" viewBox="0 0 68 68"><defs><style>.a{clip-path:url(#b);}.b{fill:#92928f;}</style><clipPath id="b"><rect width="68" height="68"/></clipPath></defs><g id="a" class="a"><path class="b" d="M42,8A34,34,0,1,0,76,42,34.005,34.005,0,0,0,42,8Zm0,15.081a5.758,5.758,0,1,1-5.758,5.758A5.758,5.758,0,0,1,42,23.081ZM49.677,57.9a1.645,1.645,0,0,1-1.645,1.645H35.968A1.645,1.645,0,0,1,34.323,57.9v-3.29a1.645,1.645,0,0,1,1.645-1.645h1.645V44.194H35.968a1.645,1.645,0,0,1-1.645-1.645v-3.29a1.645,1.645,0,0,1,1.645-1.645h8.774a1.645,1.645,0,0,1,1.645,1.645v13.71h1.645a1.645,1.645,0,0,1,1.645,1.645Z" transform="translate(-8 -8)"/></g></svg>