<svg width="80" height="80" viewBox="0 0 80 80" fill="none" xmlns="http://www.w3.org/2000/svg">
<g opacity="0.9">
<path fill-rule="evenodd" clip-rule="evenodd" d="M13.0321 23.9477C13.0321 22.1746 14.4695 20.7372 16.2426 20.7372H65.0416C66.8147 20.7372 68.2521 22.1746 68.2521 23.9477C68.2521 25.7208 66.8147 27.1582 65.0416 27.1582H16.2426C14.4695 27.1582 13.0321 25.7208 13.0321 23.9477ZM13.0321 39.358C13.0321 37.5849 14.4695 36.1475 16.2426 36.1475H65.0416C66.8147 36.1475 68.2521 37.5849 68.2521 39.358C68.2521 41.131 66.8147 42.5684 65.0416 42.5684H16.2426C14.4695 42.5684 13.0321 41.131 13.0321 39.358ZM16.2426 51.5577C14.4695 51.5577 13.0321 52.9951 13.0321 54.7682C13.0321 56.5413 14.4695 57.9787 16.2426 57.9787H65.0416C66.8147 57.9787 68.2521 56.5413 68.2521 54.7682C68.2521 52.9951 66.8147 51.5577 65.0416 51.5577H16.2426Z" fill="white"/>
</g>
</svg>
