<svg xmlns="http://www.w3.org/2000/svg" width="80" height="80">

<defs>
<style>.white_90{fill:#fff;opacity:0.9;}.white_42{fill:#fff;opacity:0.42;}</style>

<filter id="dropshadow" x="-10" y="-10" width="90" height="90" filterUnits="userSpaceOnUse">
      <feOffset dy="5" input="SourceAlpha"/>
      <feGaussianBlur stdDeviation="5" result="blur"/>
      <feFlood flood-opacity="0.4"/>
      <feComposite operator="in" in2="blur"/>
      <feComposite in="SourceGraphic"/>
</filter>
    
</defs>

<path class="white_42" filter="url(#dropshadow)" d="M26.75,16.34a10.41,10.41,0,1,0,10.4,10.41A10.42,10.42,0,0,0,26.75,16.34Zm0,15.81a5.41,5.41,0,1,1,5.4-5.4A5.41,5.41,0,0,1,26.75,32.15Zm24.33-13H47.54q-.32-.86-.69-1.68l2.5-2.5a2.51,2.51,0,0,0,0-3.54L42.12,4.23a2.57,2.57,0,0,0-3.54,0L36.11,6.7C35.55,6.44,35,6.2,34.4,6V2.5A2.5,2.5,0,0,0,31.9,0H21.67a2.5,2.5,0,0,0-2.5,2.5V6c-.58.21-1.16.45-1.73.72L15,4.23a2.51,2.51,0,0,0-3.54,0L4.23,11.46a2.51,2.51,0,0,0,0,3.54l2.45,2.44A18.75,18.75,0,0,0,6,19.18H2.5A2.5,2.5,0,0,0,0,21.68V31.9a2.5,2.5,0,0,0,2.5,2.5H6c.21.58.45,1.15.71,1.71L4.23,38.58a2.51,2.51,0,0,0,0,3.54l7.23,7.23a2.52,2.52,0,0,0,3.54,0l2.5-2.5c.55.25,1.11.48,1.67.69v3.54a2.5,2.5,0,0,0,2.5,2.5H31.9a2.5,2.5,0,0,0,2.5-2.5V47.51c.56-.21,1.11-.44,1.66-.69l2.52,2.53a2.52,2.52,0,0,0,3.54,0l7.23-7.23a2.51,2.51,0,0,0,0-3.54l-2.53-2.52c.25-.55.48-1.1.69-1.66h3.57a2.5,2.5,0,0,0,2.5-2.5V21.68A2.5,2.5,0,0,0,51.08,19.18ZM48.58,29.4H45.69a2.52,2.52,0,0,0-2.42,1.84,16.66,16.66,0,0,1-1.68,4,2.51,2.51,0,0,0,.4,3l2,2.05L40.35,44,38.3,42a2.51,2.51,0,0,0-3-.4,16.66,16.66,0,0,1-4,1.68,2.52,2.52,0,0,0-1.84,2.42v2.89H24.17V45.71a2.5,2.5,0,0,0-1.85-2.42,17.11,17.11,0,0,1-4.06-1.67,2.51,2.51,0,0,0-3,.4l-2,2L9.54,40.35l2-2a2.48,2.48,0,0,0,.4-3,16.94,16.94,0,0,1-1.7-4.08A2.51,2.51,0,0,0,7.81,29.4H5V24.18H7.79a2.51,2.51,0,0,0,2.42-1.86,17,17,0,0,1,1.69-4.1,2.5,2.5,0,0,0-.39-3l-2-2,3.69-3.69,2,2a2.5,2.5,0,0,0,3,.4,16.72,16.72,0,0,1,4.1-1.69,2.51,2.51,0,0,0,1.85-2.42V5H29.4V7.81a2.5,2.5,0,0,0,1.84,2.41,17.28,17.28,0,0,1,4.09,1.71,2.5,2.5,0,0,0,3-.39l2-2L44,13.23l-2,2a2.5,2.5,0,0,0-.4,3,17.11,17.11,0,0,1,1.67,4.06,2.49,2.49,0,0,0,2.42,1.86h2.87Z" transform="translate(13 13)" />

</svg>