<svg width="61" height="61" viewBox="0 0 61 61" fill="none" xmlns="http://www.w3.org/2000/svg">
<path d="M45.7851 44.9701C40.318 44.9701 35.9928 42.4442 30.837 36.1812C25.7159 42.4096 21.4599 44.9009 15.9582 44.9009C7.20383 44.9009 0.90625 38.7417 0.90625 30.1604C0.90625 21.5445 7.34224 15.1777 16.0274 15.1777C21.5983 15.1777 26.0966 17.7729 31.0101 23.9667C35.8543 17.8075 40.2488 15.2469 45.8889 15.2469C54.6087 15.2469 60.9062 21.4061 60.9062 29.9528C60.9062 38.6033 54.4703 44.9701 45.7851 44.9701ZM16.581 23.3784C12.7056 23.3784 9.72978 26.285 9.72978 30.0566C9.72978 33.8283 12.7402 36.7348 16.6156 36.7348C19.7644 36.7348 22.4287 34.8317 26.0966 30.0566C22.2211 25.1777 19.6606 23.3784 16.581 23.3784ZM52.1173 30.022C52.1173 26.2504 49.1415 23.3784 45.2661 23.3784C42.0481 23.3784 39.28 25.3161 35.7159 30.0912C39.7298 35.0047 42.1865 36.7002 45.1969 36.7002C49.0723 36.7002 52.1173 33.7937 52.1173 30.022Z" fill="white"/>
</svg>
