<svg xmlns="http://www.w3.org/2000/svg" xmlns:xlink="http://www.w3.org/1999/xlink" width="284" height="284" viewBox="0 0 284 284"><defs><style>.a{clip-path:url(#h);}.b{fill:#4dc100;}.c{fill:#fff;}.d{filter:url(#e);}.e{filter:url(#c);}.f{filter:url(#a);}</style><filter id="a" x="2.5" y="12.5" width="279" height="279" filterUnits="userSpaceOnUse"><feOffset dy="10" input="SourceAlpha"/><feGaussianBlur stdDeviation="7.5" result="b"/><feFlood flood-opacity="0.2"/><feComposite operator="in" in2="b"/><feComposite in="SourceGraphic"/></filter><filter id="c" x="22.857" y="32.857" width="255" height="238.286" filterUnits="userSpaceOnUse"><feOffset dy="10" input="SourceAlpha"/><feGaussianBlur stdDeviation="10" result="d"/><feFlood flood-opacity="0.149"/><feComposite operator="in" in2="d"/><feComposite in="SourceGraphic"/></filter><filter id="e" x="81.813" y="75.644" width="120.495" height="120.396" filterUnits="userSpaceOnUse"><feOffset dy="10" input="SourceAlpha"/><feGaussianBlur stdDeviation="10" result="f"/><feFlood flood-opacity="0.149"/><feComposite operator="in" in2="f"/><feComposite in="SourceGraphic"/></filter><clipPath id="h"><rect width="284" height="284"/></clipPath></defs><g id="g" class="a"><g class="f" transform="matrix(1, 0, 0, 1, 0, 0)"><circle class="b" cx="117" cy="117" r="117" transform="translate(25 25)"/></g><g class="e" transform="matrix(1, 0, 0, 1, 0, 0)"><path class="c" d="M693.429,604.485H682.286a89.193,89.193,0,1,0-26.957,63.841L643.151,648.84A66.843,66.843,0,1,1,660,604.485H643.286l27.857,44.571L699,604.485Z" transform="translate(-451.14 -462.49)"/></g><g class="d" transform="matrix(1, 0, 0, 1, 0, 0)"><path class="c" d="M192.233,640.529h22.555v-26.9H192.233Zm30.248,0h22.555v-26.9H222.48ZM240.2,594.711a10.331,10.331,0,0,0,.96-4.336,10.14,10.14,0,0,0-6.241-9.4,11.191,11.191,0,0,0-4.327-.841,10.562,10.562,0,0,0-3.985.775,11.893,11.893,0,0,0-2.86,1.671,17.142,17.142,0,0,0-3.629,4.023,25.6,25.6,0,0,0-1.48,2.543,25.564,25.564,0,0,0-1.479-2.543,17.141,17.141,0,0,0-3.629-4.023,11.87,11.87,0,0,0-2.859-1.671,10.565,10.565,0,0,0-3.986-.775,11.191,11.191,0,0,0-4.327.841,10.138,10.138,0,0,0-6.241,9.4,10.323,10.323,0,0,0,.96,4.336h-8.686v15.384h26.4V594.711H203.46a6.239,6.239,0,0,1-1.547-1.819,5.189,5.189,0,0,1-.654-2.518,5.127,5.127,0,0,1,.464-2.132,4.953,4.953,0,0,1,1.31-1.729,5.022,5.022,0,0,1,1.3-.793,6.038,6.038,0,0,1,2.344-.443,5.409,5.409,0,0,1,1.322.16,5.679,5.679,0,0,1,1.2.454,8.265,8.265,0,0,1,2.234,1.738,13.742,13.742,0,0,1,1.319,1.658,20.427,20.427,0,0,1,1.449,2.507,27.886,27.886,0,0,1,1.224,2.916h6.4a27.768,27.768,0,0,1,1.224-2.916,20.577,20.577,0,0,1,1.448-2.507,13.8,13.8,0,0,1,1.32-1.658,8.262,8.262,0,0,1,2.233-1.738,5.7,5.7,0,0,1,1.2-.454,5.422,5.422,0,0,1,1.322-.16,6.039,6.039,0,0,1,2.344.443,5.009,5.009,0,0,1,1.3.793,4.953,4.953,0,0,1,1.311,1.729,5.127,5.127,0,0,1,.464,2.132,5.2,5.2,0,0,1-.655,2.518,6.239,6.239,0,0,1-1.547,1.819H222.48v15.384h26.4V594.711Z" transform="translate(-76.57 -484.49)"/></g></g></svg>