<svg width="80" height="80" viewBox="0 0 80 80" fill="none" xmlns="http://www.w3.org/2000/svg">
<path d="M37.0427 76C35.4427 76 33.9427 75.6571 32.5427 74.9714C31.1427 74.2857 29.957 73.3143 28.9855 72.0571L10.2998 48.3143L11.9284 46.6C13.0712 45.4 14.4427 44.6857 16.0427 44.4571C17.6427 44.2286 19.1284 44.5429 20.4998 45.4L26.8427 49.2571V21.1429C26.8427 20.1714 27.1712 19.3571 27.8284 18.7C28.4855 18.0429 29.2998 17.7143 30.2712 17.7143C31.2427 17.7143 32.0712 18.0429 32.757 18.7C33.4427 19.3571 33.7855 20.1714 33.7855 21.1429V38.2857H59.4141C62.2713 38.2857 64.6998 39.2857 66.6998 41.2857C68.6998 43.2857 69.6998 45.7143 69.6998 48.5714V62.2857C69.6998 66.0571 68.357 69.2857 65.6713 71.9714C62.9855 74.6571 59.757 76 55.9855 76H37.0427ZM15.4427 29.7143C14.6998 28.4571 14.1284 27.1 13.7284 25.6429C13.3284 24.1857 13.1284 22.6857 13.1284 21.1429C13.1284 16.4 14.7998 12.3571 18.1427 9.01429C21.4855 5.67143 25.5284 4 30.2712 4C35.0141 4 39.057 5.67143 42.3998 9.01429C45.7427 12.3571 47.4141 16.4 47.4141 21.1429C47.4141 22.6857 47.2141 24.1857 46.8141 25.6429C46.4141 27.1 45.8427 28.4571 45.0998 29.7143L39.1855 26.2857C39.6427 25.4857 39.9855 24.6714 40.2141 23.8429C40.4427 23.0143 40.557 22.1143 40.557 21.1429C40.557 18.2857 39.557 15.8571 37.557 13.8571C35.557 11.8571 33.1284 10.8571 30.2712 10.8571C27.4141 10.8571 24.9855 11.8571 22.9855 13.8571C20.9855 15.8571 19.9855 18.2857 19.9855 21.1429C19.9855 22.1143 20.0998 23.0143 20.3284 23.8429C20.557 24.6714 20.8998 25.4857 21.357 26.2857L15.4427 29.7143Z" fill="white"/>
</svg>
