<svg width="150" height="150" viewBox="0 0 150 150" fill="none" xmlns="http://www.w3.org/2000/svg">
<path d="M139.466 74.9861C138.808 74.9861 138.177 74.7247 137.711 74.2593C137.246 73.7939 136.985 73.1628 136.985 72.5046C136.52 60.687 132.689 49.2484 125.939 39.5365C119.191 29.8245 109.807 22.2439 98.893 17.688C87.9788 13.1321 75.9902 11.7907 64.3393 13.8219C52.6884 15.853 41.8608 21.1721 33.1324 29.1523C32.7144 29.5469 32.4462 30.0743 32.3738 30.6445C32.3014 31.2148 32.4292 31.7925 32.7354 32.279L38.443 41.4359C38.7901 41.9759 39.3332 42.3602 39.9578 42.5083C40.5826 42.6564 41.2404 42.5566 41.793 42.2299C41.9439 42.1365 42.0852 42.0285 42.2149 41.9074C48.5873 35.5671 56.6598 31.2085 65.4567 29.3585C74.2535 27.5086 83.3979 28.2463 91.7839 31.4828C100.171 34.7192 107.44 40.3157 112.714 47.5956C117.987 54.8755 121.039 63.5272 121.499 72.5046C121.499 73.1628 121.239 73.7939 120.773 74.2593C120.307 74.7247 119.677 74.9861 119.018 74.9861H114.377C113.72 74.9861 113.088 75.2475 112.623 75.7129C112.158 76.1783 111.896 76.8095 111.896 77.4676C111.899 77.9238 112.028 78.3703 112.269 78.758L127.158 102.705C127.509 103.254 128.063 103.643 128.7 103.786C129.336 103.93 130.004 103.818 130.557 103.474C130.867 103.278 131.13 103.015 131.327 102.705L146.215 78.758C146.438 78.395 146.563 77.9808 146.58 77.5551C146.596 77.1296 146.502 76.707 146.307 76.3282C146.114 75.9493 145.825 75.6268 145.47 75.3917C145.114 75.1567 144.705 75.017 144.28 74.9861H139.466ZM74.9462 121.515C62.6212 121.495 50.8082 116.584 42.1024 107.859C33.3966 99.1346 28.5102 87.3111 28.5168 74.9861H35.614C36.2722 74.9861 36.9033 74.7247 37.3687 74.2593C37.8341 73.7939 38.0955 73.1628 38.0955 72.5046C38.0924 72.0484 37.9636 71.6019 37.7233 71.2142L22.8341 47.2675C22.4826 46.7248 21.9332 46.3409 21.303 46.1972C20.6727 46.0536 20.0111 46.1615 19.4592 46.4982C19.1425 46.6949 18.8717 46.9572 18.6652 47.2675L3.776 71.2142C3.44163 71.769 3.33751 72.4327 3.4859 73.0633C3.6343 73.6939 4.02333 74.2415 4.57006 74.5891C4.944 74.8424 5.384 74.9804 5.83569 74.9861H10.625C11.2831 74.9861 11.9143 75.2475 12.3797 75.7129C12.8451 76.1783 13.1065 76.8095 13.1065 77.4676C13.565 89.2824 17.3898 100.72 24.1307 110.433C30.8715 120.146 40.2475 127.731 51.1547 132.294C62.0618 136.857 74.0457 138.208 85.6951 136.188C97.3441 134.169 108.175 128.862 116.909 120.895C117.327 120.5 117.595 119.972 117.667 119.402C117.74 118.832 117.612 118.254 117.306 117.768L111.598 108.611C111.252 108.07 110.708 107.687 110.083 107.538C109.459 107.39 108.801 107.49 108.249 107.817C108.098 107.911 107.956 108.019 107.827 108.139C99.1238 116.774 87.3548 121.61 75.0951 121.589L74.9462 121.515Z" fill="white"/>
<path d="M88.863 55.1282H61.1297C58.0671 55.1282 55.5842 57.611 55.5842 60.6737V88.407C55.5842 91.4689 58.0671 93.9522 61.1297 93.9522H88.863C91.9249 93.9522 94.4082 91.4689 94.4082 88.407V60.6737C94.4082 57.611 91.9249 55.1282 88.863 55.1282Z" fill="white"/>
</svg>
