<svg xmlns="http://www.w3.org/2000/svg" xmlns:xlink="http://www.w3.org/1999/xlink" width="404" height="183" viewBox="0 0 404 183">
  <defs>
    <filter id="Rectangle_93" x="0" y="0" width="404" height="183" filterUnits="userSpaceOnUse">
      <feOffset dy="10" input="SourceAlpha"/>
      <feGaussianBlur stdDeviation="10" result="blur"/>
      <feFlood flood-opacity="0.302"/>
      <feComposite operator="in" in2="blur"/>
      <feComposite in="SourceGraphic"/>
    </filter>
  </defs>
  <g id="set_loss_limit_button" transform="translate(-2867 -3795)">
    <g id="Group_135" data-name="Group 135" transform="translate(2897 3815)">
      <g transform="matrix(1, 0, 0, 1, -30, -20)" filter="url(#Rectangle_93)">
        <rect id="Rectangle_93-2" data-name="Rectangle 93" width="344" height="123" rx="24" transform="translate(374 143) rotate(180)" fill="#4dc100"/>
      </g>
      <path id="Path_94" data-name="Path 94" d="M282.6,20.321a3.546,3.546,0,0,1-4.954,0L261.772,4.006a3.352,3.352,0,0,1-1.009-2.475,3.352,3.352,0,0,1,1.009-2.475l2.475-2.48a3.385,3.385,0,0,1,2.48-1,3.382,3.382,0,0,1,2.475,1L280.342,7.723,304.89-16.825a3.366,3.366,0,0,1,2.475-1,3.367,3.367,0,0,1,2.475,1l2.479,2.48a3.366,3.366,0,0,1,1,2.475,3.366,3.366,0,0,1-1,2.475Z" transform="translate(-217.606 59.649)" fill="#fff"/>
    </g>
  </g>
</svg>
