<?xml version="1.0" encoding="utf-8"?>
<!-- Generator: Adobe Illustrator 26.0.3, SVG Export Plug-In . SVG Version: 6.00 Build 0)  -->
<svg version="1.1" id="Layer_1" xmlns="http://www.w3.org/2000/svg" xmlns:xlink="http://www.w3.org/1999/xlink" x="0px" y="0px"
	 width="168.1" height="33" viewBox="0 0 168.1 33" style="enable-background:new 0 0 168.1 33;" xml:space="preserve">
<style type="text/css">
	.st0{fill:#FF002A;}
	.st1{fill:#FFFFFF;}
</style>
<g opacity="0.42">
	<path class="st0" d="M4.7,30.6V6.2l20.7,10.3l-11.7,5.9v-5.9c0-1.3-1.1-2.4-2.4-2.4S9,15.2,9,16.5v9.7c0,0.8,0.4,1.6,1.1,2
		c0.7,0.4,1.6,0.5,2.3,0.1l19.3-9.7c0.8-0.4,1.3-1.2,1.3-2.1c0-0.9-0.5-1.7-1.3-2.1L3.4,0.2C2.7-0.1,1.8-0.1,1.1,0.4
		C0.4,0.8,0,1.5,0,2.4v28.3C0,31.9,1.1,33,2.4,33S4.7,31.9,4.7,30.6z"/>
	<g>
		<path class="st1" d="M58,11.4c-0.3-0.6-0.7-1.2-1.3-1.5c-0.3-0.2-0.6-0.3-0.9-0.4c-0.3-0.1-0.7-0.2-1-0.2h-9.6
			c-0.4,0-0.8,0.2-1,0.4c-0.3,0.3-0.4,0.6-0.4,1v11.6c0,0.8,0.7,1.5,1.5,1.5c0.8,0,1.5-0.7,1.5-1.5v-3.4l8.2,0
			c0.5,0,0.9-0.1,1.4-0.3c0.6-0.3,1.2-0.7,1.5-1.3c0.2-0.3,0.3-0.6,0.4-0.9c0.1-0.3,0.2-0.7,0.2-1v-2.7C58.2,12.2,58.1,11.8,58,11.4
			z M55.3,15.4c0,0.1,0,0.2,0,0.2c0,0.1-0.1,0.2-0.2,0.3c0,0-0.1,0.1-0.2,0.1c-0.1,0-0.1,0-0.2,0h-8.2v-3.9h8.2c0.1,0,0.2,0,0.2,0
			c0.1,0,0.2,0.1,0.3,0.2c0,0,0.1,0.1,0.1,0.2c0,0.1,0,0.1,0,0.2V15.4z"/>
		<path class="st1" d="M127.6,15.6c-0.3-0.2-0.6-0.3-0.9-0.4c-0.3-0.1-0.7-0.2-1-0.2h-8.5c-0.1,0-0.2,0-0.2,0
			c-0.1,0-0.2-0.1-0.3-0.2c0,0-0.1-0.1-0.1-0.2c0-0.1,0-0.1,0-0.2v-1.7c0-0.1,0-0.2,0-0.2c0-0.1,0.1-0.2,0.2-0.3
			c0,0,0.1-0.1,0.2-0.1c0.1,0,0.1,0,0.2,0h10.1c0.8,0,1.5-0.7,1.5-1.5c0-0.8-0.7-1.5-1.5-1.5l-10.1,0c-0.5,0-0.9,0.1-1.4,0.3
			c-0.6,0.3-1.2,0.7-1.5,1.3c-0.2,0.3-0.3,0.6-0.4,0.9c-0.1,0.3-0.2,0.7-0.2,1v1.7c0,0.5,0.1,0.9,0.3,1.4c0.3,0.6,0.7,1.2,1.3,1.5
			c0.3,0.2,0.6,0.3,0.9,0.4c0.3,0.1,0.7,0.2,1,0.2h8.5c0.1,0,0.2,0,0.2,0c0.1,0,0.2,0.1,0.3,0.2c0,0,0.1,0.1,0.1,0.2
			c0,0.1,0,0.1,0,0.2v1.7c0,0.1,0,0.2,0,0.2c0,0.1-0.1,0.2-0.2,0.3c0,0-0.1,0.1-0.2,0.1c-0.1,0-0.1,0-0.2,0h-10.1
			c-0.8,0-1.5,0.7-1.5,1.5c0,0.8,0.7,1.5,1.5,1.5v0h10.1c0.5,0,0.9-0.1,1.4-0.3c0.6-0.3,1.2-0.7,1.5-1.3c0.2-0.3,0.3-0.6,0.4-0.9
			c0.1-0.3,0.2-0.7,0.2-1v-1.7c0-0.5-0.1-0.9-0.3-1.4C128.6,16.5,128.2,16,127.6,15.6z"/>
		<path class="st1" d="M110.1,9.6c-0.6-0.5-1.5-0.5-2.1,0.1v0l-5.7,6.5l-5.7-6.5c-0.5-0.6-1.4-0.7-2.1-0.1C94,10.1,94,11,94.5,11.6
			l6.4,7.4v3.3c0,0.8,0.7,1.5,1.5,1.5c0.8,0,1.5-0.7,1.5-1.5V19l6.4-7.4C110.8,11,110.8,10.1,110.1,9.6z"/>
		<path class="st1" d="M148.3,11.4c-0.3-0.6-0.7-1.2-1.3-1.5c-0.3-0.2-0.6-0.3-0.9-0.4c-0.3-0.1-0.7-0.2-1-0.2h-8.5
			c-0.5,0-0.9,0.1-1.4,0.3c-0.6,0.3-1.2,0.7-1.5,1.3c-0.2,0.3-0.3,0.6-0.4,0.9c-0.1,0.3-0.2,0.7-0.2,1v7.6c0,0.5,0.1,0.9,0.3,1.4
			c0.3,0.6,0.7,1.2,1.3,1.5c0.3,0.2,0.6,0.3,0.9,0.4c0.3,0.1,0.7,0.2,1,0.2h8.5c0.5,0,0.9-0.1,1.4-0.3c0.6-0.3,1.2-0.7,1.5-1.3
			c0.2-0.3,0.3-0.6,0.4-0.9c0.1-0.3,0.2-0.7,0.2-1v-7.6C148.6,12.2,148.5,11.8,148.3,11.4z M145.6,20.3c0,0.1,0,0.2,0,0.2
			c0,0.1-0.1,0.2-0.2,0.3c0,0-0.1,0.1-0.2,0.1c-0.1,0-0.1,0-0.2,0h-8.5c-0.1,0-0.2,0-0.2,0c-0.1,0-0.2-0.1-0.3-0.2
			c0,0-0.1-0.1-0.1-0.2c0-0.1,0-0.1,0-0.2v-7.6c0-0.1,0-0.2,0-0.2c0-0.1,0.1-0.2,0.2-0.3c0,0,0.1-0.1,0.2-0.1c0.1,0,0.1,0,0.2,0h8.5
			c0.1,0,0.2,0,0.2,0c0.1,0,0.2,0.1,0.3,0.2c0,0,0.1,0.1,0.1,0.2c0,0.1,0,0.1,0,0.2V20.3z"/>
		<path class="st1" d="M166.7,9.2c-0.8,0-1.5,0.7-1.5,1.5V19L155,9.6c-0.4-0.4-1-0.5-1.6-0.3c-0.5,0.2-0.9,0.8-0.9,1.3v11.6
			c0,0.8,0.7,1.5,1.5,1.5s1.5-0.7,1.5-1.5V14l10.2,9.4c0.4,0.4,1,0.5,1.6,0.3c0.5-0.2,0.9-0.8,0.9-1.3V10.7
			C168.1,9.9,167.5,9.2,166.7,9.2z"/>
		<path class="st1" d="M73.7,20.9L73.7,20.9l-8.7,0V10.7c0-0.8-0.7-1.5-1.5-1.5c-0.8,0-1.5,0.7-1.5,1.5v11.6c0,0.4,0.2,0.8,0.4,1
			c0.3,0.3,0.6,0.4,1,0.4h10.2c0.8,0,1.5-0.7,1.5-1.5C75.1,21.5,74.5,20.9,73.7,20.9z"/>
		<g>
			<path class="st1" d="M93.5,23.8c-0.5,0-1-0.3-1.3-0.7l-5.5-9.5l-5.5,9.5c-0.4,0.7-1.3,0.9-2,0.5c-0.7-0.4-0.9-1.3-0.5-2l6.8-11.6
				c0.3-0.4,0.7-0.7,1.3-0.7s1,0.3,1.3,0.7l6.8,11.6c0.4,0.7,0.2,1.6-0.5,2C94,23.7,93.7,23.8,93.5,23.8z"/>
		</g>
	</g>
</g>
</svg>
