<svg id="bottomPanel-logo" viewBox="0 0 104 28" fill="none" xmlns="http://www.w3.org/2000/svg">
    <path fill-rule="evenodd" clip-rule="evenodd"
          d="M91.1592 5.0744C90.5394 5.0744 89.9945 5.30143 89.5557 5.74024C89.1169 6.17904 88.8899 6.72389 88.8899 7.34373V14.2965C88.8899 16.2668 89.5946 17.9654 90.9899 19.3608C91.333 19.7038 91.6941 20.0052 92.0728 20.2646C91.591 20.1671 91.1124 20.2305 90.6572 20.4575C90.0974 20.7314 89.7071 21.1761 89.5128 21.7666C89.3071 22.3484 89.3457 22.9357 89.6174 23.4935C90.1702 24.6328 90.9743 25.5617 92.023 26.2724C93.23 27.0958 94.5735 27.5094 96.0386 27.5094H96.0854C98.0554 27.5094 99.7494 26.8049 101.135 25.4086C102.529 24.0141 103.234 22.3212 103.234 20.3606V7.34373C103.234 6.72389 103.007 6.17904 102.568 5.74024C102.129 5.30143 101.585 5.0744 100.965 5.0744C100.345 5.0744 99.8001 5.30143 99.3613 5.74024C98.9225 6.17904 98.6954 6.72389 98.6954 7.34373V14.2965C98.6954 15.0289 98.4435 15.6373 97.9271 16.1537L97.9237 16.1572C97.4189 16.6705 96.8176 16.9221 96.0854 16.9221H96.0386C95.3185 16.9221 94.7148 16.6716 94.1969 16.1538C93.6805 15.6373 93.4286 15.0289 93.4286 14.2965V7.34373C93.4286 6.72389 93.2015 6.17904 92.7627 5.74024C92.3239 5.30143 91.7791 5.0744 91.1592 5.0744ZM93.6957 21.4931C93.5909 21.2835 93.4617 21.0978 93.3097 20.937C94.1503 21.2855 95.0612 21.4608 96.0386 21.4608H96.0854C96.971 21.4608 97.8182 21.3051 98.6235 20.9946C98.5155 21.445 98.2852 21.8442 97.9271 22.2023L97.9237 22.2057C97.4189 22.7191 96.8176 22.9707 96.0854 22.9707H96.0386C95.4968 22.9707 95.0173 22.8224 94.5841 22.5251L94.5801 22.5224C94.1852 22.2563 93.896 21.9194 93.7019 21.5058L93.6989 21.4994L93.6957 21.4931Z"
          fill="white"/>
    <path
            d="M80.133 5.43915C81.0908 5.54557 81.9848 5.82227 82.8149 6.26924C83.6662 6.71621 84.3899 7.29089 84.9859 7.99327C85.6031 8.67437 86.082 9.46189 86.4226 10.3558C86.7844 11.2285 86.9653 12.1544 86.9653 13.1334V18.7844C86.9653 19.3591 86.7525 19.8486 86.3268 20.2531C85.9011 20.6575 85.4222 20.8597 84.8901 20.8597C84.1451 20.8597 83.5492 20.5191 83.1022 19.838C82.9958 19.8806 82.9 19.9338 82.8149 19.9976C82.7297 20.0402 82.6446 20.0828 82.5595 20.1253C82.0486 20.3595 81.5272 20.5404 80.9951 20.6681C80.4417 20.7958 79.8563 20.8597 79.2391 20.8597C77.6428 20.8597 76.2167 20.434 74.9609 19.5826C73.7052 18.7099 72.7687 17.5925 72.1514 16.2303C71.9386 15.7408 71.7683 15.2406 71.6406 14.7298C71.5342 14.2189 71.481 13.6868 71.481 13.1334C71.481 12.58 71.5342 12.0479 71.6406 11.5371C71.7683 11.0263 71.9386 10.5261 72.1514 10.0366C72.7687 8.65309 73.7052 7.53566 74.9609 6.68429C76.2167 5.83291 77.6428 5.40723 79.2391 5.40723C79.4094 5.40723 79.5584 5.40723 79.6861 5.40723C79.8351 5.40723 79.984 5.41787 80.133 5.43915ZM79.2072 16.7092C79.6967 16.7092 80.1543 16.6241 80.58 16.4538C81.027 16.2622 81.4101 16.0068 81.7294 15.6876C82.0486 15.3683 82.304 14.9958 82.4956 14.5701C82.6872 14.1232 82.7829 13.6443 82.7829 13.1334C82.7829 12.6652 82.6872 12.2182 82.4956 11.7925C82.304 11.3456 82.038 10.9624 81.6974 10.6432C81.3782 10.3026 80.9951 10.0366 80.5481 9.84501C80.1224 9.65345 79.6754 9.55767 79.2072 9.55767C78.7389 9.55767 78.2919 9.65345 77.8663 9.84501C77.4406 10.0366 77.0575 10.3026 76.7169 10.6432C76.3976 10.9624 76.1422 11.3456 75.9507 11.7925C75.7591 12.2182 75.6633 12.6652 75.6633 13.1334C75.6633 13.623 75.7591 14.0912 75.9507 14.5382C76.1635 14.9639 76.4296 15.3364 76.7488 15.6556C77.0894 15.9749 77.4725 16.2303 77.8982 16.4219C78.3239 16.6134 78.7602 16.7092 79.2072 16.7092Z"
            fill="white"/>
    <path
            d="M64.708 0.554321C65.2827 0.554321 65.7616 0.756523 66.1447 1.16093C66.5491 1.56533 66.7726 2.06551 66.8151 2.66147V15.2724C66.8151 15.6981 66.9535 16.06 67.2302 16.3579C67.5069 16.6559 67.8581 16.8049 68.2837 16.8049C68.8371 16.8049 69.316 16.9965 69.7204 17.3796C70.1461 17.7627 70.3696 18.2416 70.3909 18.8163C70.3909 19.3271 70.21 19.7847 69.8481 20.1891C69.5076 20.5722 69.0606 20.8064 68.5072 20.8915H68.0603C67.3153 20.8915 66.6129 20.7425 65.9531 20.4445C65.2933 20.1253 64.708 19.7102 64.1972 19.1994C63.7076 18.6886 63.3139 18.0926 63.0159 17.4115C62.7392 16.7304 62.6008 16.0174 62.6008 15.2724V2.53377C62.6647 2.00166 62.8882 1.54404 63.2713 1.16093C63.6544 0.777807 64.1333 0.575605 64.708 0.554321Z"
            fill="white"/>
    <path
            d="M53.5221 5.40723C54.565 5.40723 55.5547 5.60943 56.4912 6.01383C57.4277 6.41823 58.2472 6.97163 58.9496 7.67401C59.6519 8.37639 60.2053 9.19584 60.6097 10.1323C61.0354 11.0689 61.2483 12.0692 61.2483 13.1334C61.2483 14.1977 61.0461 15.198 60.6417 16.1345C60.2585 17.071 59.7158 17.8905 59.0134 18.5929C58.3323 19.2953 57.5129 19.8486 56.5551 20.2531C55.6186 20.6575 54.6076 20.8597 53.5221 20.8597C52.2024 20.8597 51.0105 20.5936 49.9463 20.0615V23.733C49.9463 24.2864 49.7441 24.7653 49.3397 25.1697C48.9353 25.5741 48.4351 25.7763 47.8391 25.7763C47.307 25.7763 46.8281 25.5848 46.4024 25.2017C45.998 24.8398 45.7852 24.3822 45.7639 23.8288V13.1334C45.7639 12.0905 45.9661 11.1008 46.3705 10.1643C46.7962 9.22777 47.3602 8.40832 48.0626 7.70593C48.765 7.00355 49.5845 6.45016 50.521 6.04576C51.4575 5.62007 52.4578 5.40723 53.5221 5.40723ZM49.9463 13.1334C49.9463 13.6655 50.0421 14.1551 50.2336 14.6021C50.4252 15.0277 50.6806 15.4002 50.9999 15.7195C51.3404 16.0388 51.7235 16.2942 52.1492 16.4857C52.5962 16.656 53.0538 16.7411 53.5221 16.7411C54.0329 16.7411 54.5011 16.6454 54.9268 16.4538C55.3525 16.2622 55.725 16.0068 56.0443 15.6876C56.3635 15.347 56.6083 14.9639 56.7786 14.5382C56.9701 14.0912 57.0659 13.623 57.0659 13.1334C57.0659 12.6439 56.9701 12.1863 56.7786 11.7606C56.587 11.3136 56.3316 10.9305 56.0123 10.6112C55.6931 10.292 55.3206 10.0472 54.8949 9.87694C54.4692 9.68538 54.0116 9.5896 53.5221 9.5896C53.0112 9.5896 52.5323 9.68538 52.0854 9.87694C51.6597 10.0685 51.2872 10.3239 50.9679 10.6432C50.6487 10.9624 50.3933 11.3349 50.2017 11.7606C50.0314 12.1863 49.9463 12.6439 49.9463 13.1334Z"
            fill="white"/>
    <path
            d="M14.4657 0.00544822C14.749 -0.0163439 15.0214 0.0381334 15.2829 0.168881C15.5444 0.277836 15.7732 0.430374 15.9693 0.626494C16.1872 0.822614 16.3506 1.06232 16.4596 1.3456C16.5685 1.60709 16.623 1.87948 16.623 2.16277V5.92173C17.3857 5.52949 18.1702 5.27889 18.9765 5.16994C19.8045 5.03919 20.6217 5.03919 21.428 5.16994C22.2342 5.27889 23.0187 5.5186 23.7814 5.88904C24.5441 6.2377 25.2523 6.71711 25.906 7.32726C26.6687 8.11174 27.2353 8.96159 27.6057 9.87682C27.998 10.7703 28.1941 11.7944 28.1941 12.9494C28.1941 14.0389 27.9762 15.0631 27.5404 16.0219C27.1263 16.9807 26.5598 17.8197 25.8407 18.5388C25.1215 19.2579 24.2826 19.8245 23.3238 20.2385C22.365 20.6525 21.3517 20.8595 20.2839 20.8595C19.2379 20.8595 18.2356 20.6525 17.2767 20.2385C16.3179 19.8027 15.4681 19.2252 14.7272 18.5061C14.0081 17.787 13.4306 16.948 12.9948 15.9892C12.559 15.0304 12.3411 14.0171 12.3411 12.9494V1.99933C12.3411 1.73784 12.4064 1.48724 12.5372 1.24754C12.6679 0.986046 12.8314 0.768136 13.0275 0.593808C13.2236 0.397688 13.4415 0.24515 13.6812 0.136195C13.9427 0.0272381 14.2042 -0.0163439 14.4657 0.00544822ZM16.623 12.9494C16.623 13.4506 16.7211 13.93 16.9172 14.3876C17.1133 14.8234 17.3748 15.2047 17.7017 15.5316C18.0503 15.8585 18.4426 16.12 18.8784 16.3161C19.3142 16.5122 19.7827 16.6103 20.2839 16.6103C20.7633 16.6103 21.2209 16.5122 21.6568 16.3161C22.1144 16.12 22.5066 15.8585 22.8335 15.5316C23.1821 15.2047 23.4545 14.8234 23.6506 14.3876C23.8468 13.93 23.9448 13.4506 23.9448 12.9494C23.9448 12.4482 23.8468 11.9797 23.6506 11.5438C23.4545 11.0862 23.1821 10.694 22.8335 10.3671C22.5066 10.0403 22.1144 9.77876 21.6568 9.58264C21.2209 9.38652 20.7633 9.28846 20.2839 9.28846C19.7827 9.28846 19.3142 9.39741 18.8784 9.61532C18.4426 9.81144 18.0503 10.0838 17.7017 10.4325C17.3748 10.7594 17.1133 11.1516 16.9172 11.6092C16.7211 12.045 16.623 12.4918 16.623 12.9494Z"
            fill="#EF4230"/>
    <path fill-rule="evenodd" clip-rule="evenodd"
          d="M41.4718 19.3442C43.0425 18.2077 44.1458 16.5384 44.5758 14.6478L40.6145 13.747C40.4034 14.6753 39.8617 15.495 39.0904 16.0531C38.3191 16.6111 37.3711 16.8695 36.4233 16.7796C35.777 16.7184 35.161 16.4981 34.6275 16.1446L44.393 10.5852L44.4343 10.5724C43.8743 8.71618 42.6579 7.12739 41.0121 6.10259C39.3663 5.0776 37.4037 4.68676 35.4909 5.00318C33.5781 5.31942 31.8458 6.32102 30.6175 7.8211C29.3892 9.32118 28.7488 11.2171 28.8161 13.1548C28.8834 15.0923 29.6536 16.9392 30.983 18.3506C32.3123 19.7618 34.11 20.6411 36.0401 20.8239C37.9702 21.0067 39.901 20.4808 41.4718 19.3442ZM38.6537 9.42845C37.8916 9.0172 37.0124 8.8691 36.1536 9.01107C35.2143 9.16641 34.3638 9.65821 33.7606 10.3948C33.2203 11.0545 32.9117 11.8704 32.877 12.7172L38.6537 9.42845Z"
          fill="#EF4230"/>
    <path
            d="M5.72115 9.14484C6.01012 8.6205 6.76368 8.6205 7.05265 9.14484L12.6781 19.3523C12.9573 19.8589 12.5908 20.4794 12.0123 20.4794H0.761485C0.183023 20.4794 -0.183467 19.8589 0.0957354 19.3523L5.72115 9.14484Z"
            fill="#EF4230"/>
</svg>
