<svg width="96" height="96" viewBox="0 0 96 96" fill="none" xmlns="http://www.w3.org/2000/svg">
    <g opacity="0.9">
        <g opacity="0.6" filter="url(#filter0_d_1_75)">
            <path d="M48.0239 89.0478C70.6808 89.0478 89.0478 70.6808 89.0478 48.0239C89.0478 25.367 70.6808 7 48.0239 7C25.367 7 7 25.367 7 48.0239C7 70.6808 25.367 89.0478 48.0239 89.0478Z" fill="#0B0F28" fill-opacity="0.71"/>
            <path d="M48.0239 89.4141C70.8831 89.4141 89.4141 70.8831 89.4141 48.0239C89.4141 25.1647 70.8831 6.6337 48.0239 6.6337C25.1647 6.6337 6.6337 25.1647 6.6337 48.0239C6.6337 70.8831 25.1647 89.4141 48.0239 89.4141Z" stroke="url(#paint0_linear_1_75)" stroke-width="0.73257"/>
        </g>
        <path opacity="0.8" d="M48.0239 89.0478C70.6808 89.0478 89.0478 70.6808 89.0478 48.0239C89.0478 25.367 70.6808 7 48.0239 7C25.367 7 7 25.367 7 48.0239C7 70.6808 25.367 89.0478 48.0239 89.0478Z" fill="url(#paint1_radial_1_75)" fill-opacity="0.76"/>
        <path d="M26 40.2332V54.6132C26 56.0668 27.1778 57.2446 28.6313 57.2446H36.1033V37.6019H28.6313C27.1778 37.6019 26 38.7797 26 40.2332Z" fill="white"/>
        <path d="M49.9075 26.7521L37.7562 37.6012V57.2445L49.9075 68.0936C51.8012 69.7841 54.8025 68.4399 54.8025 65.9018V28.944C54.8025 26.4058 51.8012 25.0617 49.9075 26.7521Z" fill="white"/>
        <path d="M67.626 42.1777C68.1878 41.6079 69.1003 41.608 69.6621 42.1777H69.6631C70.222 42.7456 70.2218 43.6657 69.6621 44.2334L65.9463 48L69.6621 51.7676L69.6719 51.7773V51.7783L69.7529 51.8691L69.7607 51.8779H69.7598C70.2188 52.449 70.1859 53.2898 69.6611 53.8223C69.1345 54.3563 68.3002 54.391 67.7344 53.9229L67.7266 53.915L67.6357 53.833L67.626 53.8232L63.915 50.0596L60.2061 53.8232L60.1973 53.833L60.1963 53.832L60.1074 53.9141L60.0977 53.9229C59.5318 54.391 58.6974 54.3563 58.1709 53.8223C57.6459 53.2897 57.6129 52.449 58.0723 51.8779L58.0791 51.8691H58.0801L58.1602 51.7783L58.1699 51.7676L61.8838 48L58.1699 44.2334C57.6102 43.6655 57.6103 42.7457 58.1699 42.1777C58.7318 41.608 59.6442 41.608 60.2061 42.1777L63.915 45.9385L67.626 42.1777Z" fill="white" stroke="white" stroke-width="0.5"/>
    </g>
    <defs>
        <filter id="filter0_d_1_75" x="4.06741" y="6.26743" width="87.913" height="88.643" filterUnits="userSpaceOnUse" color-interpolation-filters="sRGB">
            <feFlood flood-opacity="0" result="BackgroundImageFix"/>
            <feColorMatrix in="SourceAlpha" type="matrix" values="0 0 0 0 0 0 0 0 0 0 0 0 0 0 0 0 0 0 127 0" result="hardAlpha"/>
            <feOffset dy="2.93"/>
            <feGaussianBlur stdDeviation="1.1"/>
            <feComposite in2="hardAlpha" operator="out"/>
            <feColorMatrix type="matrix" values="0 0 0 0 0 0 0 0 0 0 0 0 0 0 0 0 0 0 0.75 0"/>
            <feBlend mode="normal" in2="BackgroundImageFix" result="effect1_dropShadow_1_75"/>
            <feBlend mode="normal" in="SourceGraphic" in2="effect1_dropShadow_1_75" result="shape"/>
        </filter>
        <linearGradient id="paint0_linear_1_75" x1="48.0239" y1="7" x2="48.0239" y2="89.0478" gradientUnits="userSpaceOnUse">
            <stop stop-color="#9B9B9B"/>
            <stop offset="1"/>
        </linearGradient>
        <radialGradient id="paint1_radial_1_75" cx="0" cy="0" r="1" gradientUnits="userSpaceOnUse" gradientTransform="translate(48.0239 48.0239) rotate(90) scale(41.0239)">
            <stop stop-color="white" stop-opacity="0"/>
            <stop offset="0.853089" stop-color="white" stop-opacity="0"/>
            <stop offset="1" stop-color="white"/>
        </radialGradient>
    </defs>
</svg>
