<svg xmlns:xlink="http://www.w3.org/1999/xlink" viewBox="0 0 1920 1080" xmlns="http://www.w3.org/2000/svg">
 <g transform="translate(66.2417 237.851)">
  <g>
   <animateTransform dur="4.5s" type="translate" keySplines="0 0 1 1;0.214286 0 0.357143 1;0 0 1 1" keyTimes="0;0.466667;0.544444;1" calcMode="spline" attributeName="transform" values="893.758 0;893.758 0;745.148 0;745.148 0" fill="freeze"/>
   <g>
    <animateTransform dur="4.5s" type="translate" keySplines="0 0 1 1;0.214286 0.333333 0.357143 0.666667;0 0 1 1" keyTimes="0;0.466667;0.544444;1" calcMode="spline" attributeName="transform" values="0 308.646;0 308.646;0 308.646;0 308.646" fill="freeze"/>
    <g transform="rotate(0)">
     <g>
      <animateTransform dur="4.5s" type="scale" keySplines="0 0 1 1;0.333333 0 0.111111 1;0.555556 0 0.444444 1;0.4 0 0.65 1;0 0 1 1" keyTimes="0;0.244444;0.294444;0.344444;0.455556;1" calcMode="spline" attributeName="transform" values="1 1;1 1;2.177 1;2.17661 1;1 1;1 1" fill="freeze"/>
      <g>
       <animateTransform dur="4.5s" type="scale" keySplines="0 0 1 1;0.333333 0 0.111111 1;0.555556 0 0.444444 1;0.4 0 0.65 1;0 0 1 1" keyTimes="0;0.244444;0.294444;0.344444;0.455556;1" calcMode="spline" attributeName="transform" values="1 1;1 1;1 2.177;1 2.17661;1 1;1 1" fill="freeze"/>
       <g transform="skewX(0) skewY(0)">
        <g transform="translate(-66.2417 -237.851)">
         <path stroke-width="10.4" stroke-linejoin="miter" d="M-20.1453 145.681C-25.4058 145.681 -34.1541 149.12 -34.1541 162.271C-34.1541 162.271 -34.1541 224.567 -34.1541 224.567C-34.1541 226.177 -34.0914 227.746 -33.9698 229.274C-33.9698 229.274 -33.9698 229.276 -33.9698 229.276C-33.9698 229.276 -33.9686 229.287 -33.9686 229.287C-33.8483 230.795 -33.6709 232.263 -33.4397 233.692C-33.4397 233.692 -33.3821 233.692 -33.3821 233.692C-28.6871 262.584 -2.11911 275.539 16.0609 275.539C33.2288 275.539 64.4173 262.376 64.4173 225.752C64.4173 193.376 36.1904 177.18 16.3479 177.682C1.03411 178.07 -7.19679 182.706 -7.19679 182.706C-7.19679 182.706 -7.19679 160.653 -7.19679 160.653C-7.19679 151.751 -14.8849 145.681 -20.1453 145.681ZM15.6661 204.152C28.0694 204.152 38.1243 214.207 38.1243 226.61C38.1243 239.013 28.0694 249.068 15.6661 249.068C3.26286 249.068 -6.79202 239.013 -6.79199 226.61C-6.79203 214.207 3.26285 204.152 15.6661 204.152ZM117.945 201.966C124.08 202.124 128.838 204.526 129.416 204.829C129.416 204.829 129.417 204.83 129.417 204.83C129.454 204.849 129.474 204.86 129.474 204.86C129.474 204.86 94.1681 224.689 94.1681 224.689C94.1681 224.689 93.6725 213.25 105.195 205.568C109.52 202.685 114.015 201.865 117.945 201.966ZM118.639 176.251C82.5864 176.251 68.2798 206.581 68.2798 226.324C68.2798 246.067 84.0176 276.111 119.212 276.111C154.406 276.111 166.601 241.38 166.399 237.131C162.555 235.917 141.512 231.466 141.512 231.466C141.512 231.466 138.617 248.705 118.852 250.283C112.584 250.783 104.63 246.79 104.992 246.337C104.992 246.337 145.45 223.119 145.45 223.119C145.45 223.119 165.6 211.552 165.6 211.552C165.6 211.552 165.403 210.936 165.013 209.922C164.899 209.623 164.711 209.247 164.558 208.872C164.174 207.929 163.741 206.924 163.087 205.584C162.766 204.927 162.334 204.221 161.944 203.491C161.26 202.212 160.553 200.958 159.638 199.524C158.545 197.807 157.359 196.085 155.908 194.283C155.407 193.661 154.878 193.052 154.333 192.432C154.007 192.062 153.729 191.69 153.388 191.322C153.388 191.322 153.359 191.339 153.359 191.339C146.022 183.448 134.91 176.251 118.639 176.251Z" fill-rule="evenodd" stroke="none" fill="rgba(239, 66, 48, 1)" stroke-linecap="round"/>
         <animate dur="4.5s" keySplines="0 0 1 1;0 0 1 1;0 0 1 1" keyTimes="0;0.244444;0.266667;1" calcMode="spline" attributeName="opacity" values="0;0;1;1" fill="freeze"/>
        </g>
       </g>
      </g>
     </g>
    </g>
   </g>
  </g>
 </g>
 <g transform="translate(373.306 223.988)">
  <g transform="translate(866.643 327.711)">
   <g transform="rotate(0)">
    <g>
     <animateTransform dur="4.5s" type="scale" keySplines="0 0 1 1;0.25 0 0.25 1;0 0 1 1" keyTimes="0;0.472222;0.538889;1" calcMode="spline" attributeName="transform" values="0 1;0 1;1 1;1 1" fill="freeze"/>
     <g>
      <animateTransform dur="4.5s" type="scale" keySplines="0 0 1 1;0.25 0 0.25 1;0 0 1 1" keyTimes="0;0.472222;0.538889;1" calcMode="spline" attributeName="transform" values="1 0;1 0;1 1;1 1" fill="freeze"/>
      <g transform="skewX(0) skewY(0)">
       <g opacity="1" transform="translate(-373.306 -223.988)">
        <path stroke-width="10.2323" stroke-linejoin="miter" d="M101.295 160.105C83.4085 160.105 57.2698 172.852 52.6508 201.278C52.6508 201.278 52.5932 201.278 52.5932 201.278C52.3657 202.684 52.1914 204.128 52.073 205.612C52.073 205.612 52.0718 205.623 52.0718 205.623C52.0718 205.623 52.0718 205.624 52.0718 205.624C51.9522 207.128 51.8901 208.672 51.8901 210.255C51.8901 210.255 51.8901 271.548 51.8901 271.548C51.8901 284.487 60.4976 287.87 65.6732 287.87C70.8489 287.87 78.4125 281.898 78.4125 273.139C78.4125 273.139 78.4125 251.442 78.4125 251.442C78.4125 251.442 86.5106 256.003 101.577 256.385C121.1 256.879 148.872 240.945 148.872 209.091C148.872 173.057 118.186 160.105 101.295 160.105ZM100.907 186.15C113.11 186.15 123.003 196.043 123.003 208.246C123.003 220.45 113.11 230.342 100.907 230.342C88.7037 230.342 78.8109 220.45 78.811 208.246C78.811 196.043 88.7037 186.15 100.907 186.15ZM346.499 256.129C352.497 258.874 358.997 260.336 365.394 260.336C375.189 260.336 379.561 258.055 380.844 257.212C380.822 263.355 371.685 269.064 368.398 269.349C365.108 269.636 357.095 270.923 350.514 260.909C349.2 258.909 347.852 257.341 346.499 256.129ZM395.867 158.474C385.423 158.474 381.274 167.487 381.274 174.498C381.274 174.498 381.14 198.378 381.022 220.533C379.52 226.626 371.427 232.296 364.964 232.296C357.811 232.296 348.997 226.859 348.997 217.13C348.997 217.13 348.997 173.049 348.997 173.049C348.997 161.011 338.071 158.481 334.935 158.481C331.799 158.481 320.367 159.291 320.367 173.454C320.367 173.454 320.327 181.937 320.327 215.986C320.327 232.449 328.822 245.244 340.394 252.771C337.167 251.976 334.189 252.617 331.916 253.47C327.338 255.186 320.958 263.614 324.126 270.828C333.566 293.021 352.803 297.962 365.107 297.962C377.411 297.962 409.601 288.52 409.601 253.183C409.601 253.183 409.601 174.498 409.601 174.498C409.601 167.344 406.31 158.474 395.867 158.474ZM260.405 186.46C272.503 186.46 282.31 196.267 282.31 208.365C282.31 220.463 272.503 230.271 260.405 230.271C248.307 230.271 238.499 220.463 238.499 208.365C238.499 196.267 248.307 186.46 260.405 186.46ZM260.02 160.641C243.275 160.641 212.853 173.479 212.853 209.202C212.853 240.781 240.385 256.579 259.739 256.089C274.676 255.711 283.21 250.682 283.21 250.682C283.21 250.682 284.918 250.533 284.918 250.533C286.748 253.856 290.886 256.382 294.979 256.484C300.109 256.611 308.998 252.889 308.998 242.085C308.998 242.085 308.998 210.358 308.998 210.358C308.998 208.402 308.904 206.508 308.721 204.674C305.686 174.209 278.421 160.641 260.02 160.641ZM156.947 144.739C156.947 134.153 165.102 130.29 170.252 130.29C175.403 130.29 183.557 135.44 183.557 145.026C183.557 154.611 183.557 214.412 183.557 220.85C183.557 220.85 182.914 231.294 192.141 231.294C201.369 231.294 205.59 237.875 205.59 243.955C205.59 250.036 199.724 257.117 190.925 257.117C182.127 257.117 156.947 247.89 156.947 222.567C156.947 197.244 156.947 144.739 156.947 144.739C156.947 144.739 156.947 144.739 156.947 144.739Z" fill-rule="evenodd" stroke="none" fill="rgba(249, 249, 249, 1)" stroke-linecap="round"/>
       </g>
      </g>
     </g>
    </g>
   </g>
  </g>
 </g>
 <g transform="translate(252.946 141.345)">
  <g transform="translate(707.054 398.655)">
   <g transform="rotate(0)">
    <g transform="scale(3.79819 3.79819)">
     <g transform="skewX(0) skewY(0)">
      <g opacity="1" transform="translate(-252.946 -141.345)">
       <g>
        <g transform="translate(0 0)">
         <g transform="translate(252.52 145.726)">
          <g transform="rotate(0)">
           <g transform="scale(1.02988 1.02988)">
            <g transform="skewX(0) skewY(0)">
             <g transform="translate(0 0)">
              <ellipse ry="45" cy="0" stroke-width="2" stroke-linejoin="round" cx="0" rx="45" stroke="rgba(239, 66, 48, 1)" fill="none" stroke-linecap="round"/>
              <animate dur="4.5s" keySplines="0 0 1 1;0 0 1 1;0 0 1 1;0 0 1 1" keyTimes="0;0.0888889;0.116667;0.155556;1" calcMode="spline" attributeName="opacity" values="0;0;1;0;0" fill="freeze"/>
             </g>
            </g>
           </g>
          </g>
         </g>
        </g>
        <g transform="translate(5 5)">
         <g transform="translate(203.566 95.9897)">
          <g transform="rotate(0)">
           <g transform="scale(1 1)">
            <g transform="skewX(0) skewY(0)">
             <g transform="translate(-5 -5)">
              <rect width="98" ry="0" y="0" height="98" stroke-width="2" stroke-linejoin="round" rx="0" x="0" stroke="rgba(239, 66, 48, 1)" fill="none" stroke-linecap="round"/>
              <animate dur="4.5s" keySplines="0 0 1 1;0 0 1 1;0 0 1 1;0 0 1 1" keyTimes="0;0.155556;0.183333;0.216667;1" calcMode="spline" attributeName="opacity" values="0;0;1;0;0" fill="freeze"/>
             </g>
            </g>
           </g>
          </g>
         </g>
        </g>
        <g transform="translate(-20.2932 222.61)">
         <g transform="translate(273.26 -77.0393)">
          <g transform="rotate(0)">
           <g>
            <animateTransform dur="4.5s" type="scale" keySplines="0 0 1 1;0.293651 0 0.125 1;0.257353 0.333333 0.552036 0.666667;0.528846 0.333333 0.375 0.666667;0.333333 0 0.111111 1;0 0 1 1" keyTimes="0;0.0555556;0.105556;0.2;0.244444;0.294444;1" calcMode="spline" attributeName="transform" values="0 1;0 1;1.5 1;1.5 1;1.5 1;0 1;0 1" fill="freeze"/>
            <g>
             <animateTransform dur="4.5s" type="scale" keySplines="0 0 1 1;0.293651 0 0.125 1;0.175 0.333333 0.8 0.666667;0.333333 0 0.111111 1;0 0 1 1" keyTimes="0;0.0555556;0.105556;0.244444;0.294444;1" calcMode="spline" attributeName="transform" values="1 0;1 0;1 1.5;1 1.5;1 0;1 0" fill="freeze"/>
             <g transform="skewX(0) skewY(0)">
              <g opacity="1" transform="translate(20.2932 -222.61)">
               <path stroke-width="2.95078" stroke-linejoin="miter" d="M0 0" fill-rule="evenodd" stroke="none" fill="rgba(239, 66, 48, 1)" stroke-linecap="square">
                <animate dur="4.5s" keySplines="0 0 1 1;0 0 1 1;0 0 1 1;0 0 1 1;0 0 1 1;0 0 1 1" keyTimes="0;0.122222;0.161111;0.194444;0.211111;0.227778;1" calcMode="spline" attributeName="d" values="M-4.54894 237.898C-11.6449 245.104 -25.2053 248.139 -36.2182 237.978C-41.4368 232.381 -42.3776 225.599 -42.3659 221.404C-42.3747 216.103 -39.2468 209.533 -34.908 205.922C-26.4363 198.942 -15.5628 198.356 -5.67831 205.922C-1.04849 209.887 1.6564 216.297 1.67465 222.101C1.6125 229.059 -0.230748 232.765 -4.54894 237.898Z;M-4.54894 237.898C-11.6449 245.104 -25.2053 248.139 -36.2182 237.978C-41.4368 232.381 -42.3776 225.599 -42.3659 221.404C-42.3747 216.103 -39.2468 209.533 -34.908 205.922C-26.4363 198.942 -15.5628 198.356 -5.67831 205.922C-1.04849 209.887 1.6564 216.297 1.67465 222.101C1.6125 229.059 -0.230748 232.765 -4.54894 237.898Z;M1.45283 244.564C1.45283 244.564 -42.0392 244.564 -42.0392 244.564C-42.0392 244.564 -42.058 239.722 -42.058 239.722C-42.058 239.722 -42.0572 200.656 -42.0572 200.656C-42.0572 200.656 1.47082 200.656 1.47082 200.656C1.47082 200.656 1.47165 239.722 1.47165 239.722C1.47165 239.722 1.45283 244.564 1.45283 244.564Z;M1.45283 244.564C1.45283 244.564 -42.0392 244.564 -42.0392 244.564C-42.0392 244.564 -42.058 239.722 -42.058 239.722C-42.058 239.722 -42.0572 200.656 -42.0572 200.656C-42.0572 200.656 1.47082 200.656 1.47082 200.656C1.47082 200.656 1.47165 239.722 1.47165 239.722C1.47165 239.722 1.45283 244.564 1.45283 244.564Z;M1.62401 244.564C1.62401 244.564 -42.2104 244.564 -42.2104 244.564C-43.333 244.569 -44.2086 240.807 -43.5683 239.722C-43.5683 239.722 -32.5237 200.361 -32.5237 200.361C-30.981 195.019 -9.91739 194.71 -8.0627 200.361C-8.0627 200.361 2.9819 239.722 2.9819 239.722C3.64442 240.96 2.62149 244.586 1.62401 244.564Z;M1.7952 244.564C1.7952 244.564 -42.3815 244.564 -42.3815 244.564C-44.6269 244.574 -46.3591 241.892 -45.0785 239.722C-45.0785 239.722 -22.9901 200.066 -22.9901 200.066C-21.8752 198.05 -18.9412 197.827 -17.5962 200.066C-17.5962 200.066 4.49216 239.722 4.49216 239.722C5.81718 242.198 3.79016 244.607 1.7952 244.564Z;M1.7952 244.564C1.7952 244.564 -42.3815 244.564 -42.3815 244.564C-44.6269 244.574 -46.3591 241.892 -45.0785 239.722C-45.0785 239.722 -22.9901 200.066 -22.9901 200.066C-21.8752 198.05 -18.9412 197.827 -17.5962 200.066C-17.5962 200.066 4.49216 239.722 4.49216 239.722C5.81718 242.198 3.79016 244.607 1.7952 244.564Z" fill="freeze"/>
               </path>
              </g>
             </g>
            </g>
           </g>
          </g>
         </g>
        </g>
        <g transform="translate(-20.2932 222.61)">
         <g transform="translate(273.26 -81.0957)">
          <g transform="rotate(0)">
           <g transform="scale(2.17943 2.17943)">
            <g transform="skewX(0) skewY(0)">
             <g transform="translate(20.2932 -222.61)">
              <path stroke-width="1.1" stroke-linejoin="miter" d="M1.7952 244.564C1.7952 244.564 -42.3815 244.564 -42.3815 244.564C-44.6269 244.574 -46.3591 241.892 -45.0785 239.722C-45.0785 239.722 -22.9901 200.066 -22.9901 200.066C-21.8752 198.05 -18.9412 197.827 -17.5962 200.066C-17.5962 200.066 4.49216 239.722 4.49216 239.722C5.81718 242.198 3.79016 244.607 1.7952 244.564Z" fill-rule="evenodd" stroke="rgba(239, 66, 48, 1)" fill="none" stroke-linecap="square"/>
              <animate dur="4.5s" keySplines="0 0 1 1;0 0 1 1;0 0 1 1;0 0 1 1" keyTimes="0;0.216667;0.244444;0.272222;1" calcMode="spline" attributeName="opacity" values="0;0;1;0;0" fill="freeze"/>
             </g>
            </g>
           </g>
          </g>
         </g>
        </g>
       </g>
      </g>
     </g>
    </g>
   </g>
  </g>
 </g>
 <g transform="translate(-20.1438 221.331)">
  <g transform="translate(694.874 323.926)">
   <g transform="rotate(360)">
    <g>
     <animateTransform dur="4.5s" type="scale" keySplines="0 0 1 1;0.3 0 0.2 1;0 0 1 1" keyTimes="0;0.527778;0.583333;1" calcMode="spline" attributeName="transform" values="0 1;0 1;1 1;1 1" fill="freeze"/>
     <g>
      <animateTransform dur="4.5s" type="scale" keySplines="0 0 1 1;0.3 0 0.2 1;0 0 1 1" keyTimes="0;0.527778;0.583333;1" calcMode="spline" attributeName="transform" values="1 0;1 0;1 1;1 1" fill="freeze"/>
      <g transform="skewX(0) skewY(0)">
       <g opacity="1" transform="translate(20.1438 -221.331)">
        <path stroke-width="2.95078" stroke-linejoin="miter" d="M14.8465 257.855C14.8465 257.855 -55.1341 257.855 -55.1341 257.855C-56.8966 257.855 -58.5251 256.88 -59.4064 255.298C-60.2876 253.716 -60.2876 251.767 -59.4064 250.185C-59.4064 250.185 -24.416 187.365 -24.416 187.365C-23.5348 185.783 -21.9062 184.808 -20.1438 184.808C-18.3813 184.808 -16.7527 185.783 -15.8715 187.365C-15.8715 187.365 19.1188 250.185 19.1188 250.185C20.0001 251.767 20.0001 253.716 19.1188 255.298C18.2376 256.88 16.609 257.855 14.8465 257.855Z" fill-rule="evenodd" stroke="none" fill="rgba(239, 66, 48, 1)" stroke-linecap="square"/>
       </g>
      </g>
     </g>
    </g>
   </g>
  </g>
 </g>
 <g transform="translate(-20.1438 221.331)">
  <g transform="translate(694.261 320.753)">
   <g transform="rotate(360)">
    <g transform="scale(1.31605 1.31605)">
     <g transform="skewX(0) skewY(0)">
      <g transform="translate(20.1438 -221.331)">
       <path stroke-width="2.95078" stroke-linejoin="miter" d="M14.8465 257.855C14.8465 257.855 -55.1341 257.855 -55.1341 257.855C-56.8966 257.855 -58.5251 256.88 -59.4064 255.298C-60.2876 253.716 -60.2876 251.767 -59.4064 250.185C-59.4064 250.185 -24.416 187.365 -24.416 187.365C-23.5348 185.783 -21.9062 184.808 -20.1438 184.808C-18.3813 184.808 -16.7527 185.783 -15.8715 187.365C-15.8715 187.365 19.1188 250.185 19.1188 250.185C20.0001 251.767 20.0001 253.716 19.1188 255.298C18.2376 256.88 16.609 257.855 14.8465 257.855Z" fill-rule="evenodd" stroke="rgba(239, 66, 48, 1)" fill="none" stroke-linecap="square"/>
       <animate dur="4.5s" keySplines="0 0 1 1;0 0 1 1;0 0.333333 1 0.666667;0 0 1 1;0 0 1 1" keyTimes="0;0.561111;0.588889;0.666667;0.888889;1" calcMode="spline" attributeName="opacity" values="0;0;1;1;0;0" fill="freeze"/>
      </g>
     </g>
    </g>
   </g>
  </g>
 </g>
 <defs/>
</svg>
